<?xml version="1.0" standalone="no"?>
<!DOCTYPE svg PUBLIC "-//W3C//DTD SVG 1.1//EN" "http://www.w3.org/Graphics/SVG/1.1/DTD/svg11.dtd" >
<svg xmlns="http://www.w3.org/2000/svg" xmlns:xlink="http://www.w3.org/1999/xlink" version="1.1">
<metadata>
Created by FontForge 20161013 at Fri Nov 16 22:46:42 2012
 By ,,,
Copyright (c) 2000-2012, Luc[as] de Groot. All rights reserved. Published by LucasFonts.com
</metadata>
<defs>
<font id="TheSansB2-Regular" horiz-adv-x="550" >
  <font-face 
    font-family="TheSans B2 Regular"
    font-weight="500"
    font-stretch="normal"
    units-per-em="1000"
    panose-1="2 11 5 2 5 3 2 2 2 3"
    ascent="740"
    descent="-260"
    x-height="497"
    cap-height="675"
    bbox="-367 -320 1020.5 980"
    underline-thickness="72"
    underline-position="-358"
    unicode-range="U+000D-FB06"
  />
<missing-glyph 
d="M450 100v350h-350v-350h350zM250 350v50h150v-250h-50v100h-100v50h100v50h-100zM50 50v450h450v-450h-450zM150 150v250h50v-200h100v-50h-150z" />
    <glyph glyph-name=".notdef" 
d="M450 100v350h-350v-350h350zM250 350v50h150v-250h-50v100h-100v50h100v50h-100zM50 50v450h450v-450h-450zM150 150v250h50v-200h100v-50h-150z" />
    <glyph glyph-name=".null" horiz-adv-x="0" 
 />
    <glyph glyph-name=".null" horiz-adv-x="0" 
 />
    <glyph glyph-name="nonmarkingreturn" unicode="&#xd;" horiz-adv-x="500" 
 />
    <glyph glyph-name="space" unicode=" " horiz-adv-x="218" 
 />
    <glyph glyph-name="space" unicode="&#xa0;" horiz-adv-x="218" 
 />
    <glyph glyph-name="exclam" unicode="!" horiz-adv-x="320" 
d="M229 50q0 -25 -17.5 -42t-42.5 -17q-26 0 -43.5 17t-17.5 42t17.5 42t43.5 17q25 0 42.5 -17t17.5 -42zM207 168h-75l-16 535h106z" />
    <glyph glyph-name="quotedbl" unicode="&#x22;" horiz-adv-x="366" 
d="M132 469h-66l-14 230h95zM300 469h-67l-14 230h95z" />
    <glyph glyph-name="numbersign" unicode="#" horiz-adv-x="577" 
d="M448 429l-19 -177h91v-62h-98l-20 -190h-72l19 190h-153l-20 -190h-72l20 190h-92v62h98l20 177h-93v62h98l20 184h73l-20 -184h153l20 184h73l-20 -184h90v-62h-96zM222 429l-19 -177h153l19 177h-153z" />
    <glyph glyph-name="dollar" unicode="$" horiz-adv-x="489" 
d="M435 208q0 -34 -11.5 -64t-33 -54t-53 -41t-70.5 -24v-130h-67v126q-36 1 -66 4.5t-58 10.5l6 84q13 -5 29.5 -9.5t34 -7.5t34.5 -4.5t32 -1.5q28 0 51.5 6t41 18t27 30.5t9.5 44.5q0 31 -19 51.5t-39.5 30.5t-73.5 32t-82.5 41.5t-49 51.5t-19.5 79q0 32 11.5 60.5
t32.5 50.5t50.5 36.5t65.5 20.5v105h67v-101q29 -1 56 -4t50 -8l-6 -80q-28 8 -57.5 13t-55.5 5q-33 0 -57 -7t-38.5 -19.5t-21 -28t-6.5 -32.5q0 -30 19 -50.5t39 -30t74.5 -32.5t84.5 -42.5t49.5 -51.5t19.5 -78z" />
    <glyph glyph-name="percent" unicode="%" horiz-adv-x="750" 
d="M261 528q0 50 -17.5 73.5t-54.5 23.5q-32 0 -51.5 -25.5t-19.5 -68.5q0 -99 74 -99q30 0 49.5 26.5t19.5 69.5zM632 146q0 50 -17.5 73.5t-54.5 23.5q-32 0 -51.5 -25.5t-19.5 -68.5q0 -98 74 -98q30 0 49.5 26t19.5 69zM335 534q0 -35 -10.5 -65t-30.5 -51.5t-48 -33.5
t-61 -12q-71 0 -106 39.5t-35 113.5q0 34 10.5 63.5t30.5 51t47.5 33.5t61.5 12q70 0 105.5 -38.5t35.5 -112.5zM154 -21l-58 42l497 673l58 -41zM706 153q0 -35 -10.5 -65t-30.5 -52t-48 -34t-61 -12q-71 0 -106 40t-35 113q0 34 10.5 63.5t30.5 51t47.5 33.5t61.5 12
q70 0 105.5 -38.5t35.5 -111.5z" />
    <glyph glyph-name="ampersand" unicode="&#x26;" horiz-adv-x="795" 
d="M476 137q-31 25 -64 52.5t-64 54.5t-58 52.5t-48 48.5q-50 -42 -72 -76.5t-22 -73.5q0 -26 9.5 -49.5t28 -41.5t46.5 -27.5t61 -9.5q60 0 105.5 20.5t77.5 49.5zM350 592q0 31 -19.5 53t-58.5 22q-35 0 -58 -22.5t-23 -55.5q0 -25 13.5 -58t54.5 -80q43 33 67 68t24 73z
M682 -20q-36 27 -74 56t-67 52q-49 -43 -116 -70.5t-147 -27.5q-54 0 -97.5 15t-71 41.5t-40.5 61.5t-13 76q0 64 36.5 116t98.5 98q-26 32 -43 57t-27 47.5t-14.5 42t-4.5 39.5q0 31 11.5 58t34 48t56 33.5t76.5 12.5q76 0 118 -38t42 -98q0 -54 -31 -100.5t-99 -99.5
q22 -23 49 -47.5t56.5 -50t61 -51.5t61.5 -49v0q33 46 51 108.5t15 137.5h90q2 -85 -21.5 -161t-69.5 -135q38 -29 73 -55t62 -46z" />
    <glyph glyph-name="quotesingle" unicode="'" horiz-adv-x="199" 
d="M132 469h-66l-14 230h95z" />
    <glyph glyph-name="parenleft" unicode="(" horiz-adv-x="303" 
d="M216 -209q-43 68 -71.5 133t-45 126t-23 118t-6.5 116q0 58 7.5 117t24.5 121.5t45.5 128t69.5 130.5l65 -31q-61 -104 -92.5 -221.5t-31.5 -239.5q0 -255 125 -465z" />
    <glyph glyph-name="parenright" unicode=")" horiz-adv-x="303" 
d="M238 289q0 -58 -7.5 -117t-24 -122t-45.5 -128.5t-70 -130.5l-65 32q61 104 92.5 221t31.5 239q0 128 -31 244t-94 222l68 32q42 -68 71 -132.5t45 -125.5t22.5 -118t6.5 -116z" />
    <glyph glyph-name="asterisk" unicode="*" horiz-adv-x="374" 
d="M296 477l-90 66l11 -112h-67l11 112l-90 -66l-33 58l103 45l-103 46l34 58l90 -66l-11 112h67l-12 -112l91 66l33 -58l-103 -45l103 -46z" />
    <glyph glyph-name="plus" unicode="+" 
d="M317 260v-201h-85v201h-190v75h190v200h85v-200h191v-75h-191z" />
    <glyph glyph-name="comma" unicode="," horiz-adv-x="228" 
d="M112 113q28 0 45 -21t17 -55q0 -25 -9.5 -52t-25 -51.5t-35.5 -47t-40 -40.5l-38 34q22 23 39 51t17 54q0 15 -4 23.5t-9.5 16t-8.5 15.5t-3 18q0 22 15.5 38.5t39.5 16.5z" />
    <glyph glyph-name="hyphen" unicode="-" horiz-adv-x="330" 
d="M47 250v74h236v-74h-236z" />
    <glyph glyph-name="hyphen" unicode="&#x2010;" horiz-adv-x="330" 
d="M47 250v74h236v-74h-236z" />
    <glyph glyph-name="hyphen" unicode="&#xad;" horiz-adv-x="330" 
d="M47 250v74h236v-74h-236z" />
    <glyph glyph-name="period" unicode="." horiz-adv-x="228" 
d="M176 53q0 -25 -18 -43.5t-44 -18.5t-44 18.5t-18 43.5q1 28 19.5 45t42.5 17q26 0 44 -18.5t18 -43.5z" />
    <glyph glyph-name="slash" unicode="/" horiz-adv-x="438" 
d="M89 -161h-86l350 918h86z" />
    <glyph glyph-name="zero.oldstyle" unicode="0" horiz-adv-x="614" 
d="M563 267q0 -63 -20 -114.5t-56.5 -88t-84 -55.5t-101.5 -19q-57 0 -103.5 18t-79.5 52t-50 83t-17 110q0 63 20 114.5t56.5 88t84 55.5t101.5 19q57 0 103.5 -18t79.5 -52t50 -83t17 -110zM470 260q0 41 -10.5 76.5t-31 61.5t-51 40.5t-70.5 14.5q-35 0 -65 -13.5
t-52.5 -38.5t-34.5 -61t-12 -80q0 -41 10.5 -76.5t31.5 -61.5t51.5 -40.5t70.5 -14.5q35 0 65 13.5t52 38.5t34 61t12 80z" />
    <glyph glyph-name="one.oldstyle" unicode="1" horiz-adv-x="338" 
d="M153 0v436l-113 -48l-15 77l148 57h73v-522h-93z" />
    <glyph glyph-name="two.oldstyle" unicode="2" horiz-adv-x="482" 
d="M53 0v72l132 113q31 24 54.5 45.5t39.5 42t24 40.5t8 42q0 43 -27 71t-80 28q-35 0 -69.5 -12.5t-56.5 -25.5l-13 78q33 16 72.5 26t85.5 10t80.5 -12t58 -33.5t35.5 -50.5t12 -63q0 -55 -31 -104t-97 -100l-105 -86l-2 -4q19 2 46.5 2.5t61.5 1t72 0.5h78v-81h-379z" />
    <glyph glyph-name="three.oldstyle" unicode="3" horiz-adv-x="461" 
d="M408 36q0 -47 -18.5 -89t-53.5 -73t-86 -48.5t-117 -17.5q-22 0 -47.5 2.5t-45.5 7.5l9 81q18 -5 42.5 -9t49.5 -4q42 0 73.5 10.5t53 29.5t32.5 43.5t11 54.5q0 37 -17 63.5t-47 42t-72.5 20.5t-94.5 0v72q50 0 90 8t68 24.5t43 41.5t15 58q0 47 -30 74t-82 27
q-32 0 -62.5 -8.5t-55.5 -22.5l-9 77q34 14 69.5 21.5t73.5 7.5q50 0 86 -13.5t59 -35t34.5 -51t11.5 -61.5q0 -58 -33.5 -101t-87.5 -65v-1q31 -6 57 -20.5t43.5 -36.5t27.5 -49.5t10 -59.5z" />
    <glyph glyph-name="four.oldstyle" unicode="4" horiz-adv-x="544" 
d="M410 0v-187h-89v187h-291l-14 74l277 446h29h88v-439h120v-81h-120zM322 432h-1l-218 -352q22 0 53.5 0.5t64 0.5h60.5h41v351z" />
    <glyph glyph-name="five.oldstyle" unicode="5" horiz-adv-x="467" 
d="M419 52q0 -52 -21 -97t-60.5 -78t-93 -51t-116.5 -18q-22 0 -42 1.5t-36 4.5l8 80q18 -3 39 -5.5t40 -2.5q45 0 80 12t58.5 33t35.5 48.5t12 58.5q0 69 -50 106t-146 37h-25t-24 -1v340h317v-88h-231v-174q60 0 108 -15t80.5 -42t49.5 -65t17 -84z" />
    <glyph glyph-name="six.oldstyle" unicode="6" horiz-adv-x="582" 
d="M437 217q0 68 -35 106.5t-96 38.5q-34 0 -60 -11.5t-43 -31t-25.5 -44t-8.5 -50.5q0 -31 8 -59.5t24.5 -50.5t42 -35t59.5 -13q31 0 56 11.5t42 31.5t26.5 47.5t9.5 59.5zM533 230q0 -52 -17.5 -96.5t-49.5 -76t-76.5 -49.5t-98.5 -18q-106 0 -165.5 76t-59.5 212
q0 107 26.5 187t74 133t112.5 80t143 27q8 0 22 -0.5t24 -1.5v-80q-14 2 -27.5 3.5t-27.5 1.5q-53 0 -94.5 -16.5t-71.5 -46.5t-49.5 -72.5t-29.5 -93.5q-2 -8 -4 -16.5t-4 -22.5l1 -1q23 38 65.5 60t99.5 22q48 0 86.5 -15t65.5 -43t41 -66.5t14 -86.5z" />
    <glyph glyph-name="seven.oldstyle" unicode="7" horiz-adv-x="459" 
d="M430 444q-60 -137 -114 -295.5t-94 -335.5h-102q44 177 99.5 333t110.5 288q-25 -1 -72.5 -1.5t-88.5 -0.5h-144v88h405v-76v0z" />
    <glyph glyph-name="eight.oldstyle" unicode="8" horiz-adv-x="551" 
d="M398 167q0 50 -36 83.5t-95 65.5h-1q-51 -30 -82.5 -64t-31.5 -79q0 -48 33 -77.5t91 -29.5q51 0 86.5 26.5t35.5 74.5zM387 538q0 40 -28.5 68.5t-83.5 28.5t-84.5 -28.5t-29.5 -70.5t30.5 -71.5t86.5 -60.5h1q57 36 82.5 66t25.5 68zM494 179q0 -46 -18.5 -81
t-49.5 -59t-72.5 -36.5t-88.5 -12.5q-51 0 -90 13t-65.5 36t-40 55t-13.5 69q0 35 12.5 63t32 51t44.5 42t50 35h-1q-61 35 -94.5 77t-33.5 100q0 39 15.5 72t43.5 56.5t67.5 36.5t87.5 13q47 0 84 -12t63 -33.5t39.5 -51t13.5 -65.5q0 -54 -32 -96t-99 -84q27 -16 53 -34
t46.5 -40.5t33 -50t12.5 -63.5z" />
    <glyph glyph-name="nine.oldstyle" unicode="9" horiz-adv-x="582" 
d="M413 288q0 72 -34.5 118.5t-100.5 46.5q-30 0 -54.5 -11.5t-42.5 -32t-27.5 -47.5t-9.5 -58q0 -70 34.5 -108t97.5 -38q31 0 56.5 11t43.5 29t27.5 41.5t9.5 48.5zM516 239q0 -105 -25.5 -187t-74 -136t-114 -81t-149.5 -27q-11 0 -26 1t-34 4v84q14 -4 32.5 -7t32.5 -3
q107 0 167 55t82 158q2 8 4.5 23.5t4.5 29.5h-1q-25 -35 -67 -55.5t-94 -20.5q-48 0 -86 15t-64.5 42.5t-40.5 67t-14 87.5q0 51 17 95t48.5 76.5t75 51t97.5 18.5q50 0 92 -17.5t72.5 -53t47.5 -90t17 -130.5z" />
    <glyph glyph-name="colon" unicode=":" horiz-adv-x="286" 
d="M220 53q0 -26 -18 -44t-44 -18t-44 18t-18 44t18 44t44 18t44 -18t18 -44zM220 346q0 -26 -18 -44t-44 -18t-44 18t-18 44t18 44t44 18t44 -18t18 -44z" />
    <glyph glyph-name="semicolon" unicode=";" horiz-adv-x="286" 
d="M157 113q28 0 45 -21t17 -55q-1 -50 -32.5 -100t-77.5 -91l-38 34q22 23 39 51t17 54q0 15 -4 23.5t-9.5 16t-8.5 15.5t-3 18q0 22 15.5 38.5t39.5 16.5zM220 346q0 -26 -18 -44t-44 -18t-44 18t-18 44t18 44t44 18t44 -18t18 -44z" />
    <glyph glyph-name="semicolon" unicode="&#x37e;" horiz-adv-x="286" 
d="M157 113q28 0 45 -21t17 -55q-1 -50 -32.5 -100t-77.5 -91l-38 34q22 23 39 51t17 54q0 15 -4 23.5t-9.5 16t-8.5 15.5t-3 18q0 22 15.5 38.5t39.5 16.5zM220 346q0 -26 -18 -44t-44 -18t-44 18t-18 44t18 44t44 18t44 -18t18 -44z" />
    <glyph glyph-name="less" unicode="&#x3c;" 
d="M388 19l-316 283l316 284l58 -58l-259 -225l259 -222z" />
    <glyph glyph-name="equal" unicode="=" 
d="M56 175v74h438v-74h-438zM56 346v74h438v-74h-438z" />
    <glyph glyph-name="greater" unicode="&#x3e;" 
d="M162 19l-58 58l259 225l-259 222l58 62l316 -283z" />
    <glyph glyph-name="question" unicode="?" horiz-adv-x="445" 
d="M252 50q0 -25 -17.5 -42t-43.5 -17q-25 0 -42.5 17t-17.5 42t17.5 42t42.5 17q26 0 43.5 -17t17.5 -42zM385 516q0 -38 -13.5 -67t-28.5 -45.5t-47.5 -48.5t-48.5 -55.5t-20.5 -56t8.5 -75.5h-88q-15 47 -12 83t18 63t40 52.5t46 47t34 44t13 49.5q0 50 -55 83.5
t-147 37.5l11 82q68 -2 122.5 -18.5t91.5 -43t56.5 -61t19.5 -71.5z" />
    <glyph glyph-name="at" unicode="@" horiz-adv-x="1024" 
d="M596 426q-26 7 -62 7q-35 0 -62 -18.5t-45 -49t-26.5 -66t-8.5 -68.5q0 -93 54 -93q20 0 40.5 15t39.5 44.5t34.5 73t25.5 98.5zM940 366q0 -69 -18 -125.5t-51 -96.5t-76.5 -60.5t-93.5 -20.5q-32 0 -56 10t-38.5 27t-20.5 39t-4 46h-2q-10 -23 -24.5 -44.5t-34.5 -39
t-45 -28t-53 -10.5q-55 0 -87 40t-32 113q0 59 16 111t47.5 92.5t78.5 63t107 22.5q56 -1 91 -6.5t52 -9.5l-42 -222q-13 -63 3 -96t57 -33q30 0 56.5 15t46 44t30.5 70.5t11 92.5q0 55 -17.5 106t-55 91.5t-97 64t-139.5 23.5q-79 0 -149.5 -30t-123.5 -85t-82.5 -130
t-29.5 -162q0 -76 21.5 -137t64 -104t106 -66t146.5 -23q45 0 92 7t94 20l11 -69q-47 -14 -102.5 -22t-104.5 -8q-97 0 -173.5 27.5t-129 79t-80 124t-27.5 161.5q0 105 36.5 195t102 156t151.5 101.5t181 35.5q94 0 167.5 -27.5t122 -76.5t73 -112t24.5 -134z" />
    <glyph glyph-name="A" unicode="A" horiz-adv-x="615" 
d="M333 493q-7 21 -14.5 46t-14.5 49h-1q-5 -20 -11.5 -41t-16.5 -53l-92 -260h242zM502 0l-55 161h-287l-56 -161h-94l242 675h112l241 -675h-103z" />
    <glyph glyph-name="B" unicode="B" horiz-adv-x="571" 
d="M424 194q0 29 -10 51t-31.5 37t-56 23t-81.5 8h-24.5t-24 -0.5t-19.5 -0.5v-236q30 -5 87 -5q80 0 120 34t40 89zM402 498q0 24 -7 43t-23.5 34t-44 23t-67.5 8q-15 0 -36.5 -1t-46.5 -2v-220q9 0 18.5 -0.5t20 -0.5h30.5q77 0 116.5 30t39.5 86zM521 200
q0 -36 -14 -71.5t-45 -65.5t-82.5 -48t-122.5 -18q-27 0 -89 1.5t-83 1.5v675q24 1 76 2.5t108 1.5q115 0 172 -44t57 -123q0 -53 -29.5 -94.5t-82.5 -60.5v-1q31 -6 56 -19t42.5 -33t27 -46.5t9.5 -57.5z" />
    <glyph glyph-name="C" unicode="C" horiz-adv-x="583" 
d="M538 28q-40 -17 -88 -26.5t-97 -9.5q-79 0 -137.5 24.5t-96 68.5t-55.5 104t-18 132q0 79 20 144.5t60.5 114t103.5 75t146 26.5q39 0 80 -5.5t75 -15.5l-15 -84q-36 12 -74 19t-75 7q-57 0 -99 -20t-69.5 -56.5t-40.5 -84.5t-13 -105q0 -127 56.5 -194.5t170.5 -67.5
q37 0 78 9t73 24z" />
    <glyph glyph-name="D" unicode="D" horiz-adv-x="678" 
d="M535 339q0 130 -63.5 197t-193.5 67q-22 0 -55 -1t-46 -2v-520q18 -3 42.5 -4.5t46.5 -1.5q60 0 109.5 16t85 48.5t55 83t19.5 117.5zM632 345q0 -85 -27 -150.5t-77.5 -110t-119.5 -66.5t-152 -22q-36 0 -92 2t-79 2v674q55 1 106 2.5t96 1.5q82 0 146 -19.5
t108.5 -60.5t67.5 -104t23 -149z" />
    <glyph glyph-name="E" unicode="E" horiz-adv-x="513" 
d="M85 0v675h360v-76h-268v-214h246v-74h-246v-234h268v-77h-360z" />
    <glyph glyph-name="F" unicode="F" horiz-adv-x="471" 
d="M177 599v-220h241v-74h-241v-305h-92v675h351v-76h-259z" />
    <glyph glyph-name="G" unicode="G" horiz-adv-x="682" 
d="M601 30q-50 -19 -108.5 -29t-114.5 -10q-79 0 -141 22.5t-105.5 65.5t-66 104t-22.5 138q0 80 23.5 146.5t69.5 115t114 75t156 26.5q48 0 95 -7.5t92 -21.5l-20 -83q-42 16 -86.5 24.5t-89.5 8.5q-66 0 -115 -21.5t-80 -59t-46 -86t-15 -103.5q0 -63 17 -112t49 -83
t78.5 -51.5t105.5 -17.5q32 0 61 4.5t58 13.5v255h91v-314z" />
    <glyph glyph-name="H" unicode="H" horiz-adv-x="698" 
d="M521 0v311h-344v-311h-92v675h92v-286h344v286h92v-675h-92z" />
    <glyph glyph-name="I" unicode="I" horiz-adv-x="262" 
d="M85 0v675h92v-675h-92z" />
    <glyph glyph-name="J" unicode="J" horiz-adv-x="346" 
d="M261 178q0 -88 -44 -136.5t-134 -48.5q-48 0 -82 8v80q14 -4 36.5 -7.5t40.5 -3.5q22 0 38.5 5.5t28 18t18 34t6.5 54.5v493h92v-497z" />
    <glyph glyph-name="K" unicode="K" horiz-adv-x="584" 
d="M444 0l-267 334v-334h-92v675h92v-318l268 318h112l-285 -325l297 -350h-125z" />
    <glyph glyph-name="L" unicode="L" horiz-adv-x="426" 
d="M85 0v675h92v-597h242v-78h-334z" />
    <glyph glyph-name="M" unicode="M" horiz-adv-x="894" 
d="M752 0l-53 394q-8 63 -13 112t-6 84h-2q-7 -29 -17 -64.5t-24 -79.5l-156 -446h-84l-148 423q-15 44 -28.5 89t-21.5 78h-1q-1 -41 -5.5 -91t-10.5 -109l-44 -390h-91l87 675h126l150 -426q11 -33 19.5 -63t13.5 -58h1q7 32 15 63t17 58l150 426h130l91 -675h-95z" />
    <glyph glyph-name="N" unicode="N" horiz-adv-x="693" 
d="M518 0h-5l-250 395q-19 29 -32.5 52t-25 43t-20.5 37t-17 34h-2q2 -29 3.5 -73.5t3 -96t2 -105t0.5 -97.5v-189h-90v675v0h69h44l235 -372q20 -30 34 -53.5t24.5 -42.5t17.5 -33l16 -32h2q-2 33 -3.5 76t-2.5 91.5t-2 99t-1 96.5v170h90v-675h-90z" />
    <glyph glyph-name="O" unicode="O" horiz-adv-x="709" 
d="M570 333q0 125 -55 198t-160 73q-46 0 -85 -17t-68.5 -50.5t-45.5 -83t-16 -111.5q0 -61 13.5 -111t40.5 -86t67.5 -55t93.5 -19q46 0 85 17t68.5 50.5t45.5 83t16 111.5zM667 347q0 -84 -25 -151t-69.5 -113t-102.5 -69.5t-124 -23.5q-73 0 -129.5 23.5t-95 67.5
t-58.5 106.5t-20 140.5q0 84 25 151t69.5 113t102.5 69.5t124 23.5q73 0 129.5 -23.5t95 -67.5t58.5 -106.5t20 -140.5z" />
    <glyph glyph-name="P" unicode="P" 
d="M518 469q0 -51 -18.5 -94.5t-54 -76t-85.5 -50t-112 -17.5q-22 0 -42 1t-29 2v-234h-92v675q24 1 75 2.5t102 1.5q126 0 191 -59t65 -151zM423 456q0 68 -43 108t-129 40q-22 0 -43 -0.5t-31 -1.5v-290q10 -1 32 -3.5t46 -2.5q81 0 124.5 41.5t43.5 108.5z" />
    <glyph glyph-name="Q" unicode="Q" horiz-adv-x="709" 
d="M570 333q0 125 -55 198t-160 73q-46 0 -85 -17t-68.5 -50.5t-45.5 -83t-16 -111.5q0 -61 13.5 -111t40.5 -86t67.5 -55t93.5 -19q46 0 85 17t68.5 50.5t45.5 83t16 111.5zM707 -67q-40 -5 -71.5 -3t-55.5 8t-45 13.5t-49.5 18t-55 15.5t-59.5 5h-25q-73 0 -129.5 23.5
t-95 67.5t-58.5 106.5t-20 140.5q0 84 25 151t69.5 113t102.5 69.5t124 23.5q73 0 129.5 -23.5t95 -67.5t58.5 -106.5t20 -140.5q0 -44 -7 -84t-21 -75t-34 -63.5t-45.5 -50t-55.5 -33.5q20 0 44 -7t46 -13.5t49.5 -9.5t63.5 1v-79z" />
    <glyph glyph-name="R" unicode="R" horiz-adv-x="567" 
d="M402 484q0 58 -38.5 89t-110.5 31q-23 0 -44.5 -0.5t-31.5 -1.5v-240q10 0 30.5 -0.5t41.5 -0.5q73 0 113 32.5t40 90.5zM430 0l-204 292h-49v-292h-92v674q22 1 72 3t104 2t97.5 -11t74.5 -33.5t48 -57.5t17 -82q0 -43 -13.5 -76.5t-38 -57t-56.5 -38t-69 -19.5
q7 -9 23 -29t32 -43l168 -232h-114z" />
    <glyph glyph-name="S" unicode="S" horiz-adv-x="503" 
d="M455 191q0 -44 -16 -80.5t-48 -63.5t-78.5 -41.5t-105.5 -14.5q-41 0 -80 5t-72 14l12 87q34 -13 71.5 -20t74.5 -7q32 0 58.5 6.5t46 20t30 34.5t10.5 50q0 35 -20.5 58.5t-45 36t-80 36.5t-87.5 45t-53 55.5t-21 85.5q0 41 16 75.5t46 59t74.5 38t99.5 13.5
q31 0 63 -3.5t59 -9.5l-11 -81q-28 8 -58 13t-59 5q-67 0 -101.5 -26.5t-34.5 -74.5q0 -34 21 -57t44 -34.5t80.5 -36.5t90 -46.5t53.5 -56t21 -85.5z" />
    <glyph glyph-name="T" unicode="T" horiz-adv-x="516" 
d="M304 598v-598h-92v598h-194v77h481v-77h-195z" />
    <glyph glyph-name="U" unicode="U" horiz-adv-x="693" 
d="M607 258q0 -133 -68 -200.5t-201 -67.5q-79 0 -128.5 20t-77 53.5t-37.5 75.5t-10 88v448h92v-441q0 -35 7 -65.5t25.5 -53.5t51 -36t83.5 -13q88 -1 130.5 41t42.5 144v424h90v-417v0z" />
    <glyph glyph-name="V" unicode="V" horiz-adv-x="618" 
d="M364 0h-112l-241 675h103l151 -439q11 -30 23 -69.5t22 -77.5h1q11 37 23 76.5t24 74.5l152 435h96z" />
    <glyph glyph-name="W" unicode="W" horiz-adv-x="955" 
d="M742 0h-115l-128 444q-6 22 -11.5 47.5t-10.5 56.5h-2q-7 -52 -20 -104l-125 -444h-116l-180 675h98l116 -438q10 -40 17 -75t12 -70h2q16 88 30 141l125 442h92l130 -448q10 -34 18 -69t13 -66h1q7 40 12 68.5t12 56.5l119 458h90z" />
    <glyph glyph-name="X" unicode="X" horiz-adv-x="599" 
d="M467 0l-172 279l-171 -279h-107l222 348l-208 327h106l160 -258l157 258h104l-205 -324l229 -351h-115z" />
    <glyph glyph-name="Y" unicode="Y" horiz-adv-x="537" 
d="M313 259v-259h-91v259l-220 416h101l116 -220q27 -54 50 -111h2q13 32 29 65t25 50l112 216h98z" />
    <glyph glyph-name="Z" unicode="Z" horiz-adv-x="539" 
d="M46 0v68l283 446q23 34 32.5 48.5t22.5 32.5q-29 -1 -64.5 -1.5t-83.5 -0.5h-180v82h435v-70l-298 -464q-12 -17 -22.5 -32.5t-17.5 -26.5q14 1 51 1.5t117 0.5h174v-84h-449z" />
    <glyph glyph-name="bracketleft" unicode="[" horiz-adv-x="322" 
d="M86 -199v970h198v-69h-114v-830h114v-71h-198z" />
    <glyph glyph-name="backslash" unicode="\" horiz-adv-x="442" 
d="M361 -161l-350 918h87l350 -918h-87z" />
    <glyph glyph-name="bracketright" unicode="]" horiz-adv-x="322" 
d="M38 -199v71h114v830h-114v69h198v-970h-198z" />
    <glyph glyph-name="asciicircum" unicode="^" 
d="M408 343l-144 265l-138 -265l-62 33l165 299h73l172 -298z" />
    <glyph glyph-name="underscore" unicode="_" 
d="M0 -249v71h550v-71h-550z" />
    <glyph glyph-name="grave" unicode="`" horiz-adv-x="350" 
d="M223 569l-140 128l55 54l129 -139z" />
    <glyph glyph-name="a" unicode="a" horiz-adv-x="521" 
d="M345 233q-59 0 -100 -7.5t-65 -20.5t-34.5 -30t-10.5 -37q0 -33 21 -54.5t55 -21.5q29 0 54 13t43 36t27.5 50.5t9.5 56.5v15zM350 0q0 35 1 57.5t4 41.5h-2q-19 -47 -64 -77.5t-105 -30.5q-62 0 -100 37t-38 97q0 81 78.5 126t220.5 45v27q0 58 -24 85.5t-81 27.5
q-34 0 -74.5 -9.5t-76.5 -25.5l-16 70q41 16 87 25.5t90 9.5q52 0 87.5 -11.5t57 -34t31 -54t9.5 -73.5v-190q0 -36 1 -74t2 -69h-88z" />
    <glyph glyph-name="b" unicode="b" horiz-adv-x="558" 
d="M421 264q0 82 -27.5 125t-82.5 43q-32 0 -58 -17t-43 -45t-26 -62t-9 -67v-164q10 -3 33.5 -8t54.5 -5q36 0 65 11.5t50 35.5t32 62.5t11 90.5zM515 272q0 -65 -18 -116.5t-51.5 -88t-81.5 -55.5t-108 -19q-57 0 -104 7.5t-67 12.5v717h90v-241q0 -23 -2.5 -49t-6.5 -44
l2 -1q20 52 63.5 81.5t100.5 29.5q88 0 135.5 -60t47.5 -174z" />
    <glyph glyph-name="c" unicode="c" horiz-adv-x="435" 
d="M407 19q-31 -13 -70.5 -20t-77.5 -7q-47 0 -86 12.5t-69 40t-46.5 74.5t-16.5 113q0 60 15.5 110.5t46 86.5t76 56t104.5 20q33 0 64.5 -5.5t57.5 -15.5l-17 -77q-25 10 -54.5 16t-58.5 6q-33 0 -59 -13.5t-44 -38t-27 -58.5t-9 -75q0 -39 7 -70t23 -54.5t43.5 -36.5
t67.5 -13q65 0 116 24z" />
    <glyph glyph-name="d" unicode="d" horiz-adv-x="558" 
d="M384 422q-24 5 -46 8t-43 3q-36 0 -65 -11.5t-49.5 -35.5t-31.5 -62t-11 -91q0 -82 27 -125t82 -43q33 0 58.5 17t43 45.5t26.5 62t9 67.5v165zM386 0q0 25 2 53t6 48l-2 1q-21 -51 -64.5 -81t-101.5 -30q-91 0 -137 61.5t-46 172.5q0 65 18 116.5t51.5 88t81 55.5
t106.5 19q19 0 38.5 -1t45.5 -4v231h89v-730h-87z" />
    <glyph glyph-name="e" unicode="e" horiz-adv-x="508" 
d="M370 305q1 64 -28.5 98.5t-82.5 34.5q-50 0 -83.5 -35t-40.5 -98h235zM462 301q0 -31 -3 -59h-325q-1 -91 36.5 -135t116.5 -44q37 0 73.5 7t73.5 20l12 -69q-41 -15 -84 -22.5t-86 -7.5q-116 0 -175.5 62.5t-59.5 192.5q0 55 15 103t44.5 83t71 54.5t93.5 19.5
q51 0 88.5 -16t61.5 -44t35.5 -65t11.5 -80z" />
    <glyph glyph-name="f" unicode="f" horiz-adv-x="350" 
d="M374 652q-9 3 -30 7t-44 4q-52 0 -76.5 -31t-24.5 -98v-37h138v-70h-138v-427h-90v427h-102v70h102v31q0 105 50 156.5t143 51.5q40 0 80 -8z" />
    <glyph glyph-name="g" unicode="g" horiz-adv-x="534" 
d="M261 506q37 0 72 -9h167v-71h-73q7 -11 16.5 -32t9.5 -56q0 -40 -12.5 -73.5t-38.5 -58t-64 -39t-88 -14.5q-29 0 -53 4q-27 -19 -27 -40q0 -16 16.5 -26t60.5 -11l80 -3q91 -3 135 -41t44 -105q0 -40 -18 -74.5t-51.5 -59t-81.5 -39t-107 -14.5q-98 0 -155 38t-57 109
q0 22 7 41t18.5 36.5t26.5 31.5t33 26q-17 9 -30.5 25.5t-14.5 46.5q0 25 14.5 46.5t41.5 38.5q-17 10 -34.5 28.5t-28.5 47.5t-11 62q0 39 13 73t38.5 58.5t63.5 39t88 14.5zM145 -40q-17 -25 -17 -53q0 -46 36 -69.5t98 -23.5q77 0 115 29.5t38 75.5q0 36 -25 58.5
t-88 24.5l-83 3q-14 0 -26 1q-32 -21 -48 -46zM366 329q0 48 -29 79t-81 31q-53 0 -82 -31t-29 -79t29 -79t82 -31q52 0 81 31t29 79z" />
    <glyph glyph-name="h" unicode="h" horiz-adv-x="575" 
d="M401 0v320q0 56 -19 84t-66 28q-30 0 -56 -14.5t-45 -41t-29.5 -62t-10.5 -76.5v-238h-90v730h90v-236q0 -28 -2 -54t-7 -45l2 -1q22 52 67 82t106 30q41 0 70.5 -12t47 -33.5t25 -50t7.5 -63.5v-347h-90z" />
    <glyph glyph-name="i" unicode="i" horiz-adv-x="260" 
d="M85 0v497h90v-497h-90zM190 654q0 -24 -17.5 -41t-42.5 -17t-42.5 16.5t-17.5 41.5t17.5 42t42.5 17t42.5 -17t17.5 -42z" />
    <glyph glyph-name="j" unicode="j" horiz-adv-x="266" 
d="M181 -55q0 -51 -9 -88t-29 -61.5t-51.5 -37t-75.5 -12.5q-25 0 -45.5 3t-29.5 5l8 79q8 -3 27 -7t43 -4q21 0 34.5 5.5t22 18.5t12.5 35t4 56v560h89v-552zM196 654q0 -24 -17.5 -41t-41.5 -17q-25 0 -42.5 16.5t-17.5 41.5t17.5 42t42.5 17q24 0 41.5 -17t17.5 -42z" />
    <glyph glyph-name="k" unicode="k" horiz-adv-x="493" 
d="M359 0l-184 256v-256h-90v730h90v-451l175 218h105l-188 -223l207 -274h-115z" />
    <glyph glyph-name="l" unicode="l" horiz-adv-x="260" 
d="M85 0v730h90v-730h-90z" />
    <glyph glyph-name="m" unicode="m" horiz-adv-x="879" 
d="M704 0v319q0 56 -17.5 84.5t-63.5 28.5q-27 0 -52 -13.5t-44.5 -39.5t-31 -62.5t-11.5 -80.5v-236h-89v319q0 26 -3.5 46t-12 35t-24.5 23.5t-41 8.5q-28 0 -53.5 -14.5t-44.5 -41t-30 -62.5t-11 -78v-236h-90v497h87q0 -25 -2 -54.5t-5 -50.5l1 -1q22 53 68 84t105 31
q37 0 63.5 -11t42 -28.5t22.5 -36.5t9 -37q9 20 23 39t35 36t49.5 27.5t62.5 10.5q72 0 110 -40t38 -123v-343h-90z" />
    <glyph glyph-name="n" unicode="n" horiz-adv-x="575" 
d="M401 0v320q0 56 -19 84t-66 28q-30 0 -56 -14.5t-45 -41t-29.5 -62t-10.5 -76.5v-238h-90v497h87q0 -26 -2 -55t-6 -50h2q22 53 67.5 83.5t107.5 30.5q41 0 70.5 -12t47 -33.5t25 -50t7.5 -63.5v-347h-90z" />
    <glyph glyph-name="o" unicode="o" horiz-adv-x="545" 
d="M412 249q0 87 -36.5 134.5t-101.5 47.5q-32 0 -58 -11.5t-44.5 -34.5t-28.5 -57.5t-10 -79.5q0 -87 36.5 -134t102.5 -47q30 0 55.5 11t44.5 33.5t29.5 57t10.5 80.5zM505 256q0 -56 -15.5 -104.5t-46.5 -84.5t-76.5 -56t-102.5 -20q-51 0 -92.5 15.5t-71 46.5t-45 78
t-15.5 110q0 56 15.5 104.5t46.5 84.5t76.5 56t103.5 20q51 0 92 -15.5t70.5 -46.5t45 -78t15.5 -110z" />
    <glyph glyph-name="p" unicode="p" horiz-adv-x="558" 
d="M421 264q0 82 -27.5 125t-82.5 43q-32 0 -58 -17t-43 -45.5t-26 -62t-9 -67.5v-164q39 -12 88 -12q36 0 65 11.5t50 35.5t32 62.5t11 90.5zM515 272q0 -132 -67.5 -205t-188.5 -73q-25 0 -44.5 1t-39.5 5v-247h-90v744h87q0 -25 -2 -53.5t-6 -47.5l2 -1q21 52 64.5 81.5
t102.5 29.5q87 0 134.5 -60.5t47.5 -173.5z" />
    <glyph glyph-name="q" unicode="q" horiz-adv-x="558" 
d="M384 423q-43 10 -89 10q-74 0 -115.5 -48.5t-41.5 -151.5q0 -82 27 -125t82 -43q32 0 58 17t43.5 45.5t26.5 62.5t9 68v165zM384 -247v258q0 22 1.5 45.5t5.5 43.5l-2 1q-20 -51 -63.5 -80.5t-98.5 -29.5q-89 0 -136.5 59t-47.5 174q0 131 69.5 206t192.5 75
q42 0 84 -3.5t84 -10.5v-738h-89z" />
    <glyph glyph-name="r" unicode="r" horiz-adv-x="355" 
d="M330 417q-78 14 -116.5 -41t-38.5 -176v-200h-90v497h87q0 -26 -2.5 -57.5t-8.5 -60.5h2q8 28 22 52t35 42t49.5 27.5t64.5 5.5z" />
    <glyph glyph-name="s" unicode="s" horiz-adv-x="425" 
d="M376 143q0 -32 -13.5 -59.5t-39.5 -48.5t-64.5 -32.5t-87.5 -11.5q-31 0 -62 3.5t-55 9.5l7 80q25 -9 56.5 -15t60.5 -6q51 0 78 19t27 54q0 25 -15.5 41t-48 28.5t-60.5 22.5t-52.5 25t-40.5 41.5t-16 67.5q0 63 51 103.5t145 40.5q25 0 50 -2.5t46 -6.5l-6 -75
q-22 7 -48 11t-50 4q-47 0 -71.5 -18t-24.5 -49q0 -25 15.5 -40.5t48.5 -28.5t60.5 -23t52.5 -25.5t41 -42t16 -67.5z" />
    <glyph glyph-name="t" unicode="t" horiz-adv-x="371" 
d="M339 3q-21 -5 -47.5 -8t-50.5 -3q-39 0 -64.5 8.5t-40.5 26t-22 46t-7 70.5v284h-100v70h100v161l90 25v-186h138v-70h-138v-262q0 -29 3.5 -47.5t11 -29.5t20.5 -15.5t33 -4.5q29 0 67 8z" />
    <glyph glyph-name="u" unicode="u" horiz-adv-x="575" 
d="M403 0q0 26 2 55t6 50h-2q-22 -53 -67.5 -83.5t-107.5 -30.5q-41 0 -70 12t-46.5 33.5t-25 50t-7.5 63.5v347h89v-320q0 -56 19 -84t66 -28q30 0 56 14.5t45 41t29.5 62t10.5 76.5v238h90v-497h-87z" />
    <glyph glyph-name="v" unicode="v" horiz-adv-x="486" 
d="M293 0h-103l-181 497h100l105 -304q10 -31 16.5 -54.5t12.5 -46.5h2q6 24 13 48.5t15 50.5l107 306h96z" />
    <glyph glyph-name="w" unicode="w" horiz-adv-x="793" 
d="M617 0h-103l-98 295q-8 26 -15 52t-13 50h-1q-7 -30 -15.5 -61.5t-18.5 -66.5l-83 -269h-102l-152 497h100l78 -274q9 -33 18.5 -68.5t14.5 -58.5h1q7 30 15.5 63t17.5 65l86 273h97l87 -273q7 -23 12.5 -41t9.5 -33t7.5 -28t6.5 -27h1q5 25 13 53.5t20 74.5l81 274h95z
" />
    <glyph glyph-name="x" unicode="x" horiz-adv-x="518" 
d="M381 0l-125 191l-126 -191h-109l182 249l-173 248h110l123 -187l125 187h102l-172 -245l180 -252h-117z" />
    <glyph glyph-name="y" unicode="y" horiz-adv-x="480" 
d="M272 -42q-22 -60 -46 -100.5t-52.5 -65.5t-62.5 -36t-77 -11q-17 0 -33 2t-23 4l9 78q7 -2 24 -5t35 -3q21 0 39 6t33.5 20.5t30 38.5t28.5 60l20 54l-188 497h103l94 -260q10 -30 20.5 -64.5t18.5 -62.5h1q3 13 8 29.5t11 36t15 45.5t14 43l80 233h97z" />
    <glyph glyph-name="z" unicode="z" horiz-adv-x="447" 
d="M48 0v64l238 355q-23 -1 -58 -1.5t-73 -0.5h-102v80h338v-63l-235 -353q13 0 37 0.5t50.5 1t47.5 0.5h105v-83h-348z" />
    <glyph glyph-name="braceleft" unicode="{" horiz-adv-x="341" 
d="M286 -199q-84 0 -120 47.5t-36 147.5v175q0 59 -24 83t-82 27v71q31 2 51 7.5t32 17.5t17.5 32t5.5 51v117q0 45 8 80t26 60.5t48.5 39.5t73.5 14h18v-69q-27 0 -44 -6t-27.5 -20t-15 -37t-4.5 -59v-116q0 -66 -23.5 -102t-69.5 -44v-2q45 -7 69 -44.5t24 -103.5v-174
q0 -36 4.5 -59t15 -37t27.5 -20t44 -6v-71h-18z" />
    <glyph glyph-name="bar" unicode="|" horiz-adv-x="285" 
d="M106 -247v1000h71v-1000h-71z" />
    <glyph glyph-name="braceright" unicode="}" horiz-adv-x="341" 
d="M317 281q-58 -3 -81.5 -27t-23.5 -83v-175q0 -100 -36.5 -147.5t-119.5 -47.5h-19v71q27 0 44 6t27.5 20t15 37t4.5 59v174q0 66 24 103.5t69 44.5v2q-93 12 -93 142v120q0 36 -4.5 59t-15 37t-27.5 20t-44 6v69h19q43 0 73.5 -14t48.5 -39.5t26 -60.5t8 -80v-113
q0 -32 5.5 -53t17.5 -33.5t31.5 -18t50.5 -7.5v-71z" />
    <glyph glyph-name="asciitilde" unicode="~" 
d="M497 564q0 -65 -36 -105.5t-97 -40.5q-37 0 -61 14.5t-48 43.5t-37 40.5t-36 11.5q-30 0 -45 -23.5t-16 -65.5h-67v10q0 66 36.5 106.5t97.5 40.5q26 0 45.5 -7.5t33 -19.5t24.5 -25t24.5 -28.5t26 -23t28.5 -7.5q30 0 44.5 23.5t15.5 65.5h67v-10z" />
    <glyph glyph-name="exclamdown" unicode="&#xa1;" horiz-adv-x="320" 
d="M97 -206l15 535h76l16 -535h-107zM211 447q0 -25 -17.5 -42t-42.5 -17t-42.5 17t-17.5 42t17.5 42t42.5 17t42.5 -17t17.5 -42z" />
    <glyph glyph-name="cent" unicode="&#xa2;" horiz-adv-x="455" 
d="M416 135q-24 -10 -52 -17.5t-57 -10.5v-132h-71v132q-46 4 -81.5 22t-59.5 48t-36 71.5t-12 93.5q0 48 12.5 89t37 73t60 52.5t79.5 27.5v113h71v-109q26 -1 53.5 -6t51.5 -14l-12 -77q-50 24 -109 24q-72 0 -111.5 -44t-39.5 -124q0 -35 7.5 -64.5t25 -52t46.5 -35
t70 -12.5q30 0 59 7t55 21z" />
    <glyph glyph-name="sterling" unicode="&#xa3;" horiz-adv-x="471" 
d="M42 0v63q29 22 48 42.5t30.5 41.5t16.5 44.5t5 53.5q0 14 -1 32t-4 44h-107v70h97q-5 42 -8 67.5t-3 47.5q0 86 49.5 132t139.5 46q26 0 54.5 -3.5t50.5 -9.5l-16 -77q-21 8 -44.5 12.5t-44.5 4.5q-47 0 -73 -25.5t-26 -73.5q0 -18 3 -49t9 -72h151v-70h-142
q2 -20 3 -35.5t1 -31.5q0 -31 -4 -55t-13.5 -45t-25.5 -40t-40 -40q19 2 48 3.5t54 1.5h192v-79h-400z" />
    <glyph glyph-name="currency" unicode="&#xa4;" 
d="M376 334q0 53 -25 83.5t-79 30.5q-42 0 -70 -32t-28 -85q0 -26 5.5 -47.5t18 -38t32 -25.5t47.5 -9q41 0 70 33.5t29 89.5zM435 60l-80 108q-39 -24 -88 -24q-37 0 -68 13l-72 -97l-67 49l73 90q-19 22 -29.5 55t-10.5 75q0 77 45 125l-78 96l66 48l74 -101q17 9 38 13.5
t44 4.5q21 0 41.5 -4t38.5 -13l75 101l64 -49l-77 -97q16 -20 24.5 -50t8.5 -68q0 -35 -10.5 -66t-29.5 -55l84 -104z" />
    <glyph glyph-name="yen" unicode="&#xa5;" horiz-adv-x="591" 
d="M363 291h142v-61h-164v-70h164v-61h-164v-99h-91v99h-165v61h165v70h-165v61h143l-190 384h100l107 -222q15 -31 27 -59.5t24 -61.5h1q11 31 26 64t33 68l104 211h97z" />
    <glyph glyph-name="brokenbar" unicode="&#xa6;" horiz-adv-x="285" 
d="M106 -247v378h71v-378h-71zM106 385v368h71v-368h-71z" />
    <glyph glyph-name="section" unicode="&#xa7;" horiz-adv-x="520" 
d="M349 223q0 27 -12.5 52.5t-32 48.5t-56.5 59.5t-48 47.5q-22 -16 -32.5 -37t-10.5 -44q0 -26 11.5 -50.5t31.5 -48t47.5 -50.5t59.5 -58q21 15 31.5 36t10.5 44zM434 235q0 -41 -20.5 -77t-58.5 -64q19 -25 29 -50.5t10 -54.5q0 -30 -11.5 -58t-35 -49.5t-59.5 -34
t-83 -12.5q-17 0 -38.5 3t-40.5 8l7 76q21 -7 38.5 -9.5t36.5 -2.5q43 0 67 21t24 55q0 25 -15 49t-47 55t-59 56.5t-51 54.5t-39.5 64t-15.5 74q0 41 20 76.5t59 65.5q-19 25 -29 50t-10 53q0 32 11 59.5t33 48.5t56.5 32.5t79.5 11.5q17 0 37.5 -2t37.5 -6l-6 -76
q-36 10 -70 10q-41 0 -62.5 -19t-21.5 -53q0 -24 15 -48t47 -55.5t59 -58t51 -55.5t39.5 -64t15.5 -74z" />
    <glyph glyph-name="dieresis" unicode="&#xa8;" horiz-adv-x="465" 
d="M191 654q0 -22 -16 -38t-38 -16t-38 16t-16 38t16 38t38 16t38 -16t16 -38zM383 654q0 -22 -16 -38t-38 -16t-38 16t-16 38t16 38t38 16t38 -16t16 -38z" />
    <glyph glyph-name="copyright" unicode="&#xa9;" horiz-adv-x="756" 
d="M475 175q-46 -17 -99 -17q-40 0 -70 12.5t-49.5 35.5t-29 54.5t-9.5 69.5q0 37 10 70t30.5 58.5t54 40t79.5 14.5q22 0 42 -3.5t37 -9.5l-8 -64q-32 16 -72 16q-26 0 -44 -9t-29.5 -24.5t-16.5 -37.5t-5 -48q0 -54 22.5 -82.5t68.5 -28.5q42 0 78 15zM641 334
q0 54 -20.5 102.5t-57 85.5t-85 58t-102.5 21t-102 -20.5t-84.5 -57t-57 -85t-20.5 -102.5t20.5 -103t57 -86t84.5 -58t102 -21t102.5 20.5t85 57.5t57 85.5t20.5 102.5zM712 336q0 -69 -26 -130t-72.5 -107.5t-107.5 -72.5t-130 -26q-70 0 -131.5 25.5t-107.5 71.5
t-71.5 107t-25.5 130t26 130t72.5 107t107.5 72t130 26t130.5 -25.5t107.5 -71.5t72 -106.5t26 -129.5z" />
    <glyph glyph-name="ordfeminine" unicode="&#xaa;" horiz-adv-x="389" 
d="M246 343q0 11 1 25.5t4 27.5h-1q-14 -28 -41 -44t-61 -16q-51 0 -75.5 25t-24.5 64q0 28 13 50.5t38 37.5t61.5 23t84.5 8v18q0 9 -2.5 20t-9.5 20t-20 14.5t-35 5.5q-26 0 -53 -7t-50 -18l-7 64q26 10 57.5 16t64.5 6q37 0 62.5 -9.5t40 -25t20.5 -36t6 -42.5v-140v-31
t1 -28q0 -15 1 -28h-75zM57 211v71h288v-71h-288zM245 493q-35 0 -58 -3.5t-37.5 -10.5t-21 -18t-6.5 -26q0 -18 11.5 -28.5t31.5 -10.5t35.5 10t25 23.5t14.5 29t5 25.5v9z" />
    <glyph glyph-name="guillemotleft" unicode="&#xab;" horiz-adv-x="509" 
d="M167 114l-113 179l114 182l68 -35l-92 -146l93 -144zM369 116l-122 177l123 180l66 -35l-100 -144l101 -142z" />
    <glyph glyph-name="logicalnot" unicode="&#xac;" 
d="M403 103v157h-361v75h440v-232h-79z" />
    <glyph glyph-name="registered" unicode="&#xae;" horiz-adv-x="562" 
d="M312 578q0 14 -7.5 21t-27.5 7h-21v-63h14q23 0 32.5 11t9.5 24zM313 416l-53 95h-4v-95h-49v228h79q42 0 60 -16.5t18 -43.5q0 -29 -14.5 -45t-38.5 -21q4 -4 9 -12t10 -17l43 -73h-60zM441 527q0 33 -12.5 63t-34 52.5t-51 35.5t-62.5 13t-62.5 -12.5t-51 -34.5
t-34 -51.5t-12.5 -62.5t12.5 -63t34 -52.5t51 -35.5t62.5 -13t62.5 13t51 34.5t34 51t12.5 62.5zM501 529q0 -45 -17.5 -85t-47.5 -69.5t-70 -47t-85 -17.5q-47 0 -87 17t-70 46.5t-47 69.5t-17 86q0 45 17.5 85t47.5 69.5t70 46.5t86 17t86 -17t70 -46t47 -69t17 -86z" />
    <glyph glyph-name="macron" unicode="&#xaf;" horiz-adv-x="418" 
d="M83 616v68h252v-68h-252z" />
    <glyph glyph-name="macron" unicode="&#x2c9;" horiz-adv-x="418" 
d="M83 616v68h252v-68h-252z" />
    <glyph glyph-name="degree" unicode="&#xb0;" horiz-adv-x="376" 
d="M249 610q0 12 -3.5 24.5t-11 22.5t-19.5 16t-29 6q-27 0 -44.5 -19.5t-17.5 -49.5q0 -32 17 -50t44 -18q28 0 46 19t18 49zM319 611q0 -29 -11 -53t-30.5 -40.5t-44.5 -25.5t-51 -9q-59 0 -94 34t-35 92q0 29 11.5 53t30.5 41t43.5 25.5t49.5 8.5q33 0 58 -10t41 -27
t24 -40t8 -49z" />
    <glyph glyph-name="plusminus" unicode="&#xb1;" 
d="M44 0v75h462v-75h-462zM318 336v-197h-86v197h-190v74h190v196h86v-196h190v-74h-190z" />
    <glyph glyph-name="twosuperior" unicode="&#xb2;" horiz-adv-x="357" 
d="M39 364v62l93 93q41 41 61 73t20 61q0 32 -17.5 50.5t-52.5 18.5q-22 0 -45.5 -6.5t-41.5 -16.5l-13 64q25 11 57 18.5t63 7.5q65 0 102 -32.5t37 -88.5q0 -45 -20 -83t-64 -83l-69 -69q30 1 68 1.5t102 0.5v-71h-280z" />
    <glyph glyph-name="threesuperior" unicode="&#xb3;" horiz-adv-x="348" 
d="M301 491q0 -30 -13 -55t-36.5 -42.5t-56.5 -27t-72 -9.5q-19 0 -43 2.5t-44 6.5l9 63q15 -5 37 -8t43 -3q42 0 65.5 18.5t23.5 49.5q0 36 -38 53t-111 8v59q67 0 101.5 16.5t34.5 53.5q0 25 -17.5 39t-49.5 14q-20 0 -42 -5t-41 -13l-9 59q25 9 54.5 14t55.5 5
q63 0 98.5 -26.5t35.5 -76.5q0 -37 -17.5 -61t-51.5 -36q40 -9 62 -36t22 -62z" />
    <glyph glyph-name="acute" unicode="&#xb4;" horiz-adv-x="350" 
d="M127 569l-44 43l129 139l55 -53z" />
    <glyph glyph-name="mu" unicode="&#xb5;" horiz-adv-x="586" 
d="M550 -4q-19 -4 -38 -4q-55 0 -78 28.5t-21 82.5l-1 1q-20 -52 -62.5 -82t-100.5 -30q-27 0 -48.5 9t-34.5 26l11 -274h-92v744h90v-328q0 -53 20.5 -78.5t63.5 -25.5q31 0 57 14t45 40.5t29.5 62.5t10.5 78v237h90v-325q0 -34 2.5 -54t9 -31t17.5 -15.5t30 -4.5v-71z" />
    <glyph glyph-name="mu" unicode="&#x3bc;" horiz-adv-x="586" 
d="M550 -4q-19 -4 -38 -4q-55 0 -78 28.5t-21 82.5l-1 1q-20 -52 -62.5 -82t-100.5 -30q-27 0 -48.5 9t-34.5 26l11 -274h-92v744h90v-328q0 -53 20.5 -78.5t63.5 -25.5q31 0 57 14t45 40.5t29.5 62.5t10.5 78v237h90v-325q0 -34 2.5 -54t9 -31t17.5 -15.5t30 -4.5v-71z" />
    <glyph glyph-name="paragraph" unicode="&#xb6;" horiz-adv-x="576" 
d="M289 247q-57 0 -99 17.5t-69.5 47t-41 68.5t-13.5 83q0 46 16 85t45.5 67t70.5 44t91 16v-428v0zM445 605v-701h-154v70h73v701h152v-70h-71z" />
    <glyph glyph-name="periodcentered" unicode="&#xb7;" horiz-adv-x="234" 
d="M181 297q0 -26 -18.5 -45t-45.5 -19t-45.5 19t-18.5 45q0 27 18.5 46t45.5 19t45.5 -19t18.5 -46z" />
    <glyph glyph-name="periodcentered" unicode="&#x2219;" horiz-adv-x="234" 
d="M181 297q0 -26 -18.5 -45t-45.5 -19t-45.5 19t-18.5 45q0 27 18.5 46t45.5 19t45.5 -19t18.5 -46z" />
    <glyph glyph-name="cedilla" unicode="&#xb8;" horiz-adv-x="291" 
d="M177 -40q37 -51 29.5 -98.5t-50.5 -96.5h-73q19 24 31 45t14.5 40.5t-4 38.5t-24.5 41l77 30v0z" />
    <glyph glyph-name="onesuperior" unicode="&#xb9;" horiz-adv-x="276" 
d="M118 364v340l-88 -34l-15 70l118 42h71v-418h-86z" />
    <glyph glyph-name="ordmasculine" unicode="&#xba;" horiz-adv-x="419" 
d="M291 510q0 26 -5.5 46t-16 34t-25.5 21t-34 7q-38 0 -60 -27.5t-22 -80.5q0 -26 5.5 -46t16 -34t25.5 -21t34 -7q38 0 60 28t22 80zM64 211v71h292v-71h-292zM370 515q0 -38 -11 -70.5t-32 -56.5t-52.5 -37.5t-71.5 -13.5q-35 0 -63.5 10t-48.5 31t-31 53t-11 74
q0 38 11 70.5t32.5 57t52.5 38t71 13.5q35 0 63.5 -10t48.5 -31t31 -53t11 -75z" />
    <glyph glyph-name="guillemotright" unicode="&#xbb;" horiz-adv-x="509" 
d="M138 116l-66 35l101 144l-100 142l68 36l122 -177zM340 114l-67 35l92 146l-92 144l70 36l112 -179z" />
    <glyph glyph-name="onequarter" unicode="&#xbc;" horiz-adv-x="821" 
d="M15 0zM118 364v340l-88 -34l-15 70l118 42h71v-418h-86zM96 -141l-58 41l639 904l58 -41zM717 -12v-93h-79v93h-194l-6 56l162 269h117v-258h67v-67h-67zM638 256l-122 -203q12 0 28.5 0.5t33.5 0.5h31h29v202z" />
    <glyph glyph-name="onehalf" unicode="&#xbd;" horiz-adv-x="844" 
d="M15 0zM96 -141l-58 41l639 904l58 -41zM118 364v340l-88 -34l-15 70l118 42h71v-418h-86zM514 -105v62l93 93q41 41 61 73t20 61q0 32 -17.5 50.5t-52.5 18.5q-22 0 -45.5 -6.5t-41.5 -16.5l-13 64q25 11 57 18.5t63 7.5q65 0 102 -32.5t37 -88.5q0 -45 -20 -83t-64 -83
l-69 -69q30 1 68 1.5t102 0.5v-71h-280z" />
    <glyph glyph-name="threequarters" unicode="&#xbe;" horiz-adv-x="842" 
d="M36 0zM117 -141l-58 41l639 904l58 -41zM301 491q0 -30 -13 -55t-36.5 -42.5t-56.5 -27t-72 -9.5q-19 0 -43 2.5t-44 6.5l9 63q15 -5 37 -8t43 -3q42 0 65.5 18.5t23.5 49.5q0 36 -38 53t-111 8v59q67 0 101.5 16.5t34.5 53.5q0 25 -17.5 39t-49.5 14q-20 0 -42 -5
t-41 -13l-9 59q25 9 54.5 14t55.5 5q63 0 98.5 -26.5t35.5 -76.5q0 -37 -17.5 -61t-51.5 -36q40 -9 62 -36t22 -62zM737 -12v-93h-79v93h-194l-6 56l162 269h117v-258h67v-67h-67zM658 256l-122 -203q12 0 28.5 0.5t33.5 0.5h31h29v202z" />
    <glyph glyph-name="questiondown" unicode="&#xbf;" horiz-adv-x="445" 
d="M350 -213q-68 2 -122.5 18.5t-91.5 43t-56.5 61t-19.5 71.5q0 38 13.5 67t28.5 45.5t48 48.5t48.5 55.5t20.5 56t-8 75.5h88q15 -47 12 -83t-18 -63t-40.5 -52.5t-46.5 -47t-34 -44t-13 -49.5q0 -50 55.5 -83.5t147.5 -37.5zM314 447q0 -25 -17.5 -42t-42.5 -17t-42.5 17
t-17.5 42t17.5 42t42.5 17t42.5 -17t17.5 -42z" />
    <glyph glyph-name="Agrave" unicode="&#xc0;" horiz-adv-x="615" 
d="M10 0zM333 493q-7 21 -14.5 46t-14.5 49h-1q-5 -20 -11.5 -41t-16.5 -53l-92 -260h242zM502 0l-55 161h-287l-56 -161h-94l242 675h112l241 -675h-103zM354 725l-190 56l26 70l181 -74z" />
    <glyph glyph-name="Aacute" unicode="&#xc1;" horiz-adv-x="615" 
d="M10 0zM333 493q-7 21 -14.5 46t-14.5 49h-1q-5 -20 -11.5 -41t-16.5 -53l-92 -260h242zM502 0l-55 161h-287l-56 -161h-94l242 675h112l241 -675h-103zM252 725l-17 52l182 74l25 -70z" />
    <glyph glyph-name="Acircumflex" unicode="&#xc2;" horiz-adv-x="615" 
d="M10 0zM333 493q-7 21 -14.5 46t-14.5 49h-1q-5 -20 -11.5 -41t-16.5 -53l-92 -260h242zM502 0l-55 161h-287l-56 -161h-94l242 675h112l241 -675h-103zM440 724l-133 60l-135 -60l-24 50l160 83l158 -81z" />
    <glyph glyph-name="Atilde" unicode="&#xc3;" horiz-adv-x="615" 
d="M10 0zM333 493q-7 21 -14.5 46t-14.5 49h-1q-5 -20 -11.5 -41t-16.5 -53l-92 -260h242zM502 0l-55 161h-287l-56 -161h-94l242 675h112l241 -675h-103zM485 808q-20 -35 -48.5 -54t-63.5 -19q-26 0 -43.5 8t-32 18t-27.5 18t-29 8q-36 0 -63 -45l-46 33q20 35 48.5 54.5
t63.5 19.5q25 0 43 -8t32.5 -18t27.5 -18t29 -8q34 0 63 44l46 -33v0z" />
    <glyph glyph-name="Adieresis" unicode="&#xc4;" horiz-adv-x="615" 
d="M10 0zM333 493q-7 21 -14.5 46t-14.5 49h-1q-5 -20 -11.5 -41t-16.5 -53l-92 -260h242zM502 0l-55 161h-287l-56 -161h-94l242 675h112l241 -675h-103zM467 782q0 -22 -15.5 -38t-38.5 -16q-22 0 -37.5 15.5t-15.5 38.5t15.5 38.5t37.5 15.5q23 0 38.5 -15.5t15.5 -38.5z
M254 782q0 -22 -15.5 -38t-38.5 -16q-22 0 -38 16t-16 38q0 23 16 38.5t38 15.5q23 0 38.5 -15.5t15.5 -38.5z" />
    <glyph glyph-name="Aring" unicode="&#xc5;" horiz-adv-x="615" 
d="M10 0zM333 493q-7 21 -14.5 46t-14.5 49h-1q-5 -20 -11.5 -41t-16.5 -53l-92 -260h242zM502 0l-55 161h-287l-56 -161h-94l242 675h112l241 -675h-103zM428 821q0 -48 -33.5 -79t-88.5 -31q-53 0 -82.5 26.5t-29.5 77.5q0 47 33.5 78t87.5 31t83.5 -26t29.5 -77zM361 817
q0 57 -50 57q-22 0 -36.5 -14.5t-14.5 -41.5q0 -57 51 -57q22 0 36 14.5t14 41.5z" />
    <glyph glyph-name="AE" unicode="&#xc6;" horiz-adv-x="785" 
d="M367 600h-6q-13 -31 -28.5 -62.5t-38.5 -76.5l-122 -225h195v364zM367 0v163h-229l-85 -163h-96l359 675h396v-76h-254v-214h236v-74h-236v-234h259v-77h-350z" />
    <glyph glyph-name="Ccedilla" unicode="&#xc7;" horiz-adv-x="583" 
d="M46 0zM538 28q-40 -17 -88 -26.5t-97 -9.5q-79 0 -137.5 24.5t-96 68.5t-55.5 104t-18 132q0 79 20 144.5t60.5 114t103.5 75t146 26.5q39 0 80 -5.5t75 -15.5l-15 -84q-36 12 -74 19t-75 7q-57 0 -99 -20t-69.5 -56.5t-40.5 -84.5t-13 -105q0 -127 56.5 -194.5
t170.5 -67.5q37 0 78 9t73 24zM358 -40q37 -51 29.5 -98.5t-50.5 -96.5h-73q19 24 31 45t14.5 40.5t-4 38.5t-24.5 41l77 30v0z" />
    <glyph glyph-name="Egrave" unicode="&#xc8;" horiz-adv-x="513" 
d="M85 0zM85 0v675h360v-76h-268v-214h246v-74h-246v-234h268v-77h-360zM309 725l-190 56l26 70l181 -74z" />
    <glyph glyph-name="Eacute" unicode="&#xc9;" horiz-adv-x="513" 
d="M85 0zM85 0v675h360v-76h-268v-214h246v-74h-246v-234h268v-77h-360zM206 725l-17 52l182 74l25 -70z" />
    <glyph glyph-name="Ecircumflex" unicode="&#xca;" horiz-adv-x="513" 
d="M85 0zM85 0v675h360v-76h-268v-214h246v-74h-246v-234h268v-77h-360zM395 724l-133 60l-135 -60l-24 50l160 83l158 -81z" />
    <glyph glyph-name="Edieresis" unicode="&#xcb;" horiz-adv-x="513" 
d="M85 0zM85 0v675h360v-76h-268v-214h246v-74h-246v-234h268v-77h-360zM417 782q0 -22 -15.5 -38t-38.5 -16q-22 0 -37.5 15.5t-15.5 38.5t15.5 38.5t37.5 15.5q23 0 38.5 -15.5t15.5 -38.5zM204 782q0 -22 -15.5 -38t-38.5 -16q-22 0 -38 16t-16 38q0 23 16 38.5t38 15.5
q23 0 38.5 -15.5t15.5 -38.5z" />
    <glyph glyph-name="Igrave" unicode="&#xcc;" horiz-adv-x="262" 
d="M0 0zM85 0v675h92v-675h-92zM179 725l-190 56l26 70l181 -74z" />
    <glyph glyph-name="Iacute" unicode="&#xcd;" horiz-adv-x="262" 
d="M69 0zM85 0v675h92v-675h-92zM86 725l-17 52l182 74l25 -70z" />
    <glyph glyph-name="Icircumflex" unicode="&#xce;" horiz-adv-x="262" 
d="M0 0zM85 0v675h92v-675h-92zM265 724l-133 60l-135 -60l-24 50l160 83l158 -81z" />
    <glyph glyph-name="Idieresis" unicode="&#xcf;" horiz-adv-x="262" 
d="M0 0zM85 0v675h92v-675h-92zM284 782q0 -22 -15.5 -38t-38.5 -16q-22 0 -38 16t-16 38q0 23 16 38.5t38 15.5q23 0 38.5 -15.5t15.5 -38.5zM88 782q0 -22 -15.5 -38t-38.5 -16q-22 0 -38 16t-16 38q0 23 16 38.5t38 15.5q23 0 38.5 -15.5t15.5 -38.5z" />
    <glyph glyph-name="Eth" unicode="&#xd0;" horiz-adv-x="687" 
d="M544 339q0 130 -64 197t-194 67q-22 0 -55 -1t-46 -2v-218h143v-70h-143v-232q18 -3 42.5 -4.5t46.5 -1.5q61 0 110 16t85 48.5t55.5 83t19.5 117.5zM641 345q0 -84 -27 -149.5t-77 -109.5t-119.5 -67t-153.5 -23q-36 0 -92 2t-78 2v312h-91v70h91v292q55 1 106 2.5
t95 1.5q82 0 146 -19.5t109 -60.5t68 -104t23 -149z" />
    <glyph glyph-name="Ntilde" unicode="&#xd1;" horiz-adv-x="693" 
d="M85 0zM518 0h-5l-250 395q-19 29 -32.5 52t-25 43t-20.5 37t-17 34h-2q2 -29 3.5 -73.5t3 -96t2 -105t0.5 -97.5v-189h-90v675v0h69h44l235 -372q20 -30 34 -53.5t24.5 -42.5t17.5 -33l16 -32h2q-2 33 -3.5 76t-2.5 91.5t-2 99t-1 96.5v170h90v-675h-90zM528 808
q-20 -35 -48.5 -54t-63.5 -19q-26 0 -43.5 8t-32 18t-27.5 18t-29 8q-36 0 -63 -45l-46 33q20 35 48.5 54.5t63.5 19.5q25 0 43 -8t32.5 -18t27.5 -18t29 -8q34 0 63 44l46 -33v0z" />
    <glyph glyph-name="Ograve" unicode="&#xd2;" horiz-adv-x="709" 
d="M43 0zM570 333q0 125 -55 198t-160 73q-46 0 -85 -17t-68.5 -50.5t-45.5 -83t-16 -111.5q0 -61 13.5 -111t40.5 -86t67.5 -55t93.5 -19q46 0 85 17t68.5 50.5t45.5 83t16 111.5zM667 347q0 -84 -25 -151t-69.5 -113t-102.5 -69.5t-124 -23.5q-73 0 -129.5 23.5t-95 67.5
t-58.5 106.5t-20 140.5q0 84 25 151t69.5 113t102.5 69.5t124 23.5q73 0 129.5 -23.5t95 -67.5t58.5 -106.5t20 -140.5zM397 725l-190 56l26 70l181 -74z" />
    <glyph glyph-name="Oacute" unicode="&#xd3;" horiz-adv-x="709" 
d="M43 0zM570 333q0 125 -55 198t-160 73q-46 0 -85 -17t-68.5 -50.5t-45.5 -83t-16 -111.5q0 -61 13.5 -111t40.5 -86t67.5 -55t93.5 -19q46 0 85 17t68.5 50.5t45.5 83t16 111.5zM667 347q0 -84 -25 -151t-69.5 -113t-102.5 -69.5t-124 -23.5q-73 0 -129.5 23.5t-95 67.5
t-58.5 106.5t-20 140.5q0 84 25 151t69.5 113t102.5 69.5t124 23.5q73 0 129.5 -23.5t95 -67.5t58.5 -106.5t20 -140.5zM318 725l-17 52l182 74l25 -70z" />
    <glyph glyph-name="Ocircumflex" unicode="&#xd4;" horiz-adv-x="709" 
d="M43 0zM570 333q0 125 -55 198t-160 73q-46 0 -85 -17t-68.5 -50.5t-45.5 -83t-16 -111.5q0 -61 13.5 -111t40.5 -86t67.5 -55t93.5 -19q46 0 85 17t68.5 50.5t45.5 83t16 111.5zM667 347q0 -84 -25 -151t-69.5 -113t-102.5 -69.5t-124 -23.5q-73 0 -129.5 23.5t-95 67.5
t-58.5 106.5t-20 140.5q0 84 25 151t69.5 113t102.5 69.5t124 23.5q73 0 129.5 -23.5t95 -67.5t58.5 -106.5t20 -140.5zM494 724l-133 60l-135 -60l-24 50l160 83l158 -81z" />
    <glyph glyph-name="Otilde" unicode="&#xd5;" horiz-adv-x="709" 
d="M43 0zM570 333q0 125 -55 198t-160 73q-46 0 -85 -17t-68.5 -50.5t-45.5 -83t-16 -111.5q0 -61 13.5 -111t40.5 -86t67.5 -55t93.5 -19q46 0 85 17t68.5 50.5t45.5 83t16 111.5zM667 347q0 -84 -25 -151t-69.5 -113t-102.5 -69.5t-124 -23.5q-73 0 -129.5 23.5t-95 67.5
t-58.5 106.5t-20 140.5q0 84 25 151t69.5 113t102.5 69.5t124 23.5q73 0 129.5 -23.5t95 -67.5t58.5 -106.5t20 -140.5zM531 808q-20 -35 -48.5 -54t-63.5 -19q-26 0 -43.5 8t-32 18t-27.5 18t-29 8q-36 0 -63 -45l-46 33q20 35 48.5 54.5t63.5 19.5q25 0 43 -8t32.5 -18
t27.5 -18t29 -8q34 0 63 44l46 -33v0z" />
    <glyph glyph-name="Odieresis" unicode="&#xd6;" horiz-adv-x="709" 
d="M43 0zM570 333q0 125 -55 198t-160 73q-46 0 -85 -17t-68.5 -50.5t-45.5 -83t-16 -111.5q0 -61 13.5 -111t40.5 -86t67.5 -55t93.5 -19q46 0 85 17t68.5 50.5t45.5 83t16 111.5zM667 347q0 -84 -25 -151t-69.5 -113t-102.5 -69.5t-124 -23.5q-73 0 -129.5 23.5t-95 67.5
t-58.5 106.5t-20 140.5q0 84 25 151t69.5 113t102.5 69.5t124 23.5q73 0 129.5 -23.5t95 -67.5t58.5 -106.5t20 -140.5zM518 782q0 -22 -15.5 -38t-38.5 -16q-22 0 -37.5 15.5t-15.5 38.5t15.5 38.5t37.5 15.5q23 0 38.5 -15.5t15.5 -38.5zM305 782q0 -22 -15.5 -38
t-38.5 -16q-22 0 -38 16t-16 38q0 23 16 38.5t38 15.5q23 0 38.5 -15.5t15.5 -38.5z" />
    <glyph glyph-name="multiply" unicode="&#xd7;" 
d="M440 77l-168 168l-167 -168l-50 50l168 168l-168 167l55 55l167 -168l168 168l50 -50l-168 -167l168 -168z" />
    <glyph glyph-name="Oslash" unicode="&#xd8;" horiz-adv-x="709" 
d="M444 586q-19 10 -42 15t-47 5q-46 0 -86 -17t-69.5 -51t-46 -83.5t-16.5 -112.5q0 -75 19.5 -128.5t49.5 -86.5zM572 333q0 75 -19 129t-49 86l-238 -459q19 -9 42 -14.5t47 -5.5q46 0 86 17t69.5 51t45.5 83.5t16 112.5zM667 347q0 -84 -25 -151t-69.5 -113
t-102.5 -69.5t-124 -23.5t-119 22l-54 -104l-66 31l54 104q-56 41 -87 113t-31 172q0 84 25 151t69.5 113t102.5 69.5t124 23.5q32 0 62 -5.5t57 -16.5l54 104l65 -31l-54 -104q57 -41 88 -112.5t31 -172.5z" />
    <glyph glyph-name="Ugrave" unicode="&#xd9;" horiz-adv-x="693" 
d="M85 0zM607 258q0 -133 -68 -200.5t-201 -67.5q-79 0 -128.5 20t-77 53.5t-37.5 75.5t-10 88v448h92v-441q0 -35 7 -65.5t25.5 -53.5t51 -36t83.5 -13q88 -1 130.5 41t42.5 144v424h90v-417v0zM377 725l-190 56l26 70l181 -74z" />
    <glyph glyph-name="Uacute" unicode="&#xda;" horiz-adv-x="693" 
d="M85 0zM607 258q0 -133 -68 -200.5t-201 -67.5q-79 0 -128.5 20t-77 53.5t-37.5 75.5t-10 88v448h92v-441q0 -35 7 -65.5t25.5 -53.5t51 -36t83.5 -13q88 -1 130.5 41t42.5 144v424h90v-417v0zM329 725l-17 52l182 74l25 -70z" />
    <glyph glyph-name="Ucircumflex" unicode="&#xdb;" horiz-adv-x="693" 
d="M85 0zM607 258q0 -133 -68 -200.5t-201 -67.5q-79 0 -128.5 20t-77 53.5t-37.5 75.5t-10 88v448h92v-441q0 -35 7 -65.5t25.5 -53.5t51 -36t83.5 -13q88 -1 130.5 41t42.5 144v424h90v-417v0zM482 724l-133 60l-135 -60l-24 50l160 83l158 -81z" />
    <glyph glyph-name="Udieresis" unicode="&#xdc;" horiz-adv-x="693" 
d="M85 0zM607 258q0 -133 -68 -200.5t-201 -67.5q-79 0 -128.5 20t-77 53.5t-37.5 75.5t-10 88v448h92v-441q0 -35 7 -65.5t25.5 -53.5t51 -36t83.5 -13q88 -1 130.5 41t42.5 144v424h90v-417v0zM507 782q0 -22 -15.5 -38t-38.5 -16q-22 0 -37.5 15.5t-15.5 38.5t15.5 38.5
t37.5 15.5q23 0 38.5 -15.5t15.5 -38.5zM294 782q0 -22 -15.5 -38t-38.5 -16q-22 0 -38 16t-16 38q0 23 16 38.5t38 15.5q23 0 38.5 -15.5t15.5 -38.5z" />
    <glyph glyph-name="Yacute" unicode="&#xdd;" horiz-adv-x="537" 
d="M2 0zM313 259v-259h-91v259l-220 416h101l116 -220q27 -54 50 -111h2q13 32 29 65t25 50l112 216h98zM247 725l-17 52l182 74l25 -70z" />
    <glyph glyph-name="Thorn" unicode="&#xde;" horiz-adv-x="537" 
d="M423 357q0 68 -43 107.5t-129 39.5q-22 0 -43 -1.5t-31 -2.5v-289q10 -1 32 -3t46 -2q81 0 124.5 42t43.5 109zM518 369q0 -51 -18.5 -94.5t-54 -75.5t-85.5 -50t-112 -18q-22 0 -42 1t-29 2v-134h-92v675h92v-98q10 1 33.5 1.5t51.5 0.5q126 0 191 -58.5t65 -151.5z" />
    <glyph glyph-name="germandbls" unicode="&#xdf;" horiz-adv-x="593" 
d="M552 149q0 -34 -14 -63.5t-40 -51t-63 -33t-82 -11.5q-28 0 -53.5 3t-45.5 8l6 79q22 -8 46 -12.5t46 -4.5q54 0 81 21.5t27 53.5q0 25 -13 42.5t-28 27t-51.5 30.5t-57 38.5t-34 43.5t-13.5 63q0 28 9 49t23 35.5t37.5 32t35.5 28t21 26.5t9 38q0 36 -26 54.5t-69 18.5
q-63 0 -95.5 -38.5t-32.5 -121.5v-505h-90v500q0 63 17 108.5t47 73t70.5 40.5t88.5 13q85 0 133.5 -37t48.5 -98q0 -32 -9.5 -54.5t-23.5 -37.5t-40.5 -33.5t-35.5 -25.5t-18 -21.5t-9 -34.5q0 -24 13.5 -41.5t27.5 -26.5t51 -31t58 -39.5t34.5 -43.5t13.5 -62z" />
    <glyph glyph-name="agrave" unicode="&#xe0;" horiz-adv-x="521" 
d="M46 0zM345 233q-59 0 -100 -7.5t-65 -20.5t-34.5 -30t-10.5 -37q0 -33 21 -54.5t55 -21.5q29 0 54 13t43 36t27.5 50.5t9.5 56.5v15zM350 0q0 35 1 57.5t4 41.5h-2q-19 -47 -64 -77.5t-105 -30.5q-62 0 -100 37t-38 97q0 81 78.5 126t220.5 45v27q0 58 -24 85.5t-81 27.5
q-34 0 -74.5 -9.5t-76.5 -25.5l-16 70q41 16 87 25.5t90 9.5q52 0 87.5 -11.5t57 -34t31 -54t9.5 -73.5v-190q0 -36 1 -74t2 -69h-88zM268 569l-140 128l55 54l129 -139z" />
    <glyph glyph-name="aacute" unicode="&#xe1;" horiz-adv-x="521" 
d="M46 0zM345 233q-59 0 -100 -7.5t-65 -20.5t-34.5 -30t-10.5 -37q0 -33 21 -54.5t55 -21.5q29 0 54 13t43 36t27.5 50.5t9.5 56.5v15zM350 0q0 35 1 57.5t4 41.5h-2q-19 -47 -64 -77.5t-105 -30.5q-62 0 -100 37t-38 97q0 81 78.5 126t220.5 45v27q0 58 -24 85.5t-81 27.5
q-34 0 -74.5 -9.5t-76.5 -25.5l-16 70q41 16 87 25.5t90 9.5q52 0 87.5 -11.5t57 -34t31 -54t9.5 -73.5v-190q0 -36 1 -74t2 -69h-88zM250 569l-44 43l129 139l55 -53z" />
    <glyph glyph-name="acircumflex" unicode="&#xe2;" horiz-adv-x="521" 
d="M46 0zM345 233q-59 0 -100 -7.5t-65 -20.5t-34.5 -30t-10.5 -37q0 -33 21 -54.5t55 -21.5q29 0 54 13t43 36t27.5 50.5t9.5 56.5v15zM350 0q0 35 1 57.5t4 41.5h-2q-19 -47 -64 -77.5t-105 -30.5q-62 0 -100 37t-38 97q0 81 78.5 126t220.5 45v27q0 58 -24 85.5t-81 27.5
q-34 0 -74.5 -9.5t-76.5 -25.5l-16 70q41 16 87 25.5t90 9.5q52 0 87.5 -11.5t57 -34t31 -54t9.5 -73.5v-190q0 -36 1 -74t2 -69h-88zM359 570l-100 85l-102 -85l-37 43l140 131l138 -130z" />
    <glyph glyph-name="atilde" unicode="&#xe3;" horiz-adv-x="521" 
d="M46 0zM345 233q-59 0 -100 -7.5t-65 -20.5t-34.5 -30t-10.5 -37q0 -33 21 -54.5t55 -21.5q29 0 54 13t43 36t27.5 50.5t9.5 56.5v15zM350 0q0 35 1 57.5t4 41.5h-2q-19 -47 -64 -77.5t-105 -30.5q-62 0 -100 37t-38 97q0 81 78.5 126t220.5 45v27q0 58 -24 85.5t-81 27.5
q-34 0 -74.5 -9.5t-76.5 -25.5l-16 70q41 16 87 25.5t90 9.5q52 0 87.5 -11.5t57 -34t31 -54t9.5 -73.5v-190q0 -36 1 -74t2 -69h-88zM426 671q-20 -38 -47.5 -58t-61.5 -20q-22 0 -38.5 7.5t-36 21.5t-29.5 20t-24 6q-33 0 -59 -47l-45 35q20 38 47.5 58t61.5 20
q22 0 38.5 -7t36 -21t29.5 -20t24 -6q34 0 59 46z" />
    <glyph glyph-name="adieresis" unicode="&#xe4;" horiz-adv-x="521" 
d="M46 0zM345 233q-59 0 -100 -7.5t-65 -20.5t-34.5 -30t-10.5 -37q0 -33 21 -54.5t55 -21.5q29 0 54 13t43 36t27.5 50.5t9.5 56.5v15zM350 0q0 35 1 57.5t4 41.5h-2q-19 -47 -64 -77.5t-105 -30.5q-62 0 -100 37t-38 97q0 81 78.5 126t220.5 45v27q0 58 -24 85.5t-81 27.5
q-34 0 -74.5 -9.5t-76.5 -25.5l-16 70q41 16 87 25.5t90 9.5q52 0 87.5 -11.5t57 -34t31 -54t9.5 -73.5v-190q0 -36 1 -74t2 -69h-88zM215 654q0 -22 -16 -38t-38 -16t-38 16t-16 38t16 38t38 16t38 -16t16 -38zM407 654q0 -22 -16 -38t-38 -16t-38 16t-16 38t16 38t38 16
t38 -16t16 -38z" />
    <glyph glyph-name="aring" unicode="&#xe5;" horiz-adv-x="521" 
d="M46 0zM345 233q-59 0 -100 -7.5t-65 -20.5t-34.5 -30t-10.5 -37q0 -33 21 -54.5t55 -21.5q29 0 54 13t43 36t27.5 50.5t9.5 56.5v15zM350 0q0 35 1 57.5t4 41.5h-2q-19 -47 -64 -77.5t-105 -30.5q-62 0 -100 37t-38 97q0 81 78.5 126t220.5 45v27q0 58 -24 85.5t-81 27.5
q-34 0 -74.5 -9.5t-76.5 -25.5l-16 70q41 16 87 25.5t90 9.5q52 0 87.5 -11.5t57 -34t31 -54t9.5 -73.5v-190q0 -36 1 -74t2 -69h-88zM378 670q0 -49 -33.5 -81t-87.5 -32q-53 0 -82 27t-29 79q0 49 33 80.5t87 31.5q53 0 82.5 -26.5t29.5 -78.5zM312 666q0 58 -50 58
q-22 0 -36.5 -15t-14.5 -42q0 -58 50 -58q22 0 36.5 14.5t14.5 42.5z" />
    <glyph glyph-name="ae" unicode="&#xe6;" horiz-adv-x="807" 
d="M345 233q-59 0 -100 -7.5t-65 -20.5t-34.5 -30t-10.5 -37q0 -33 21 -54.5t55 -21.5q29 0 54 13t43 36t27.5 50.5t9.5 56.5v15zM669 310q1 60 -28.5 94t-81.5 34q-49 0 -82.5 -34t-41.5 -94h234zM761 302q0 -27 -3 -56h-324q-3 -93 35 -138t117 -45q37 0 73.5 7t73.5 20
l12 -69q-41 -15 -84 -22.5t-86 -7.5q-82 0 -131.5 31t-68.5 83h-1q-12 -23 -30 -44t-42 -36.5t-53.5 -24.5t-62.5 -9q-63 0 -101.5 37t-38.5 97q0 81 78.5 126t220.5 45v27q0 58 -24 85.5t-81 27.5q-34 0 -74.5 -9.5t-76.5 -25.5l-16 70q41 16 87 25.5t90 9.5q58 0 97 -18.5
t57 -58.5h1q24 35 65 56t94 21q51 0 88.5 -15.5t61.5 -44t35.5 -65t11.5 -79.5z" />
    <glyph glyph-name="ccedilla" unicode="&#xe7;" horiz-adv-x="435" 
d="M41 0zM407 19q-31 -13 -70.5 -20t-77.5 -7q-47 0 -86 12.5t-69 40t-46.5 74.5t-16.5 113q0 60 15.5 110.5t46 86.5t76 56t104.5 20q33 0 64.5 -5.5t57.5 -15.5l-17 -77q-25 10 -54.5 16t-58.5 6q-33 0 -59 -13.5t-44 -38t-27 -58.5t-9 -75q0 -39 7 -70t23 -54.5
t43.5 -36.5t67.5 -13q65 0 116 24zM274 -40q37 -51 29.5 -98.5t-50.5 -96.5h-73q19 24 31 45t14.5 40.5t-4 38.5t-24.5 41l77 30v0z" />
    <glyph glyph-name="egrave" unicode="&#xe8;" horiz-adv-x="508" 
d="M41 0zM370 305q1 64 -28.5 98.5t-82.5 34.5q-50 0 -83.5 -35t-40.5 -98h235zM462 301q0 -31 -3 -59h-325q-1 -91 36.5 -135t116.5 -44q37 0 73.5 7t73.5 20l12 -69q-41 -15 -84 -22.5t-86 -7.5q-116 0 -175.5 62.5t-59.5 192.5q0 55 15 103t44.5 83t71 54.5t93.5 19.5
q51 0 88.5 -16t61.5 -44t35.5 -65t11.5 -80zM270 569l-140 128l55 54l129 -139z" />
    <glyph glyph-name="eacute" unicode="&#xe9;" horiz-adv-x="508" 
d="M41 0zM370 305q1 64 -28.5 98.5t-82.5 34.5q-50 0 -83.5 -35t-40.5 -98h235zM462 301q0 -31 -3 -59h-325q-1 -91 36.5 -135t116.5 -44q37 0 73.5 7t73.5 20l12 -69q-41 -15 -84 -22.5t-86 -7.5q-116 0 -175.5 62.5t-59.5 192.5q0 55 15 103t44.5 83t71 54.5t93.5 19.5
q51 0 88.5 -16t61.5 -44t35.5 -65t11.5 -80zM252 569l-44 43l129 139l55 -53z" />
    <glyph glyph-name="ecircumflex" unicode="&#xea;" horiz-adv-x="508" 
d="M41 0zM370 305q1 64 -28.5 98.5t-82.5 34.5q-50 0 -83.5 -35t-40.5 -98h235zM462 301q0 -31 -3 -59h-325q-1 -91 36.5 -135t116.5 -44q37 0 73.5 7t73.5 20l12 -69q-41 -15 -84 -22.5t-86 -7.5q-116 0 -175.5 62.5t-59.5 192.5q0 55 15 103t44.5 83t71 54.5t93.5 19.5
q51 0 88.5 -16t61.5 -44t35.5 -65t11.5 -80zM362 570l-100 85l-102 -85l-37 43l140 131l138 -130z" />
    <glyph glyph-name="edieresis" unicode="&#xeb;" horiz-adv-x="508" 
d="M41 0zM370 305q1 64 -28.5 98.5t-82.5 34.5q-50 0 -83.5 -35t-40.5 -98h235zM462 301q0 -31 -3 -59h-325q-1 -91 36.5 -135t116.5 -44q37 0 73.5 7t73.5 20l12 -69q-41 -15 -84 -22.5t-86 -7.5q-116 0 -175.5 62.5t-59.5 192.5q0 55 15 103t44.5 83t71 54.5t93.5 19.5
q51 0 88.5 -16t61.5 -44t35.5 -65t11.5 -80zM220 654q0 -22 -16 -38t-38 -16t-38 16t-16 38t16 38t38 16t38 -16t16 -38zM412 654q0 -22 -16 -38t-38 -16t-38 16t-16 38t16 38t38 16t38 -16t16 -38z" />
    <glyph glyph-name="igrave" unicode="&#xec;" horiz-adv-x="260" 
d="M21 0zM85 0v497h90v-497h-90zM120 564l-99 158l69 36l85 -165z" />
    <glyph glyph-name="iacute" unicode="&#xed;" horiz-adv-x="260" 
d="M83 0zM85 0v497h90v-497h-90zM135 568l-52 35l104 152l64 -43z" />
    <glyph glyph-name="icircumflex" unicode="&#xee;" horiz-adv-x="260" 
d="M5 0zM85 0v497h90v-497h-90zM217 570l-87 85l-88 -85l-37 42l126 131l125 -130z" />
    <glyph glyph-name="idieresis" unicode="&#xef;" horiz-adv-x="260" 
d="M0 0zM85 0v497h90v-497h-90zM97 654q0 -22 -15.5 -38t-38.5 -16q-22 0 -38 16t-16 38q0 23 16 38.5t38 15.5q23 0 38.5 -15.5t15.5 -38.5zM272 654q0 -22 -15.5 -38t-38.5 -16q-22 0 -38 16t-16 38q0 23 16 38.5t38 15.5q23 0 38.5 -15.5t15.5 -38.5z" />
    <glyph glyph-name="eth" unicode="&#xf0;" horiz-adv-x="546" 
d="M410 261q0 79 -35.5 124.5t-102.5 45.5q-28 0 -53 -11t-44.5 -33.5t-30.5 -56.5t-11 -79q0 -88 38 -136t105 -48q29 0 53 11t42.5 35t28.5 61t10 87zM503 273q0 -70 -18 -123.5t-50 -88.5t-75 -52.5t-94 -17.5t-92.5 15.5t-71.5 47t-46 79.5t-16 111q0 55 16.5 103
t47.5 83.5t74.5 55t96.5 19.5q34 0 62.5 -11t42.5 -34q-7 13 -16 27.5t-14 23.5q-13 22 -28.5 43t-35.5 43l-102 -46l-38 47l94 42q-16 14 -34 28.5t-47 37.5l90 38q21 -17 39.5 -33.5t35.5 -34.5l100 44l39 -47l-97 -42q66 -80 101.5 -171t35.5 -187z" />
    <glyph glyph-name="ntilde" unicode="&#xf1;" horiz-adv-x="575" 
d="M85 0zM401 0v320q0 56 -19 84t-66 28q-30 0 -56 -14.5t-45 -41t-29.5 -62t-10.5 -76.5v-238h-90v497h87q0 -26 -2 -55t-6 -50h2q22 53 67.5 83.5t107.5 30.5q41 0 70.5 -12t47 -33.5t25 -50t7.5 -63.5v-347h-90zM462 671q-20 -38 -47.5 -58t-61.5 -20q-22 0 -38.5 7.5
t-36 21.5t-29.5 20t-24 6q-33 0 -59 -47l-45 35q20 38 47.5 58t61.5 20q22 0 38.5 -7t36 -21t29.5 -20t24 -6q34 0 59 46z" />
    <glyph glyph-name="ograve" unicode="&#xf2;" horiz-adv-x="545" 
d="M40 0zM412 249q0 87 -36.5 134.5t-101.5 47.5q-32 0 -58 -11.5t-44.5 -34.5t-28.5 -57.5t-10 -79.5q0 -87 36.5 -134t102.5 -47q30 0 55.5 11t44.5 33.5t29.5 57t10.5 80.5zM505 256q0 -56 -15.5 -104.5t-46.5 -84.5t-76.5 -56t-102.5 -20q-51 0 -92.5 15.5t-71 46.5
t-45 78t-15.5 110q0 56 15.5 104.5t46.5 84.5t76.5 56t103.5 20q51 0 92 -15.5t70.5 -46.5t45 -78t15.5 -110zM286 569l-140 128l55 54l129 -139z" />
    <glyph glyph-name="oacute" unicode="&#xf3;" horiz-adv-x="545" 
d="M40 0zM412 249q0 87 -36.5 134.5t-101.5 47.5q-32 0 -58 -11.5t-44.5 -34.5t-28.5 -57.5t-10 -79.5q0 -87 36.5 -134t102.5 -47q30 0 55.5 11t44.5 33.5t29.5 57t10.5 80.5zM505 256q0 -56 -15.5 -104.5t-46.5 -84.5t-76.5 -56t-102.5 -20q-51 0 -92.5 15.5t-71 46.5
t-45 78t-15.5 110q0 56 15.5 104.5t46.5 84.5t76.5 56t103.5 20q51 0 92 -15.5t70.5 -46.5t45 -78t15.5 -110zM266 569l-44 43l129 139l55 -53z" />
    <glyph glyph-name="ocircumflex" unicode="&#xf4;" horiz-adv-x="545" 
d="M40 0zM412 249q0 87 -36.5 134.5t-101.5 47.5q-32 0 -58 -11.5t-44.5 -34.5t-28.5 -57.5t-10 -79.5q0 -87 36.5 -134t102.5 -47q30 0 55.5 11t44.5 33.5t29.5 57t10.5 80.5zM505 256q0 -56 -15.5 -104.5t-46.5 -84.5t-76.5 -56t-102.5 -20q-51 0 -92.5 15.5t-71 46.5
t-45 78t-15.5 110q0 56 15.5 104.5t46.5 84.5t76.5 56t103.5 20q51 0 92 -15.5t70.5 -46.5t45 -78t15.5 -110zM375 570l-100 85l-102 -85l-37 43l140 131l138 -130z" />
    <glyph glyph-name="otilde" unicode="&#xf5;" horiz-adv-x="545" 
d="M40 0zM412 249q0 87 -36.5 134.5t-101.5 47.5q-32 0 -58 -11.5t-44.5 -34.5t-28.5 -57.5t-10 -79.5q0 -87 36.5 -134t102.5 -47q30 0 55.5 11t44.5 33.5t29.5 57t10.5 80.5zM505 256q0 -56 -15.5 -104.5t-46.5 -84.5t-76.5 -56t-102.5 -20q-51 0 -92.5 15.5t-71 46.5
t-45 78t-15.5 110q0 56 15.5 104.5t46.5 84.5t76.5 56t103.5 20q51 0 92 -15.5t70.5 -46.5t45 -78t15.5 -110zM449 671q-20 -38 -47.5 -58t-61.5 -20q-22 0 -38.5 7.5t-36 21.5t-29.5 20t-24 6q-33 0 -59 -47l-45 35q20 38 47.5 58t61.5 20q22 0 38.5 -7t36 -21t29.5 -20
t24 -6q34 0 59 46z" />
    <glyph glyph-name="odieresis" unicode="&#xf6;" horiz-adv-x="545" 
d="M40 0zM412 249q0 87 -36.5 134.5t-101.5 47.5q-32 0 -58 -11.5t-44.5 -34.5t-28.5 -57.5t-10 -79.5q0 -87 36.5 -134t102.5 -47q30 0 55.5 11t44.5 33.5t29.5 57t10.5 80.5zM505 256q0 -56 -15.5 -104.5t-46.5 -84.5t-76.5 -56t-102.5 -20q-51 0 -92.5 15.5t-71 46.5
t-45 78t-15.5 110q0 56 15.5 104.5t46.5 84.5t76.5 56t103.5 20q51 0 92 -15.5t70.5 -46.5t45 -78t15.5 -110zM233 654q0 -22 -16 -38t-38 -16t-38 16t-16 38t16 38t38 16t38 -16t16 -38zM425 654q0 -22 -16 -38t-38 -16t-38 16t-16 38t16 38t38 16t38 -16t16 -38z" />
    <glyph glyph-name="divide" unicode="&#xf7;" 
d="M334 96q0 -26 -17.5 -43.5t-42.5 -17.5q-26 0 -43.5 17.5t-17.5 43.5q0 25 17.5 42.5t43.5 17.5q25 0 42.5 -17.5t17.5 -42.5zM42 260v75h466v-75h-466zM334 498q0 -25 -17.5 -42.5t-42.5 -17.5q-26 0 -43.5 17.5t-17.5 42.5t17.5 42.5t43.5 17.5q25 0 42.5 -17.5
t17.5 -42.5z" />
    <glyph glyph-name="oslash" unicode="&#xf8;" horiz-adv-x="545" 
d="M505 256q0 -56 -15.5 -104.5t-46.5 -84.5t-76.5 -56t-102.5 -20q-24 0 -46 3.5t-40 10.5l-49 -94l-56 26l51 95q-41 31 -62.5 83t-21.5 126q0 56 15.5 104.5t46.5 84.5t76.5 56t103.5 20q49 0 85 -14l49 94l56 -26l-50 -95q16 -12 29 -27.5t23 -34.5t17 -41.5t10.5 -49
t3.5 -56.5zM418 249q0 23 -3 44t-8 38.5t-12 31.5t-14 24l-166 -313q26 -12 56 -12q33 0 60.5 12t46.5 36t29.5 59t10.5 80zM330 423q-26 12 -56 12q-33 0 -60 -12t-46.5 -36t-29.5 -59t-10 -80q0 -19 2 -36.5t5.5 -32.5t8 -27.5t10 -23t11.5 -18.5z" />
    <glyph glyph-name="ugrave" unicode="&#xf9;" horiz-adv-x="575" 
d="M85 0zM403 0q0 26 2 55t6 50h-2q-22 -53 -67.5 -83.5t-107.5 -30.5q-41 0 -70 12t-46.5 33.5t-25 50t-7.5 63.5v347h89v-320q0 -56 19 -84t66 -28q30 0 56 14.5t45 41t29.5 62t10.5 76.5v238h90v-497h-87zM291 569l-140 128l55 54l129 -139z" />
    <glyph glyph-name="uacute" unicode="&#xfa;" horiz-adv-x="575" 
d="M85 0zM403 0q0 26 2 55t6 50h-2q-22 -53 -67.5 -83.5t-107.5 -30.5q-41 0 -70 12t-46.5 33.5t-25 50t-7.5 63.5v347h89v-320q0 -56 19 -84t66 -28q30 0 56 14.5t45 41t29.5 62t10.5 76.5v238h90v-497h-87zM286 569l-44 43l129 139l55 -53z" />
    <glyph glyph-name="ucircumflex" unicode="&#xfb;" horiz-adv-x="575" 
d="M85 0zM403 0q0 26 2 55t6 50h-2q-22 -53 -67.5 -83.5t-107.5 -30.5q-41 0 -70 12t-46.5 33.5t-25 50t-7.5 63.5v347h89v-320q0 -56 19 -84t66 -28q30 0 56 14.5t45 41t29.5 62t10.5 76.5v238h90v-497h-87zM388 570l-100 85l-102 -85l-37 43l140 131l138 -130z" />
    <glyph glyph-name="udieresis" unicode="&#xfc;" horiz-adv-x="575" 
d="M85 0zM403 0q0 26 2 55t6 50h-2q-22 -53 -67.5 -83.5t-107.5 -30.5q-41 0 -70 12t-46.5 33.5t-25 50t-7.5 63.5v347h89v-320q0 -56 19 -84t66 -28q30 0 56 14.5t45 41t29.5 62t10.5 76.5v238h90v-497h-87zM245 654q0 -22 -16 -38t-38 -16t-38 16t-16 38t16 38t38 16
t38 -16t16 -38zM437 654q0 -22 -16 -38t-38 -16t-38 16t-16 38t16 38t38 16t38 -16t16 -38z" />
    <glyph glyph-name="yacute" unicode="&#xfd;" horiz-adv-x="480" 
d="M0 0zM272 -42q-22 -60 -46 -100.5t-52.5 -65.5t-62.5 -36t-77 -11q-17 0 -33 2t-23 4l9 78q7 -2 24 -5t35 -3q21 0 39 6t33.5 20.5t30 38.5t28.5 60l20 54l-188 497h103l94 -260q10 -30 20.5 -64.5t18.5 -62.5h1q3 13 8 29.5t11 36t15 45.5t14 43l80 233h97zM244 569
l-44 43l129 139l55 -53z" />
    <glyph glyph-name="thorn" unicode="&#xfe;" horiz-adv-x="558" 
d="M421 264q0 82 -27.5 125t-82.5 43q-32 0 -58 -17t-43 -45.5t-26 -62t-9 -67.5v-164q39 -12 88 -12q36 0 65 11.5t50 35.5t32 62.5t11 90.5zM515 272q0 -132 -67.5 -205t-188.5 -73q-25 0 -44.5 1t-39.5 5v-247h-90v977h90v-218q0 -29 -1.5 -60.5t-4.5 -50.5l2 -1
q20 49 62.5 77.5t99.5 28.5q87 0 134.5 -60.5t47.5 -173.5z" />
    <glyph glyph-name="ydieresis" unicode="&#xff;" horiz-adv-x="480" 
d="M0 0zM272 -42q-22 -60 -46 -100.5t-52.5 -65.5t-62.5 -36t-77 -11q-17 0 -33 2t-23 4l9 78q7 -2 24 -5t35 -3q21 0 39 6t33.5 20.5t30 38.5t28.5 60l20 54l-188 497h103l94 -260q10 -30 20.5 -64.5t18.5 -62.5h1q3 13 8 29.5t11 36t15 45.5t14 43l80 233h97zM201 654
q0 -22 -16 -38t-38 -16t-38 16t-16 38t16 38t38 16t38 -16t16 -38zM393 654q0 -22 -16 -38t-38 -16t-38 16t-16 38t16 38t38 16t38 -16t16 -38z" />
    <glyph glyph-name="Amacron" unicode="&#x100;" horiz-adv-x="615" 
d="M10 0zM333 493q-7 21 -14.5 46t-14.5 49h-1q-5 -20 -11.5 -41t-16.5 -53l-92 -260h242zM502 0l-55 161h-287l-56 -161h-94l242 675h112l241 -675h-103zM168 748v62h276v-62h-276z" />
    <glyph glyph-name="amacron" unicode="&#x101;" horiz-adv-x="521" 
d="M46 0zM345 233q-59 0 -100 -7.5t-65 -20.5t-34.5 -30t-10.5 -37q0 -33 21 -54.5t55 -21.5q29 0 54 13t43 36t27.5 50.5t9.5 56.5v15zM350 0q0 35 1 57.5t4 41.5h-2q-19 -47 -64 -77.5t-105 -30.5q-62 0 -100 37t-38 97q0 81 78.5 126t220.5 45v27q0 58 -24 85.5t-81 27.5
q-34 0 -74.5 -9.5t-76.5 -25.5l-16 70q41 16 87 25.5t90 9.5q52 0 87.5 -11.5t57 -34t31 -54t9.5 -73.5v-190q0 -36 1 -74t2 -69h-88zM132 616v68h252v-68h-252z" />
    <glyph glyph-name="Abreve" unicode="&#x102;" horiz-adv-x="615" 
d="M10 0zM333 493q-7 21 -14.5 46t-14.5 49h-1q-5 -20 -11.5 -41t-16.5 -53l-92 -260h242zM502 0l-55 161h-287l-56 -161h-94l242 675h112l241 -675h-103zM434 852q0 -52 -34.5 -87t-96.5 -35q-32 0 -55.5 9.5t-40 26t-24.5 39t-8 47.5h58q0 -26 20 -43.5t52 -17.5t51 17.5
t19 43.5h59z" />
    <glyph glyph-name="abreve" unicode="&#x103;" horiz-adv-x="521" 
d="M46 0zM345 233q-59 0 -100 -7.5t-65 -20.5t-34.5 -30t-10.5 -37q0 -33 21 -54.5t55 -21.5q29 0 54 13t43 36t27.5 50.5t9.5 56.5v15zM350 0q0 35 1 57.5t4 41.5h-2q-19 -47 -64 -77.5t-105 -30.5q-62 0 -100 37t-38 97q0 81 78.5 126t220.5 45v27q0 58 -24 85.5t-81 27.5
q-34 0 -74.5 -9.5t-76.5 -25.5l-16 70q41 16 87 25.5t90 9.5q52 0 87.5 -11.5t57 -34t31 -54t9.5 -73.5v-190q0 -36 1 -74t2 -69h-88zM386 718q0 -27 -7.5 -51.5t-23 -43t-39.5 -29.5t-57 -11t-56.5 11t-38 30t-21.5 43t-7 51h61q0 -28 16 -48t47 -20q29 0 46.5 17.5
t17.5 50.5h62v0z" />
    <glyph glyph-name="Aogonek" unicode="&#x104;" horiz-adv-x="615" 
d="M333 493q-7 21 -14.5 46t-14.5 49h-1q-5 -20 -11.5 -41t-16.5 -53l-92 -260h242zM639 -190q-49 -44 -113 -44q-50 0 -78.5 24.5t-28.5 66.5q0 37 20.5 74t62.5 69l-55 161h-287l-56 -161h-94l242 675h112l241 -675q-54 -31 -77 -63t-23 -62q0 -20 10.5 -30t29.5 -10
q31 0 66 26z" />
    <glyph glyph-name="aogonek" unicode="&#x105;" horiz-adv-x="521" 
d="M491 -190q-24 -22 -52.5 -33t-59.5 -11q-25 0 -45 6.5t-34 18t-21.5 28.5t-7.5 38q0 19 5.5 38t17 38t28.5 37.5t40 36.5q-4 23 -5.5 46.5t-0.5 42.5l-2 1q-10 -23 -26.5 -42t-38.5 -33.5t-48.5 -22.5t-56.5 -8t-55.5 9.5t-44 27.5t-28.5 42.5t-10 54.5q0 40 20 71.5
t58.5 54t94 34t126.5 11.5v27q0 58 -24 85.5t-81 27.5q-34 0 -74.5 -9.5t-76.5 -25.5l-16 70q41 16 87 25.5t90 9.5q52 0 87.5 -11.5t57 -34t31 -54t9.5 -73.5v-157q0 -45 3.5 -91t10.5 -85q-50 -35 -71 -65.5t-21 -59.5q0 -40 40 -40q16 0 32 6.5t34 19.5zM345 233
q-59 0 -100 -7.5t-65 -20.5t-34.5 -30t-10.5 -37q0 -33 21 -54.5t55 -21.5q29 0 54 13t43 36t27.5 50.5t9.5 56.5v15z" />
    <glyph glyph-name="Cacute" unicode="&#x106;" horiz-adv-x="583" 
d="M46 0zM538 28q-40 -17 -88 -26.5t-97 -9.5q-79 0 -137.5 24.5t-96 68.5t-55.5 104t-18 132q0 79 20 144.5t60.5 114t103.5 75t146 26.5q39 0 80 -5.5t75 -15.5l-15 -84q-36 12 -74 19t-75 7q-57 0 -99 -20t-69.5 -56.5t-40.5 -84.5t-13 -105q0 -127 56.5 -194.5
t170.5 -67.5q37 0 78 9t73 24zM307 725l-17 52l182 74l25 -70z" />
    <glyph glyph-name="cacute" unicode="&#x107;" horiz-adv-x="435" 
d="M41 0zM407 19q-31 -13 -70.5 -20t-77.5 -7q-47 0 -86 12.5t-69 40t-46.5 74.5t-16.5 113q0 60 15.5 110.5t46 86.5t76 56t104.5 20q33 0 64.5 -5.5t57.5 -15.5l-17 -77q-25 10 -54.5 16t-58.5 6q-33 0 -59 -13.5t-44 -38t-27 -58.5t-9 -75q0 -39 7 -70t23 -54.5
t43.5 -36.5t67.5 -13q65 0 116 24zM244 569l-44 43l129 139l55 -53z" />
    <glyph glyph-name="Ccaron" unicode="&#x10c;" horiz-adv-x="583" 
d="M46 0zM538 28q-40 -17 -88 -26.5t-97 -9.5q-79 0 -137.5 24.5t-96 68.5t-55.5 104t-18 132q0 79 20 144.5t60.5 114t103.5 75t146 26.5q39 0 80 -5.5t75 -15.5l-15 -84q-36 12 -74 19t-75 7q-57 0 -99 -20t-69.5 -56.5t-40.5 -84.5t-13 -105q0 -127 56.5 -194.5
t170.5 -67.5q37 0 78 9t73 24zM346 724l-157 82l25 51l134 -60l135 60l24 -50z" />
    <glyph glyph-name="ccaron" unicode="&#x10d;" horiz-adv-x="435" 
d="M41 0zM407 19q-31 -13 -70.5 -20t-77.5 -7q-47 0 -86 12.5t-69 40t-46.5 74.5t-16.5 113q0 60 15.5 110.5t46 86.5t76 56t104.5 20q33 0 64.5 -5.5t57.5 -15.5l-17 -77q-25 10 -54.5 16t-58.5 6q-33 0 -59 -13.5t-44 -38t-27 -58.5t-9 -75q0 -39 7 -70t23 -54.5
t43.5 -36.5t67.5 -13q65 0 116 24zM263 570l-139 130l39 44l100 -85l101 85l38 -43z" />
    <glyph glyph-name="Dcaron" unicode="&#x10e;" horiz-adv-x="678" 
d="M85 0zM535 339q0 130 -63.5 197t-193.5 67q-22 0 -55 -1t-46 -2v-520q18 -3 42.5 -4.5t46.5 -1.5q60 0 109.5 16t85 48.5t55 83t19.5 117.5zM632 345q0 -85 -27 -150.5t-77.5 -110t-119.5 -66.5t-152 -22q-36 0 -92 2t-79 2v674q55 1 106 2.5t96 1.5q82 0 146 -19.5
t108.5 -60.5t67.5 -104t23 -149zM298 724l-157 82l25 51l134 -60l135 60l24 -50z" />
    <glyph glyph-name="dcaron" unicode="&#x10f;" horiz-adv-x="589" 
d="M43 0zM384 422q-24 5 -46 8t-43 3q-36 0 -65 -11.5t-49.5 -35.5t-31.5 -62t-11 -91q0 -82 27 -125t82 -43q33 0 58.5 17t43 45.5t26.5 62t9 67.5v165zM386 0q0 25 2 53t6 48l-2 1q-21 -51 -64.5 -81t-101.5 -30q-91 0 -137 61.5t-46 172.5q0 65 18 116.5t51.5 88t81 55.5
t106.5 19q19 0 38.5 -1t45.5 -4v231h89v-730h-87zM582 565l-60 16l55 181l75 -20z" />
    <glyph glyph-name="Dcroat" unicode="&#x110;" horiz-adv-x="687" 
d="M3 0zM544 339q0 130 -64 197t-194 67q-22 0 -55 -1t-46 -2v-218h143v-70h-143v-232q18 -3 42.5 -4.5t46.5 -1.5q61 0 110 16t85 48.5t55.5 83t19.5 117.5zM641 345q0 -84 -27 -149.5t-77 -109.5t-119.5 -67t-153.5 -23q-36 0 -92 2t-78 2v312h-91v70h91v292q55 1 106 2.5
t95 1.5q82 0 146 -19.5t109 -60.5t68 -104t23 -149z" />
    <glyph glyph-name="dcroat" unicode="&#x111;" horiz-adv-x="558" 
d="M384 422q-49 11 -89 11q-36 0 -65 -11.5t-49.5 -35.5t-31.5 -62t-11 -91q0 -82 27 -125t82 -43q33 0 58.5 17t43 45.5t26.5 62t9 67.5v165zM473 591v-591h-87q0 25 2 53t6 48l-2 1q-21 -51 -64.5 -81t-101.5 -30q-91 0 -137 61.5t-46 172.5q0 65 18 116.5t51.5 88
t81 55.5t106.5 19q19 0 38.5 -1t45.5 -4v92h-117v61h117v78h89v-78h71v-61h-71z" />
    <glyph glyph-name="Emacron" unicode="&#x112;" horiz-adv-x="513" 
d="M85 0zM85 0v675h360v-76h-268v-214h246v-74h-246v-234h268v-77h-360zM121 748v62h276v-62h-276z" />
    <glyph glyph-name="emacron" unicode="&#x113;" horiz-adv-x="508" 
d="M41 0zM370 305q1 64 -28.5 98.5t-82.5 34.5q-50 0 -83.5 -35t-40.5 -98h235zM462 301q0 -31 -3 -59h-325q-1 -91 36.5 -135t116.5 -44q37 0 73.5 7t73.5 20l12 -69q-41 -15 -84 -22.5t-86 -7.5q-116 0 -175.5 62.5t-59.5 192.5q0 55 15 103t44.5 83t71 54.5t93.5 19.5
q51 0 88.5 -16t61.5 -44t35.5 -65t11.5 -80zM132 616v68h252v-68h-252z" />
    <glyph glyph-name="Edotaccent" unicode="&#x116;" horiz-adv-x="513" 
d="M85 0zM85 0v675h360v-76h-268v-214h246v-74h-246v-234h268v-77h-360zM320 785q0 -24 -17 -41t-41 -17t-41 17t-17 41t17 41t41 17t41 -16.5t17 -41.5z" />
    <glyph glyph-name="edotaccent" unicode="&#x117;" horiz-adv-x="508" 
d="M41 0zM370 305q1 64 -28.5 98.5t-82.5 34.5q-50 0 -83.5 -35t-40.5 -98h235zM462 301q0 -31 -3 -59h-325q-1 -91 36.5 -135t116.5 -44q37 0 73.5 7t73.5 20l12 -69q-41 -15 -84 -22.5t-86 -7.5q-116 0 -175.5 62.5t-59.5 192.5q0 55 15 103t44.5 83t71 54.5t93.5 19.5
q51 0 88.5 -16t61.5 -44t35.5 -65t11.5 -80zM320 657q0 -24 -17 -41t-41 -17t-41 16.5t-17 41.5q0 24 17 41t41 17t41 -17t17 -41z" />
    <glyph glyph-name="Eogonek" unicode="&#x118;" horiz-adv-x="513" 
d="M471 -190q-49 -44 -113 -44q-50 0 -78.5 24.5t-28.5 66.5q0 40 24.5 80t61.5 63h-252v675h360v-76h-268v-214h246v-74h-246v-234h268v-74q-23 -8 -43 -22.5t-34.5 -32.5t-22.5 -37t-8 -36q0 -40 40 -40q29 0 66 26z" />
    <glyph glyph-name="eogonek" unicode="&#x119;" horiz-adv-x="508" 
d="M370 305q1 64 -28.5 98.5t-82.5 34.5q-50 0 -83.5 -35t-40.5 -98h235zM443 -190q-49 -44 -112 -44q-51 0 -79.5 24.5t-28.5 66.5q0 36 20 72.5t57 64.5q-20 -2 -35 -2q-50 0 -90.5 14t-70.5 44.5t-46.5 79t-16.5 116.5q0 55 15 103t44.5 83t71 54.5t93.5 19.5
q51 0 88.5 -16t61.5 -44t35.5 -65t11.5 -80q0 -28 -3 -59h-325q-1 -91 36.5 -135t116.5 -44q37 0 73.5 7t73.5 20l12 -68q-26 -9 -50.5 -25t-44 -36t-31 -42.5t-11.5 -43.5q0 -40 40 -40q31 0 66 26z" />
    <glyph glyph-name="Ecaron" unicode="&#x11a;" horiz-adv-x="513" 
d="M85 0zM85 0v675h360v-76h-268v-214h246v-74h-246v-234h268v-77h-360zM256 724l-157 82l25 51l134 -60l135 60l24 -50z" />
    <glyph glyph-name="ecaron" unicode="&#x11b;" horiz-adv-x="508" 
d="M41 0zM370 305q1 64 -28.5 98.5t-82.5 34.5q-50 0 -83.5 -35t-40.5 -98h235zM462 301q0 -31 -3 -59h-325q-1 -91 36.5 -135t116.5 -44q37 0 73.5 7t73.5 20l12 -69q-41 -15 -84 -22.5t-86 -7.5q-116 0 -175.5 62.5t-59.5 192.5q0 55 15 103t44.5 83t71 54.5t93.5 19.5
q51 0 88.5 -16t61.5 -44t35.5 -65t11.5 -80zM261 570l-139 130l39 44l100 -85l101 85l38 -43z" />
    <glyph glyph-name="Gbreve" unicode="&#x11e;" horiz-adv-x="682" 
d="M43 0zM601 30q-50 -19 -108.5 -29t-114.5 -10q-79 0 -141 22.5t-105.5 65.5t-66 104t-22.5 138q0 80 23.5 146.5t69.5 115t114 75t156 26.5q48 0 95 -7.5t92 -21.5l-20 -83q-42 16 -86.5 24.5t-89.5 8.5q-66 0 -115 -21.5t-80 -59t-46 -86t-15 -103.5q0 -63 17 -112
t49 -83t78.5 -51.5t105.5 -17.5q32 0 61 4.5t58 13.5v255h91v-314zM516 852q0 -52 -34.5 -87t-96.5 -35q-32 0 -55.5 9.5t-40 26t-24.5 39t-8 47.5h58q0 -26 20 -43.5t52 -17.5t51 17.5t19 43.5h59z" />
    <glyph glyph-name="gbreve" unicode="&#x11f;" horiz-adv-x="534" 
d="M36 0zM261 506q37 0 72 -9h167v-71h-73q7 -11 16.5 -32t9.5 -56q0 -40 -12.5 -73.5t-38.5 -58t-64 -39t-88 -14.5q-29 0 -53 4q-27 -19 -27 -40q0 -16 16.5 -26t60.5 -11l80 -3q91 -3 135 -41t44 -105q0 -40 -18 -74.5t-51.5 -59t-81.5 -39t-107 -14.5q-98 0 -155 38
t-57 109q0 22 7 41t18.5 36.5t26.5 31.5t33 26q-17 9 -30.5 25.5t-14.5 46.5q0 25 14.5 46.5t41.5 38.5q-17 10 -34.5 28.5t-28.5 47.5t-11 62q0 39 13 73t38.5 58.5t63.5 39t88 14.5zM145 -40q-17 -25 -17 -53q0 -46 36 -69.5t98 -23.5q77 0 115 29.5t38 75.5
q0 36 -25 58.5t-88 24.5l-83 3q-14 0 -26 1q-32 -21 -48 -46zM366 329q0 48 -29 79t-81 31q-53 0 -82 -31t-29 -79t29 -79t82 -31q52 0 81 31t29 79zM390 718q0 -27 -7.5 -51.5t-23 -43t-39.5 -29.5t-57 -11t-56.5 11t-38 30t-21.5 43t-7 51h61q0 -28 16 -48t47 -20
q29 0 46.5 17.5t17.5 50.5h62v0z" />
    <glyph glyph-name="Gcommaaccent" unicode="&#x122;" horiz-adv-x="682" 
d="M43 0zM601 30q-50 -19 -108.5 -29t-114.5 -10q-79 0 -141 22.5t-105.5 65.5t-66 104t-22.5 138q0 80 23.5 146.5t69.5 115t114 75t156 26.5q48 0 95 -7.5t92 -21.5l-20 -83q-42 16 -86.5 24.5t-89.5 8.5q-66 0 -115 -21.5t-80 -59t-46 -86t-15 -103.5q0 -63 17 -112
t49 -83t78.5 -51.5t105.5 -17.5q32 0 61 4.5t58 13.5v255h91v-314zM371 -49q24 0 37.5 -16.5t13.5 -40.5q0 -32 -24 -66.5t-86 -67.5l-23 34q27 20 37 36.5t10 30.5q0 8 -2 13t-4 9.5l-4 9t-2 12.5q0 18 12 32t35 14z" />
    <glyph glyph-name="gcommaaccent" unicode="&#x123;" horiz-adv-x="534" 
d="M36 0zM261 506q37 0 72 -9h167v-71h-73q7 -11 16.5 -32t9.5 -56q0 -40 -12.5 -73.5t-38.5 -58t-64 -39t-88 -14.5q-29 0 -53 4q-27 -19 -27 -40q0 -16 16.5 -26t60.5 -11l80 -3q91 -3 135 -41t44 -105q0 -40 -18 -74.5t-51.5 -59t-81.5 -39t-107 -14.5q-98 0 -155 38
t-57 109q0 22 7 41t18.5 36.5t26.5 31.5t33 26q-17 9 -30.5 25.5t-14.5 46.5q0 25 14.5 46.5t41.5 38.5q-17 10 -34.5 28.5t-28.5 47.5t-11 62q0 39 13 73t38.5 58.5t63.5 39t88 14.5zM145 -40q-17 -25 -17 -53q0 -46 36 -69.5t98 -23.5q77 0 115 29.5t38 75.5
q0 36 -25 58.5t-88 24.5l-83 3q-14 0 -26 1q-32 -21 -48 -46zM366 329q0 48 -29 79t-81 31q-53 0 -82 -31t-29 -79t29 -79t82 -31q52 0 81 31t29 79zM257 566q-23 0 -38 18t-12.5 48.5t29.5 63.5t80 61l23 -34q-21 -15 -30.5 -27.5t-13 -24t-2 -21t5.5 -17.5q6 -10 6 -22.5
t-6 -22.5t-17.5 -16t-24.5 -6z" />
    <glyph glyph-name="Imacron" unicode="&#x12a;" horiz-adv-x="262" 
d="M0 0zM85 0v675h92v-675h-92zM-5 748v62h276v-62h-276z" />
    <glyph glyph-name="imacron" unicode="&#x12b;" horiz-adv-x="260" 
d="M12 0zM85 0v497h90v-497h-90zM12 616v68h237v-68h-237z" />
    <glyph glyph-name="Iogonek" unicode="&#x12e;" horiz-adv-x="262" 
d="M235 -190q-24 -22 -52.5 -33t-59.5 -11q-51 0 -79.5 24.5t-28.5 66.5q0 18 4.5 36.5t13.5 36t22 35.5t30 37v673h92v-675q-41 -35 -58.5 -66.5t-17.5 -58.5q0 -19 10.5 -29.5t29.5 -10.5q31 0 66 26z" />
    <glyph glyph-name="iogonek" unicode="&#x12f;" horiz-adv-x="260" 
d="M190 654q0 -12 -4.5 -22.5t-13 -18.5t-19.5 -12.5t-23 -4.5t-23 4.5t-19 12.5t-13 18.5t-5 22.5t5 23t13 19t19 12.5t23 4.5t23 -4.5t19.5 -12.5t13 -18.5t4.5 -23.5zM175 0q-44 -38 -59.5 -70t-15.5 -55q0 -40 40 -40q31 0 66 26l28 -51q-24 -22 -52.5 -33t-59.5 -11
q-51 0 -79.5 24.5t-28.5 66.5q0 37 18.5 72.5t52.5 72.5v495h90v-497z" />
    <glyph glyph-name="Idotaccent" unicode="&#x130;" horiz-adv-x="262" 
d="M77 0zM85 0v675h92v-675h-92zM193 785q0 -24 -17 -41t-41 -17t-41 17t-17 41t17 41t41 17t41 -16.5t17 -41.5z" />
    <glyph glyph-name="dotlessi" unicode="&#x131;" horiz-adv-x="260" 
d="M85 0v497h90v-497h-90z" />
    <glyph glyph-name="Kcommaaccent" unicode="&#x136;" horiz-adv-x="584" 
d="M85 0zM444 0l-267 334v-334h-92v675h92v-318l268 318h112l-285 -325l297 -350h-125zM298 -49q24 0 37.5 -16.5t13.5 -40.5q0 -32 -24 -66.5t-86 -67.5l-23 34q27 20 37 36.5t10 30.5q0 8 -2 13t-4 9.5l-4 9t-2 12.5q0 18 12 32t35 14z" />
    <glyph glyph-name="kcommaaccent" unicode="&#x137;" horiz-adv-x="493" 
d="M85 0zM359 0l-184 256v-256h-90v730h90v-451l175 218h105l-188 -223l207 -274h-115zM255 -49q24 0 37.5 -16.5t13.5 -40.5q0 -32 -24 -66.5t-86 -67.5l-23 34q27 20 37 36.5t10 30.5q0 8 -2 13t-4 9.5l-4 9t-2 12.5q0 18 12 32t35 14z" />
    <glyph glyph-name="Lacute" unicode="&#x139;" horiz-adv-x="426" 
d="M85 0zM85 0v675h92v-597h242v-78h-334zM150 725l-17 52l182 74l25 -70z" />
    <glyph glyph-name="lacute" unicode="&#x13a;" horiz-adv-x="260" 
d="M80 0zM85 0v730h90v-730h-90zM97 785l-17 52l182 74l25 -70z" />
    <glyph glyph-name="Lcommaaccent" unicode="&#x13b;" horiz-adv-x="426" 
d="M85 0zM85 0v675h92v-597h242v-78h-334zM256 -49q24 0 37.5 -16.5t13.5 -40.5q0 -32 -24 -66.5t-86 -67.5l-23 34q27 20 37 36.5t10 30.5q0 8 -2 13t-4 9.5l-4 9t-2 12.5q0 18 12 32t35 14z" />
    <glyph glyph-name="lcommaaccent" unicode="&#x13c;" horiz-adv-x="260" 
d="M50 0zM85 0v730h90v-730h-90zM132 -49q24 0 37.5 -16.5t13.5 -40.5q0 -32 -24 -66.5t-86 -67.5l-23 34q27 20 37 36.5t10 30.5q0 8 -2 13t-4 9.5l-4 9t-2 12.5q0 18 12 32t35 14z" />
    <glyph glyph-name="Lcaron" unicode="&#x13d;" horiz-adv-x="429" 
d="M85 0zM85 0v675h92v-597h242v-78h-334zM298 606l-52 32l104 157l66 -39z" />
    <glyph glyph-name="lcaron" unicode="&#x13e;" horiz-adv-x="291" 
d="M85 0zM85 0v730h90v-730h-90zM284 565l-60 16l55 181l75 -20z" />
    <glyph glyph-name="Lslash" unicode="&#x141;" horiz-adv-x="435" 
d="M94 0v349l-78 -36l-20 69l98 45v248h91v-205l112 50l19 -69l-131 -59v-314h242v-78h-333z" />
    <glyph glyph-name="lslash" unicode="&#x142;" horiz-adv-x="291" 
d="M193 412v-412h-90v363l-62 -36l-22 65l84 48v290h90v-241l68 39l22 -65z" />
    <glyph glyph-name="Nacute" unicode="&#x143;" horiz-adv-x="693" 
d="M85 0zM518 0h-5l-250 395q-19 29 -32.5 52t-25 43t-20.5 37t-17 34h-2q2 -29 3.5 -73.5t3 -96t2 -105t0.5 -97.5v-189h-90v675v0h69h44l235 -372q20 -30 34 -53.5t24.5 -42.5t17.5 -33l16 -32h2q-2 33 -3.5 76t-2.5 91.5t-2 99t-1 96.5v170h90v-675h-90zM326 725l-17 52
l182 74l25 -70z" />
    <glyph glyph-name="nacute" unicode="&#x144;" horiz-adv-x="575" 
d="M85 0zM401 0v320q0 56 -19 84t-66 28q-30 0 -56 -14.5t-45 -41t-29.5 -62t-10.5 -76.5v-238h-90v497h87q0 -26 -2 -55t-6 -50h2q22 53 67.5 83.5t107.5 30.5q41 0 70.5 -12t47 -33.5t25 -50t7.5 -63.5v-347h-90zM295 569l-44 43l129 139l55 -53z" />
    <glyph glyph-name="Ncommaaccent" unicode="&#x145;" horiz-adv-x="693" 
d="M85 0zM518 0h-5l-250 395q-19 29 -32.5 52t-25 43t-20.5 37t-17 34h-2q2 -29 3.5 -73.5t3 -96t2 -105t0.5 -97.5v-189h-90v675v0h69h44l235 -372q20 -30 34 -53.5t24.5 -42.5t17.5 -33l16 -32h2q-2 33 -3.5 76t-2.5 91.5t-2 99t-1 96.5v170h90v-675h-90zM348 -49
q24 0 37.5 -16.5t13.5 -40.5q0 -32 -24 -66.5t-86 -67.5l-23 34q27 20 37 36.5t10 30.5q0 8 -2 13t-4 9.5l-4 9t-2 12.5q0 18 12 32t35 14z" />
    <glyph glyph-name="ncommaaccent" unicode="&#x146;" horiz-adv-x="575" 
d="M85 0zM401 0v320q0 56 -19 84t-66 28q-30 0 -56 -14.5t-45 -41t-29.5 -62t-10.5 -76.5v-238h-90v497h87q0 -26 -2 -55t-6 -50h2q22 53 67.5 83.5t107.5 30.5q41 0 70.5 -12t47 -33.5t25 -50t7.5 -63.5v-347h-90zM292 -49q24 0 37.5 -16.5t13.5 -40.5q0 -32 -24 -66.5
t-86 -67.5l-23 34q27 20 37 36.5t10 30.5q0 8 -2 13t-4 9.5l-4 9t-2 12.5q0 18 12 32t35 14z" />
    <glyph glyph-name="Ncaron" unicode="&#x147;" horiz-adv-x="693" 
d="M85 0zM518 0h-5l-250 395q-19 29 -32.5 52t-25 43t-20.5 37t-17 34h-2q2 -29 3.5 -73.5t3 -96t2 -105t0.5 -97.5v-189h-90v675v0h69h44l235 -372q20 -30 34 -53.5t24.5 -42.5t17.5 -33l16 -32h2q-2 33 -3.5 76t-2.5 91.5t-2 99t-1 96.5v170h90v-675h-90zM350 724l-157 82
l25 51l134 -60l135 60l24 -50z" />
    <glyph glyph-name="ncaron" unicode="&#x148;" horiz-adv-x="575" 
d="M85 0zM401 0v320q0 56 -19 84t-66 28q-30 0 -56 -14.5t-45 -41t-29.5 -62t-10.5 -76.5v-238h-90v497h87q0 -26 -2 -55t-6 -50h2q22 53 67.5 83.5t107.5 30.5q41 0 70.5 -12t47 -33.5t25 -50t7.5 -63.5v-347h-90zM290 570l-139 130l39 44l100 -85l101 85l38 -43z" />
    <glyph glyph-name="Omacron" unicode="&#x14c;" horiz-adv-x="709" 
d="M43 0zM570 333q0 125 -55 198t-160 73q-46 0 -85 -17t-68.5 -50.5t-45.5 -83t-16 -111.5q0 -61 13.5 -111t40.5 -86t67.5 -55t93.5 -19q46 0 85 17t68.5 50.5t45.5 83t16 111.5zM667 347q0 -84 -25 -151t-69.5 -113t-102.5 -69.5t-124 -23.5q-73 0 -129.5 23.5t-95 67.5
t-58.5 106.5t-20 140.5q0 84 25 151t69.5 113t102.5 69.5t124 23.5q73 0 129.5 -23.5t95 -67.5t58.5 -106.5t20 -140.5zM218 748v62h276v-62h-276z" />
    <glyph glyph-name="omacron" unicode="&#x14d;" horiz-adv-x="545" 
d="M40 0zM412 249q0 87 -36.5 134.5t-101.5 47.5q-32 0 -58 -11.5t-44.5 -34.5t-28.5 -57.5t-10 -79.5q0 -87 36.5 -134t102.5 -47q30 0 55.5 11t44.5 33.5t29.5 57t10.5 80.5zM505 256q0 -56 -15.5 -104.5t-46.5 -84.5t-76.5 -56t-102.5 -20q-51 0 -92.5 15.5t-71 46.5
t-45 78t-15.5 110q0 56 15.5 104.5t46.5 84.5t76.5 56t103.5 20q51 0 92 -15.5t70.5 -46.5t45 -78t15.5 -110zM151 616v68h252v-68h-252z" />
    <glyph glyph-name="Ohungarumlaut" unicode="&#x150;" horiz-adv-x="709" 
d="M43 0zM570 333q0 125 -55 198t-160 73q-46 0 -85 -17t-68.5 -50.5t-45.5 -83t-16 -111.5q0 -61 13.5 -111t40.5 -86t67.5 -55t93.5 -19q46 0 85 17t68.5 50.5t45.5 83t16 111.5zM667 347q0 -84 -25 -151t-69.5 -113t-102.5 -69.5t-124 -23.5q-73 0 -129.5 23.5t-95 67.5
t-58.5 106.5t-20 140.5q0 84 25 151t69.5 113t102.5 69.5t124 23.5q73 0 129.5 -23.5t95 -67.5t58.5 -106.5t20 -140.5zM275 724l-44 40l113 130l55 -50zM450 724l-42 40l131 127l52 -53z" />
    <glyph glyph-name="ohungarumlaut" unicode="&#x151;" horiz-adv-x="545" 
d="M40 0zM412 249q0 87 -36.5 134.5t-101.5 47.5q-32 0 -58 -11.5t-44.5 -34.5t-28.5 -57.5t-10 -79.5q0 -87 36.5 -134t102.5 -47q30 0 55.5 11t44.5 33.5t29.5 57t10.5 80.5zM505 256q0 -56 -15.5 -104.5t-46.5 -84.5t-76.5 -56t-102.5 -20q-51 0 -92.5 15.5t-71 46.5
t-45 78t-15.5 110q0 56 15.5 104.5t46.5 84.5t76.5 56t103.5 20q51 0 92 -15.5t70.5 -46.5t45 -78t15.5 -110zM201 570l-44 39l118 141l56 -48zM375 570l-43 40l128 134l54 -50z" />
    <glyph glyph-name="OE" unicode="&#x152;" horiz-adv-x="874" 
d="M457 591q-22 6 -49 9.5t-53 3.5q-46 0 -85 -17t-68.5 -50.5t-45.5 -83t-16 -111.5q0 -61 13.5 -111t40.5 -86t67.5 -55t93.5 -19q23 0 51.5 3.5t50.5 8.5v508zM465 0q-28 -5 -60 -7.5t-59 -2.5q-73 0 -129.5 23.5t-95 67.5t-58.5 106.5t-20 140.5q0 84 25 151t69.5 113
t102.5 69.5t124 23.5q26 0 55.5 -2.5t53.5 -7.5h332v-76h-256v-214h243v-74h-243v-234h256v-77h-340z" />
    <glyph glyph-name="oe" unicode="&#x153;" horiz-adv-x="873" 
d="M412 249q0 87 -36.5 134.5t-101.5 47.5q-32 0 -58 -11.5t-44.5 -34.5t-28.5 -57.5t-10 -79.5q0 -87 36.5 -134t102.5 -47q30 0 55.5 11t44.5 33.5t29.5 57t10.5 80.5zM735 310q1 60 -28 94t-82 34q-49 0 -82.5 -34t-40.5 -94h233zM827 302q0 -27 -2 -56h-325
q-2 -94 36 -138.5t117 -44.5q36 0 73 7t74 20l11 -69q-41 -15 -84 -22.5t-86 -7.5q-74 0 -120.5 26t-70.5 73q-26 -45 -73.5 -72t-112.5 -27q-51 0 -92.5 15.5t-71 46.5t-45 78t-15.5 110q0 56 15.5 104.5t46.5 84.5t76.5 56t103.5 20q60 0 106 -23.5t73 -71.5
q24 44 67.5 69.5t101.5 25.5q51 0 88.5 -15.5t61.5 -44t35.5 -65t11.5 -79.5z" />
    <glyph glyph-name="Racute" unicode="&#x154;" horiz-adv-x="567" 
d="M85 0zM402 484q0 58 -38.5 89t-110.5 31q-23 0 -44.5 -0.5t-31.5 -1.5v-240q10 0 30.5 -0.5t41.5 -0.5q73 0 113 32.5t40 90.5zM430 0l-204 292h-49v-292h-92v674q22 1 72 3t104 2t97.5 -11t74.5 -33.5t48 -57.5t17 -82q0 -43 -13.5 -76.5t-38 -57t-56.5 -38t-69 -19.5
q7 -9 23 -29t32 -43l168 -232h-114zM222 725l-17 52l182 74l25 -70z" />
    <glyph glyph-name="racute" unicode="&#x155;" horiz-adv-x="355" 
d="M85 0zM330 417q-78 14 -116.5 -41t-38.5 -176v-200h-90v497h87q0 -26 -2.5 -57.5t-8.5 -60.5h2q8 28 22 52t35 42t49.5 27.5t64.5 5.5zM208 569l-44 43l129 139l55 -53z" />
    <glyph glyph-name="Rcommaaccent" unicode="&#x156;" horiz-adv-x="567" 
d="M85 0zM402 484q0 58 -38.5 89t-110.5 31q-23 0 -44.5 -0.5t-31.5 -1.5v-240q10 0 30.5 -0.5t41.5 -0.5q73 0 113 32.5t40 90.5zM430 0l-204 292h-49v-292h-92v674q22 1 72 3t104 2t97.5 -11t74.5 -33.5t48 -57.5t17 -82q0 -43 -13.5 -76.5t-38 -57t-56.5 -38t-69 -19.5
q7 -9 23 -29t32 -43l168 -232h-114zM287 -49q24 0 37.5 -16.5t13.5 -40.5q0 -32 -24 -66.5t-86 -67.5l-23 34q27 20 37 36.5t10 30.5q0 8 -2 13t-4 9.5l-4 9t-2 12.5q0 18 12 32t35 14z" />
    <glyph glyph-name="rcommaaccent" unicode="&#x157;" horiz-adv-x="355" 
d="M58 0zM330 417q-78 14 -116.5 -41t-38.5 -176v-200h-90v497h87q0 -26 -2.5 -57.5t-8.5 -60.5h2q8 28 22 52t35 42t49.5 27.5t64.5 5.5zM140 -49q24 0 37.5 -16.5t13.5 -40.5q0 -32 -24 -66.5t-86 -67.5l-23 34q27 20 37 36.5t10 30.5q0 8 -2 13t-4 9.5l-4 9t-2 12.5
q0 18 12 32t35 14z" />
    <glyph glyph-name="Rcaron" unicode="&#x158;" horiz-adv-x="567" 
d="M85 0zM402 484q0 58 -38.5 89t-110.5 31q-23 0 -44.5 -0.5t-31.5 -1.5v-240q10 0 30.5 -0.5t41.5 -0.5q73 0 113 32.5t40 90.5zM430 0l-204 292h-49v-292h-92v674q22 1 72 3t104 2t97.5 -11t74.5 -33.5t48 -57.5t17 -82q0 -43 -13.5 -76.5t-38 -57t-56.5 -38t-69 -19.5
q7 -9 23 -29t32 -43l168 -232h-114zM259 724l-157 82l25 51l134 -60l135 60l24 -50z" />
    <glyph glyph-name="rcaron" unicode="&#x159;" horiz-adv-x="355" 
d="M72 0zM330 417q-78 14 -116.5 -41t-38.5 -176v-200h-90v497h87q0 -26 -2.5 -57.5t-8.5 -60.5h2q8 28 22 52t35 42t49.5 27.5t64.5 5.5zM211 570l-139 130l39 44l100 -85l101 85l38 -43z" />
    <glyph glyph-name="Sacute" unicode="&#x15a;" horiz-adv-x="503" 
d="M51 0zM455 191q0 -44 -16 -80.5t-48 -63.5t-78.5 -41.5t-105.5 -14.5q-41 0 -80 5t-72 14l12 87q34 -13 71.5 -20t74.5 -7q32 0 58.5 6.5t46 20t30 34.5t10.5 50q0 35 -20.5 58.5t-45 36t-80 36.5t-87.5 45t-53 55.5t-21 85.5q0 41 16 75.5t46 59t74.5 38t99.5 13.5
q31 0 63 -3.5t59 -9.5l-11 -81q-28 8 -58 13t-59 5q-67 0 -101.5 -26.5t-34.5 -74.5q0 -34 21 -57t44 -34.5t80.5 -36.5t90 -46.5t53.5 -56t21 -85.5zM222 725l-17 52l182 74l25 -70z" />
    <glyph glyph-name="sacute" unicode="&#x15b;" horiz-adv-x="425" 
d="M50 0zM376 143q0 -32 -13.5 -59.5t-39.5 -48.5t-64.5 -32.5t-87.5 -11.5q-31 0 -62 3.5t-55 9.5l7 80q25 -9 56.5 -15t60.5 -6q51 0 78 19t27 54q0 25 -15.5 41t-48 28.5t-60.5 22.5t-52.5 25t-40.5 41.5t-16 67.5q0 63 51 103.5t145 40.5q25 0 50 -2.5t46 -6.5l-6 -75
q-22 7 -48 11t-50 4q-47 0 -71.5 -18t-24.5 -49q0 -25 15.5 -40.5t48.5 -28.5t60.5 -23t52.5 -25.5t41 -42t16 -67.5zM194 569l-44 43l129 139l55 -53z" />
    <glyph glyph-name="Scedilla" unicode="&#x15e;" horiz-adv-x="503" 
d="M51 0zM455 191q0 -44 -16 -80.5t-48 -63.5t-78.5 -41.5t-105.5 -14.5q-41 0 -80 5t-72 14l12 87q34 -13 71.5 -20t74.5 -7q32 0 58.5 6.5t46 20t30 34.5t10.5 50q0 35 -20.5 58.5t-45 36t-80 36.5t-87.5 45t-53 55.5t-21 85.5q0 41 16 75.5t46 59t74.5 38t99.5 13.5
q31 0 63 -3.5t59 -9.5l-11 -81q-28 8 -58 13t-59 5q-67 0 -101.5 -26.5t-34.5 -74.5q0 -34 21 -57t44 -34.5t80.5 -36.5t90 -46.5t53.5 -56t21 -85.5zM270 -40q37 -51 29.5 -98.5t-50.5 -96.5h-73q19 24 31 45t14.5 40.5t-4 38.5t-24.5 41l77 30v0z" />
    <glyph glyph-name="scedilla" unicode="&#x15f;" horiz-adv-x="425" 
d="M50 0zM376 143q0 -32 -13.5 -59.5t-39.5 -48.5t-64.5 -32.5t-87.5 -11.5q-31 0 -62 3.5t-55 9.5l7 80q25 -9 56.5 -15t60.5 -6q51 0 78 19t27 54q0 25 -15.5 41t-48 28.5t-60.5 22.5t-52.5 25t-40.5 41.5t-16 67.5q0 63 51 103.5t145 40.5q25 0 50 -2.5t46 -6.5l-6 -75
q-22 7 -48 11t-50 4q-47 0 -71.5 -18t-24.5 -49q0 -25 15.5 -40.5t48.5 -28.5t60.5 -23t52.5 -25.5t41 -42t16 -67.5zM235 -40q37 -51 29.5 -98.5t-50.5 -96.5h-73q19 24 31 45t14.5 40.5t-4 38.5t-24.5 41l77 30v0z" />
    <glyph glyph-name="Scaron" unicode="&#x160;" horiz-adv-x="503" 
d="M51 0zM455 191q0 -44 -16 -80.5t-48 -63.5t-78.5 -41.5t-105.5 -14.5q-41 0 -80 5t-72 14l12 87q34 -13 71.5 -20t74.5 -7q32 0 58.5 6.5t46 20t30 34.5t10.5 50q0 35 -20.5 58.5t-45 36t-80 36.5t-87.5 45t-53 55.5t-21 85.5q0 41 16 75.5t46 59t74.5 38t99.5 13.5
q31 0 63 -3.5t59 -9.5l-11 -81q-28 8 -58 13t-59 5q-67 0 -101.5 -26.5t-34.5 -74.5q0 -34 21 -57t44 -34.5t80.5 -36.5t90 -46.5t53.5 -56t21 -85.5zM251 724l-157 82l25 51l134 -60l135 60l24 -50z" />
    <glyph glyph-name="scaron" unicode="&#x161;" horiz-adv-x="425" 
d="M50 0zM376 143q0 -32 -13.5 -59.5t-39.5 -48.5t-64.5 -32.5t-87.5 -11.5q-31 0 -62 3.5t-55 9.5l7 80q25 -9 56.5 -15t60.5 -6q51 0 78 19t27 54q0 25 -15.5 41t-48 28.5t-60.5 22.5t-52.5 25t-40.5 41.5t-16 67.5q0 63 51 103.5t145 40.5q25 0 50 -2.5t46 -6.5l-6 -75
q-22 7 -48 11t-50 4q-47 0 -71.5 -18t-24.5 -49q0 -25 15.5 -40.5t48.5 -28.5t60.5 -23t52.5 -25.5t41 -42t16 -67.5zM215 570l-139 130l39 44l100 -85l101 85l38 -43z" />
    <glyph glyph-name="uni0162" unicode="&#x162;" horiz-adv-x="516" 
d="M18 0zM304 598v-598h-92v598h-194v77h481v-77h-195zM290 -40q37 -51 29.5 -98.5t-50.5 -96.5h-73q19 24 31 45t14.5 40.5t-4 38.5t-24.5 41l77 30v0z" />
    <glyph glyph-name="uni0163" unicode="&#x163;" horiz-adv-x="371" 
d="M7 0zM339 3q-21 -5 -47.5 -8t-50.5 -3q-39 0 -64.5 8.5t-40.5 26t-22 46t-7 70.5v284h-100v70h100v161l90 25v-186h138v-70h-138v-262q0 -29 3.5 -47.5t11 -29.5t20.5 -15.5t33 -4.5q29 0 67 8zM247 -40q37 -51 29.5 -98.5t-50.5 -96.5h-73q19 24 31 45t14.5 40.5
t-4 38.5t-24.5 41l77 30v0z" />
    <glyph glyph-name="Tcaron" unicode="&#x164;" horiz-adv-x="516" 
d="M18 0zM304 598v-598h-92v598h-194v77h481v-77h-195zM255 724l-157 82l25 51l134 -60l135 60l24 -50z" />
    <glyph glyph-name="tcaron" unicode="&#x165;" horiz-adv-x="375" 
d="M7 0zM339 3q-21 -5 -47.5 -8t-50.5 -3q-39 0 -64.5 8.5t-40.5 26t-22 46t-7 70.5v284h-100v70h100v161l90 25v-186h138v-70h-138v-262q0 -29 3.5 -47.5t11 -29.5t20.5 -15.5t33 -4.5q29 0 67 8zM312 565l-60 16l55 181l75 -20z" />
    <glyph glyph-name="Umacron" unicode="&#x16a;" horiz-adv-x="693" 
d="M85 0zM607 258q0 -133 -68 -200.5t-201 -67.5q-79 0 -128.5 20t-77 53.5t-37.5 75.5t-10 88v448h92v-441q0 -35 7 -65.5t25.5 -53.5t51 -36t83.5 -13q88 -1 130.5 41t42.5 144v424h90v-417v0zM209 748v62h276v-62h-276z" />
    <glyph glyph-name="umacron" unicode="&#x16b;" horiz-adv-x="575" 
d="M85 0zM403 0q0 26 2 55t6 50h-2q-22 -53 -67.5 -83.5t-107.5 -30.5q-41 0 -70 12t-46.5 33.5t-25 50t-7.5 63.5v347h89v-320q0 -56 19 -84t66 -28q30 0 56 14.5t45 41t29.5 62t10.5 76.5v238h90v-497h-87zM162 616v68h252v-68h-252z" />
    <glyph glyph-name="Uring" unicode="&#x16e;" horiz-adv-x="693" 
d="M85 0zM607 258q0 -133 -68 -200.5t-201 -67.5q-79 0 -128.5 20t-77 53.5t-37.5 75.5t-10 88v448h92v-441q0 -35 7 -65.5t25.5 -53.5t51 -36t83.5 -13q88 -1 130.5 41t42.5 144v424h90v-417v0zM463 805q0 -48 -33.5 -79t-88.5 -31q-53 0 -82.5 26.5t-29.5 77.5
q0 47 33.5 78t87.5 31t83.5 -26t29.5 -77zM396 801q0 57 -50 57q-22 0 -36.5 -14.5t-14.5 -41.5q0 -57 51 -57q22 0 36 14.5t14 41.5z" />
    <glyph glyph-name="uring" unicode="&#x16f;" horiz-adv-x="575" 
d="M85 0zM403 0q0 26 2 55t6 50h-2q-22 -53 -67.5 -83.5t-107.5 -30.5q-41 0 -70 12t-46.5 33.5t-25 50t-7.5 63.5v347h89v-320q0 -56 19 -84t66 -28q30 0 56 14.5t45 41t29.5 62t10.5 76.5v238h90v-497h-87zM404 662q0 -49 -33.5 -81t-87.5 -32q-53 0 -82 27t-29 79
q0 49 33 80.5t87 31.5q53 0 82.5 -26.5t29.5 -78.5zM338 658q0 58 -50 58q-22 0 -36.5 -15t-14.5 -42q0 -58 50 -58q22 0 36.5 14.5t14.5 42.5z" />
    <glyph glyph-name="Uhungarumlaut" unicode="&#x170;" horiz-adv-x="693" 
d="M85 0zM607 258q0 -133 -68 -200.5t-201 -67.5q-79 0 -128.5 20t-77 53.5t-37.5 75.5t-10 88v448h92v-441q0 -35 7 -65.5t25.5 -53.5t51 -36t83.5 -13q88 -1 130.5 41t42.5 144v424h90v-417v0zM254 724l-44 40l113 130l55 -50zM429 724l-42 40l131 127l52 -53z" />
    <glyph glyph-name="uhungarumlaut" unicode="&#x171;" horiz-adv-x="575" 
d="M85 0zM403 0q0 26 2 55t6 50h-2q-22 -53 -67.5 -83.5t-107.5 -30.5q-41 0 -70 12t-46.5 33.5t-25 50t-7.5 63.5v347h89v-320q0 -56 19 -84t66 -28q30 0 56 14.5t45 41t29.5 62t10.5 76.5v238h90v-497h-87zM209 570l-44 39l118 141l56 -48zM383 570l-43 40l128 134l54 -50
z" />
    <glyph glyph-name="Uogonek" unicode="&#x172;" horiz-adv-x="693" 
d="M607 258q0 -66 -17 -116t-51 -84q-12 -12 -26.5 -22.5t-31 -21.5t-33 -23t-31.5 -28q-45 -45 -45 -88q0 -40 40 -40q30 0 66 26l28 -51q-24 -22 -53 -33t-60 -11q-51 0 -79 24.5t-28 66.5q0 35 19 70.5t58 64.5q-6 0 -15 -0.5t-15 -0.5q-77 0 -125 20t-75.5 53
t-37.5 75.5t-10 87.5v448h92v-441q0 -34 7 -65t25.5 -54t51 -36t83.5 -13q44 0 76.5 10t54 32t32 57t10.5 86v424h90v-417z" />
    <glyph glyph-name="uogonek" unicode="&#x173;" horiz-adv-x="575" 
d="M547 -190q-25 -22 -53.5 -33t-59.5 -11q-25 0 -45 6.5t-34 18t-21.5 28.5t-7.5 38q0 19 5.5 38t17 38t28.5 37.5t40 36.5q-3 23 -5 48.5t-1 44.5h-1q-25 -50 -70 -79.5t-106 -29.5q-41 0 -70 12t-46.5 33.5t-25 50t-7.5 63.5v347h89v-320q0 -56 19 -84t66 -28
q30 0 56 14.5t45 41t29.5 62t10.5 76.5v238h90v-321q0 -45 3.5 -91t10.5 -85q-49 -35 -70 -65.5t-21 -59.5q0 -19 10 -29.5t29 -10.5q16 0 32 6.5t34 19.5z" />
    <glyph glyph-name="Ydieresis" unicode="&#x178;" horiz-adv-x="537" 
d="M2 0zM313 259v-259h-91v259l-220 416h101l116 -220q27 -54 50 -111h2q13 32 29 65t25 50l112 216h98zM430 782q0 -22 -15.5 -38t-38.5 -16q-22 0 -37.5 15.5t-15.5 38.5t15.5 38.5t37.5 15.5q23 0 38.5 -15.5t15.5 -38.5zM217 782q0 -22 -15.5 -38t-38.5 -16
q-22 0 -38 16t-16 38q0 23 16 38.5t38 15.5q23 0 38.5 -15.5t15.5 -38.5z" />
    <glyph glyph-name="Zacute" unicode="&#x179;" horiz-adv-x="539" 
d="M46 0zM46 0v68l283 446q23 34 32.5 48.5t22.5 32.5q-29 -1 -64.5 -1.5t-83.5 -0.5h-180v82h435v-70l-298 -464q-12 -17 -22.5 -32.5t-17.5 -26.5q14 1 51 1.5t117 0.5h174v-84h-449zM243 725l-17 52l182 74l25 -70z" />
    <glyph glyph-name="zacute" unicode="&#x17a;" horiz-adv-x="447" 
d="M48 0zM48 0v64l238 355q-23 -1 -58 -1.5t-73 -0.5h-102v80h338v-63l-235 -353q13 0 37 0.5t50.5 1t47.5 0.5h105v-83h-348zM223 569l-44 43l129 139l55 -53z" />
    <glyph glyph-name="Zdotaccent" unicode="&#x17b;" horiz-adv-x="539" 
d="M46 0zM46 0v68l283 446q23 34 32.5 48.5t22.5 32.5q-29 -1 -64.5 -1.5t-83.5 -0.5h-180v82h435v-70l-298 -464q-12 -17 -22.5 -32.5t-17.5 -26.5q14 1 51 1.5t117 0.5h174v-84h-449zM328 785q0 -24 -17 -41t-41 -17t-41 17t-17 41t17 41t41 17t41 -16.5t17 -41.5z" />
    <glyph glyph-name="zdotaccent" unicode="&#x17c;" horiz-adv-x="447" 
d="M48 0zM48 0v64l238 355q-23 -1 -58 -1.5t-73 -0.5h-102v80h338v-63l-235 -353q13 0 37 0.5t50.5 1t47.5 0.5h105v-83h-348zM278 654q0 -24 -17 -41t-41 -17t-41 16.5t-17 41.5q0 24 17 41t41 17t41 -17t17 -41z" />
    <glyph glyph-name="Zcaron" unicode="&#x17d;" horiz-adv-x="539" 
d="M46 0zM46 0v68l283 446q23 34 32.5 48.5t22.5 32.5q-29 -1 -64.5 -1.5t-83.5 -0.5h-180v82h435v-70l-298 -464q-12 -17 -22.5 -32.5t-17.5 -26.5q14 1 51 1.5t117 0.5h174v-84h-449zM271 724l-157 82l25 51l134 -60l135 60l24 -50z" />
    <glyph glyph-name="zcaron" unicode="&#x17e;" horiz-adv-x="447" 
d="M48 0zM48 0v64l238 355q-23 -1 -58 -1.5t-73 -0.5h-102v80h338v-63l-235 -353q13 0 37 0.5t50.5 1t47.5 0.5h105v-83h-348zM224 570l-139 130l39 44l100 -85l101 85l38 -43z" />
    <glyph glyph-name="florin" unicode="&#x192;" horiz-adv-x="442" 
d="M200 96q-8 -71 -22 -119.5t-37.5 -79t-59 -44.5t-85.5 -14q-18 0 -37 2.5t-36 6.5l15 79q18 -6 36 -9.5t34 -3.5q25 0 41.5 7.5t27.5 25t18.5 48t12.5 78.5l27 267h-121v70h128l13 127q11 98 59 150t136 52q15 0 34 -2t37 -5l-11 -75q-34 8 -70 8q-42 0 -64.5 -28
t-29.5 -90l-14 -137h162v-70h-168z" />
    <glyph glyph-name="Scommaaccent" unicode="&#x218;" horiz-adv-x="503" 
d="M51 0zM455 191q0 -44 -16 -80.5t-48 -63.5t-78.5 -41.5t-105.5 -14.5q-41 0 -80 5t-72 14l12 87q34 -13 71.5 -20t74.5 -7q32 0 58.5 6.5t46 20t30 34.5t10.5 50q0 35 -20.5 58.5t-45 36t-80 36.5t-87.5 45t-53 55.5t-21 85.5q0 41 16 75.5t46 59t74.5 38t99.5 13.5
q31 0 63 -3.5t59 -9.5l-11 -81q-28 8 -58 13t-59 5q-67 0 -101.5 -26.5t-34.5 -74.5q0 -34 21 -57t44 -34.5t80.5 -36.5t90 -46.5t53.5 -56t21 -85.5zM247 -49q24 0 37.5 -16.5t13.5 -40.5q0 -32 -24 -66.5t-86 -67.5l-23 34q27 20 37 36.5t10 30.5q0 8 -2 13t-4 9.5l-4 9
t-2 12.5q0 18 12 32t35 14z" />
    <glyph glyph-name="scommaaccent" unicode="&#x219;" horiz-adv-x="425" 
d="M50 0zM376 143q0 -32 -13.5 -59.5t-39.5 -48.5t-64.5 -32.5t-87.5 -11.5q-31 0 -62 3.5t-55 9.5l7 80q25 -9 56.5 -15t60.5 -6q51 0 78 19t27 54q0 25 -15.5 41t-48 28.5t-60.5 22.5t-52.5 25t-40.5 41.5t-16 67.5q0 63 51 103.5t145 40.5q25 0 50 -2.5t46 -6.5l-6 -75
q-22 7 -48 11t-50 4q-47 0 -71.5 -18t-24.5 -49q0 -25 15.5 -40.5t48.5 -28.5t60.5 -23t52.5 -25.5t41 -42t16 -67.5zM214 -49q24 0 37.5 -16.5t13.5 -40.5q0 -32 -24 -66.5t-86 -67.5l-23 34q27 20 37 36.5t10 30.5q0 8 -2 13t-4 9.5l-4 9t-2 12.5q0 18 12 32t35 14z" />
    <glyph glyph-name="Tcommaaccent" unicode="&#x21a;" horiz-adv-x="516" 
d="M18 0zM304 598v-598h-92v598h-194v77h481v-77h-195zM261 -49q24 0 37.5 -16.5t13.5 -40.5q0 -32 -24 -66.5t-86 -67.5l-23 34q27 20 37 36.5t10 30.5q0 8 -2 13t-4 9.5l-4 9t-2 12.5q0 18 12 32t35 14z" />
    <glyph glyph-name="tcommaaccent" unicode="&#x21b;" horiz-adv-x="371" 
d="M7 0zM339 3q-21 -5 -47.5 -8t-50.5 -3q-39 0 -64.5 8.5t-40.5 26t-22 46t-7 70.5v284h-100v70h100v161l90 25v-186h138v-70h-138v-262q0 -29 3.5 -47.5t11 -29.5t20.5 -15.5t33 -4.5q29 0 67 8zM217 -49q24 0 37.5 -16.5t13.5 -40.5q0 -32 -24 -66.5t-86 -67.5l-23 34
q27 20 37 36.5t10 30.5q0 8 -2 13t-4 9.5l-4 9t-2 12.5q0 18 12 32t35 14z" />
    <glyph glyph-name="apostrophe" unicode="&#x2bc;" horiz-adv-x="85" 
d="M100 743q26 0 42 -20t14.5 -54.5t-25 -79.5t-76.5 -95l-35 31q22 25 34 45.5t16.5 37.5t1.5 30t-11 23q-10 12 -11 26.5t4.5 27t17.5 20.5t28 8z" />
    <glyph glyph-name="circumflex" unicode="&#x2c6;" horiz-adv-x="444" 
d="M322 570l-100 85l-102 -85l-37 43l140 131l138 -130z" />
    <glyph glyph-name="caron" unicode="&#x2c7;" horiz-adv-x="444" 
d="M222 570l-139 130l39 44l100 -85l101 85l38 -43z" />
    <glyph glyph-name="breve" unicode="&#x2d8;" horiz-adv-x="416" 
d="M333 718q0 -27 -7.5 -51.5t-23 -43t-39.5 -29.5t-57 -11t-56.5 11t-38 30t-21.5 43t-7 51h61q0 -28 16 -48t47 -20q29 0 46.5 17.5t17.5 50.5h62v0z" />
    <glyph glyph-name="dotaccent" unicode="&#x2d9;" horiz-adv-x="282" 
d="M199 654q0 -24 -17 -41t-41 -17t-41 16.5t-17 41.5q0 24 17 41t41 17t41 -17t17 -41z" />
    <glyph glyph-name="ring" unicode="&#x2da;" horiz-adv-x="397" 
d="M315 662q0 -49 -33.5 -81t-87.5 -32q-53 0 -82 27t-29 79q0 49 33 80.5t87 31.5q53 0 82.5 -26.5t29.5 -78.5zM249 658q0 58 -50 58q-22 0 -36.5 -15t-14.5 -42q0 -58 50 -58q22 0 36.5 14.5t14.5 42.5z" />
    <glyph glyph-name="ogonek" unicode="&#x2db;" horiz-adv-x="386" 
d="M261 0q-52 -37 -72 -67t-20 -58q0 -40 40 -40q31 0 66 26l28 -51q-29 -25 -57.5 -34.5t-55.5 -9.5q-50 0 -78.5 24.5t-28.5 66.5q0 79 90 150z" />
    <glyph glyph-name="tilde" unicode="&#x2dc;" horiz-adv-x="507" 
d="M424 671q-20 -38 -47.5 -58t-61.5 -20q-22 0 -38.5 7.5t-36 21.5t-29.5 20t-24 6q-33 0 -59 -47l-45 35q20 38 47.5 58t61.5 20q22 0 38.5 -7t36 -21t29.5 -20t24 -6q34 0 59 46z" />
    <glyph glyph-name="hungarumlaut" unicode="&#x2dd;" horiz-adv-x="523" 
d="M127 570l-44 39l118 141l56 -48zM301 570l-43 40l128 134l54 -50z" />
    <glyph glyph-name="uni0312" unicode="&#x312;" horiz-adv-x="0" 
d="M-289 566q-23 0 -38 18t-12.5 48.5t29.5 63.5t80 61l23 -34q-21 -15 -30.5 -27.5t-13 -24t-2 -21t5.5 -17.5q6 -10 6 -22.5t-6 -22.5t-17.5 -16t-24.5 -6z" />
    <glyph glyph-name="uni0315" unicode="&#x315;" horiz-adv-x="34" 
d="M17 565l-60 16l55 181l75 -20z" />
    <glyph glyph-name="uni0326" unicode="&#x326;" horiz-adv-x="0" 
d="M-285 -49q24 0 37.5 -16.5t13.5 -40.5q0 -32 -24 -66.5t-86 -67.5l-23 34q27 20 37 36.5t10 30.5q0 8 -2 13t-4 9.5l-4 9t-2 12.5q0 18 12 32t35 14z" />
    <glyph glyph-name="Delta" unicode="&#x394;" horiz-adv-x="608" 
d="M320 516q-7 21 -11.5 39t-8.5 36h-1q-5 -21 -10.5 -40t-11.5 -37l-152 -433h348zM28 0v67l219 608h111l221 -608v-67h-551z" />
    <glyph glyph-name="Delta" unicode="&#x2206;" horiz-adv-x="608" 
d="M320 516q-7 21 -11.5 39t-8.5 36h-1q-5 -21 -10.5 -40t-11.5 -37l-152 -433h348zM28 0v67l219 608h111l221 -608v-67h-551z" />
    <glyph glyph-name="Omega" unicode="&#x3a9;" horiz-adv-x="720" 
d="M433 0v75q33 27 58 54t42.5 58.5t26.5 70.5t9 87q0 57 -13 104.5t-39.5 82t-66 53.5t-91.5 19q-44 0 -82 -17.5t-66.5 -51t-44.5 -81t-16 -105.5q0 -47 7.5 -85t23.5 -70t41.5 -61t63.5 -58v-75h-243v77h142q-62 44 -97.5 112t-35.5 157q0 77 24 140.5t67 107.5t101 67.5
t125 23.5q64 0 118 -20.5t94.5 -61.5t63 -103t22.5 -143q0 -47 -10.5 -89t-29.5 -77.5t-44 -63.5t-54 -50h147v-77h-243z" />
    <glyph glyph-name="Omega" unicode="&#x2126;" horiz-adv-x="720" 
d="M433 0v75q33 27 58 54t42.5 58.5t26.5 70.5t9 87q0 57 -13 104.5t-39.5 82t-66 53.5t-91.5 19q-44 0 -82 -17.5t-66.5 -51t-44.5 -81t-16 -105.5q0 -47 7.5 -85t23.5 -70t41.5 -61t63.5 -58v-75h-243v77h142q-62 44 -97.5 112t-35.5 157q0 77 24 140.5t67 107.5t101 67.5
t125 23.5q64 0 118 -20.5t94.5 -61.5t63 -103t22.5 -143q0 -47 -10.5 -89t-29.5 -77.5t-44 -63.5t-54 -50h147v-77h-243z" />
    <glyph glyph-name="pi" unicode="&#x3c0;" horiz-adv-x="633" 
d="M476 423q0 -91 5 -159t13 -113q9 -47 21.5 -65t33.5 -18q23 0 42 6l10 -73q-13 -4 -31.5 -6.5t-36.5 -2.5q-56 0 -85 31t-44 106q-9 48 -13.5 122.5t-4.5 171.5h-165q2 -111 -13 -219t-48 -210l-99 12q38 109 56 211.5t17 205.5h-121v74h586v-74h-123z" />
    <glyph glyph-name="endash" unicode="&#x2013;" 
d="M0 259v78h550v-78h-550z" />
    <glyph glyph-name="emdash" unicode="&#x2014;" horiz-adv-x="1000" 
d="M118 259v78h764v-78h-764z" />
    <glyph glyph-name="uni2015" unicode="&#x2015;" horiz-adv-x="1000" 
d="M118 259zM118 259v78h764v-78h-764z" />
    <glyph glyph-name="quoteleft" unicode="&#x2018;" horiz-adv-x="244" 
d="M203 715q-48 -52 -54.5 -86.5t11.5 -56.5q10 -14 11.5 -29.5t-4.5 -29t-19.5 -22.5t-31.5 -9q-27 0 -45 22t-16.5 59.5t26.5 85.5t83 101l39 -35v0z" />
    <glyph glyph-name="quoteright" unicode="&#x2019;" horiz-adv-x="244" 
d="M126 743q28 0 45.5 -22t16 -60.5t-28 -87t-81.5 -98.5l-39 35q45 49 53.5 84t-10.5 59q-10 13 -11.5 29t5 30t19.5 22.5t31 8.5z" />
    <glyph glyph-name="quotesinglbase" unicode="&#x201a;" horiz-adv-x="244" 
d="M126 113q27 0 45 -22t17 -58.5t-26.5 -85t-83.5 -101.5l-39 34q48 53 54.5 87.5t-11.5 56.5q-11 13 -12 28.5t5 29t19.5 22.5t31.5 9z" />
    <glyph glyph-name="quotedblleft" unicode="&#x201c;" horiz-adv-x="433" 
d="M203 715q-45 -49 -53.5 -84t10.5 -59q10 -13 11.5 -29t-5 -30t-19.5 -22.5t-31 -8.5q-28 0 -45.5 22t-16 60.5t28 87t81.5 98.5zM393 715q-45 -49 -53.5 -84t10.5 -59q10 -13 11.5 -29t-5 -30t-19.5 -22.5t-31 -8.5q-28 0 -45.5 22t-16 60.5t28 87t81.5 98.5z" />
    <glyph glyph-name="quotedblright" unicode="&#x201d;" horiz-adv-x="433" 
d="M126 743q27 0 45 -22t16.5 -59t-26.5 -85.5t-83 -101.5l-39 35q48 52 54 86.5t-11 56.5q-11 13 -12 29t5 29.5t19.5 22.5t31.5 9zM316 743q27 0 45 -22t16.5 -59t-26.5 -85.5t-83 -101.5l-39 35q48 52 54 86.5t-11 56.5q-11 13 -12 29t5 29.5t19.5 22.5t31.5 9z" />
    <glyph glyph-name="quotedblbase" unicode="&#x201e;" horiz-adv-x="433" 
d="M126 113q27 0 45 -22t17 -58.5t-26.5 -85t-83.5 -101.5l-39 34q48 54 54.5 88t-11.5 56q-11 13 -12 28.5t5 29t19.5 22.5t31.5 9zM316 113q27 0 45 -22t17 -58.5t-26.5 -85t-83.5 -101.5l-39 34q48 53 54.5 87.5t-11.5 56.5q-11 13 -12 28.5t5 29t19.5 22.5t31.5 9z" />
    <glyph glyph-name="dagger" unicode="&#x2020;" horiz-adv-x="449" 
d="M260 557l17 -98l-19 -251h-67l-19 251l16 98h-140v70h140l-16 137h105l-17 -137h140v-70h-140z" />
    <glyph glyph-name="daggerdbl" unicode="&#x2021;" horiz-adv-x="449" 
d="M261 295l16 -130h-106l17 130h-140v70h140l-16 100l16 99h-140v70h140l-16 130h105l-16 -130h139v-70h-139l16 -99l-16 -100h139v-70h-139z" />
    <glyph glyph-name="bullet" unicode="&#x2022;" horiz-adv-x="420" 
d="M331 297q0 -25 -9.5 -47t-26 -38.5t-38.5 -26t-47 -9.5t-47 9.5t-38.5 26t-26 38.5t-9.5 47t9.5 47t26 38.5t38.5 26t47 9.5t47 -9.5t38.5 -26t26 -38.5t9.5 -47z" />
    <glyph glyph-name="ellipsis" unicode="&#x2026;" horiz-adv-x="665" 
d="M173 51q0 -25 -17.5 -42.5t-42.5 -17.5q-26 0 -43.5 17.5t-17.5 42.5q0 26 17.5 43.5t43.5 17.5q25 0 42.5 -17.5t17.5 -43.5zM388 51q0 -25 -17.5 -42.5t-43.5 -17.5q-25 0 -42.5 17.5t-17.5 42.5q0 26 17.5 43.5t42.5 17.5q26 0 43.5 -17.5t17.5 -43.5zM603 51
q0 -25 -17.5 -42.5t-43.5 -17.5q-25 0 -42.5 17.5t-17.5 42.5q0 26 17.5 43.5t42.5 17.5q26 0 43.5 -17.5t17.5 -43.5z" />
    <glyph glyph-name="perthousand" unicode="&#x2030;" horiz-adv-x="1026" 
d="M321 539q0 -37 -11 -67t-30.5 -50.5t-45.5 -31.5t-55 -11q-62 0 -97 36.5t-35 110.5q0 36 11 65.5t30.5 50t45 31.5t54.5 11q61 0 97 -35.5t36 -109.5zM249 532q0 47 -15.5 69.5t-48.5 22.5q-31 0 -48.5 -25t-17.5 -68q0 -47 15.5 -69.5t48.5 -22.5q31 0 48.5 25t17.5 68
zM112 -16l-55 42l527 665l56 -44zM651 151q0 -37 -11 -67t-30.5 -51t-45.5 -32t-55 -11q-62 0 -97 36.5t-35 110.5q0 36 11 66t30.5 50.5t45 31t54.5 10.5q61 0 97 -35t36 -109zM580 144q0 47 -15.5 69t-49.5 22q-31 0 -48.5 -25t-17.5 -67q0 -48 15 -70t49 -22q31 0 49 25
t18 68zM969 151q0 -37 -11 -67.5t-30.5 -51t-45 -31.5t-54.5 -11q-62 0 -97 36.5t-35 110.5q0 36 11 66t30.5 50.5t45 31t54.5 10.5q61 0 96.5 -35t35.5 -109zM898 144q0 47 -15.5 69t-48.5 22q-31 0 -49 -25t-18 -67q0 -92 65 -92q31 0 48.5 25t17.5 68z" />
    <glyph glyph-name="guilsinglleft" unicode="&#x2039;" horiz-adv-x="313" 
d="M172 115l-119 178l120 181l66 -36l-96 -144l97 -142z" />
    <glyph glyph-name="guilsinglright" unicode="&#x203a;" horiz-adv-x="313" 
d="M139 115l-66 36l98 144l-97 142l68 37l118 -178z" />
    <glyph glyph-name="fraction" unicode="&#x2044;" horiz-adv-x="207" 
d="M-176 -141l-58 41l639 904l58 -41z" />
    <glyph glyph-name="fraction" unicode="&#x2215;" horiz-adv-x="207" 
d="M-176 -141l-58 41l639 904l58 -41z" />
    <glyph glyph-name="four.superior" unicode="&#x2074;" horiz-adv-x="390" 
d="M299 457v-93h-79v93h-194l-6 56l162 269h117v-258h67v-67h-67zM220 725l-122 -203q12 0 28.5 0.5t33.5 0.5h31h29v202z" />
    <glyph glyph-name="nsuperior" unicode="&#x207f;" horiz-adv-x="429" 
d="M286 364v215q0 32 -11.5 49.5t-42.5 17.5q-39 0 -64 -33t-25 -87v-162h-78v336h75q0 -13 -1 -32t-4 -33q20 39 52 55.5t71 16.5q30 0 50.5 -8.5t33 -23t18 -34.5t5.5 -42v-235h-79z" />
    <glyph glyph-name="Euro" unicode="&#x20ac;" horiz-adv-x="592" 
d="M564 45q-42 -26 -87 -40.5t-107 -14.5q-117 0 -185 61t-83 179h-89v59h84q-1 13 -1 19.5v16.5q0 15 0.5 27t1.5 28h-85v58h92q11 65 37 111.5t63 76.5t84 44.5t100 14.5q47 0 92 -11.5t74 -28.5l-26 -72q-26 16 -64 27t-83 11q-33 0 -62 -10t-52.5 -31t-40 -53.5
t-24.5 -78.5h223v-58h-230q-1 -15 -1 -24v-21v-21t1 -25h230v-59h-224q11 -79 57 -122t127 -43q38 0 78 13t73 35z" />
    <glyph glyph-name="trademark" unicode="&#x2122;" horiz-adv-x="699" 
d="M578 394l-22 147l-7 54l-12 -47l-45 -154h-69l-44 157l-11 44l-3 -37l-24 -164h-64l44 281h86l45 -154l10 -46l9 42l47 158h86l43 -281h-69zM187 620v-226h-69v226h-74v55h216v-55h-73z" />
    <glyph glyph-name="partialdiff" unicode="&#x2202;" horiz-adv-x="637" 
d="M440 238q0 54 -33 90t-98 36q-32 0 -58.5 -12t-46 -33t-29.5 -49.5t-10 -61.5q0 -69 34.5 -103.5t90.5 -34.5q32 0 59.5 13t47.5 35.5t31.5 53t11.5 66.5zM564 409q0 -88 -21.5 -174t-70.5 -149q-33 -42 -83.5 -68t-110.5 -26q-100 0 -152 56t-52 152q0 51 17.5 95t49 76
t75.5 50t98 18q58 0 98 -26t58 -68v45t-1 39q-3 59 -21 102.5t-47 72.5t-68.5 43t-84.5 14l10 74q69 -1 125.5 -23.5t96.5 -64.5t62 -102t22 -136z" />
    <glyph glyph-name="product" unicode="&#x220f;" horiz-adv-x="784" 
d="M634 653v-900h-87v900h-309v-900h-87v900h-106v77h694v-77h-105z" />
    <glyph glyph-name="summation" unicode="&#x2211;" horiz-adv-x="609" 
d="M36 -247v70l309 427l-290 410v70h483v-77h-371l284 -399l-307 -421h409v-80h-517z" />
    <glyph glyph-name="minus" unicode="&#x2212;" 
d="M42 259v78h466v-78h-466z" />
    <glyph glyph-name="radical" unicode="&#x221a;" horiz-adv-x="608" 
d="M345 0h-104l-148 428h-92v69h165l95 -289q11 -34 19 -60.5t15 -53.5h2q12 55 27 106l158 558h97z" />
    <glyph glyph-name="infinity" unicode="&#x221e;" horiz-adv-x="975" 
d="M417 297q-61 46 -102 68.5t-77 22.5q-42 0 -66.5 -26t-24.5 -63q0 -40 24.5 -64.5t69.5 -24.5q36 0 77 22t99 65zM828 298q0 40 -24.5 65t-69.5 25q-35 0 -77 -22.5t-99 -65.5q60 -45 101.5 -67.5t77.5 -22.5q42 0 66.5 25.5t24.5 62.5zM918 303q0 -35 -12.5 -66
t-36.5 -55t-59 -37.5t-78 -13.5q-56 0 -115 29.5t-133 84.5q-33 -25 -62 -44.5t-60 -35t-63 -25t-64 -9.5q-44 0 -77.5 12.5t-56 35t-33.5 52t-11 63.5q0 36 13 67.5t37 55t58 36.5t75 13q58 0 118 -29.5t133 -84.5q33 25 62 44t60 35t63 25.5t63 9.5q43 0 76.5 -12.5
t56.5 -35t34.5 -52t11.5 -63.5z" />
    <glyph glyph-name="integral" unicode="&#x222b;" horiz-adv-x="339" 
d="M317 895q-11 3 -24.5 5.5t-25.5 2.5q-20 0 -33.5 -6.5t-22 -24t-12.5 -49.5t-4 -83q0 -37 1 -94t2 -112.5t3.5 -163t4 -178t2.5 -137.5t1 -116q0 -71 -9.5 -120t-28.5 -80t-47.5 -45t-67.5 -14q-12 0 -25 1.5t-28 4.5v79q10 -3 23 -5t25 -2q20 0 33.5 6.5t22.5 23.5
t13 48.5t4 81.5q0 35 -1 91t-2 107.5t-3.5 163t-4 184t-2.5 139.5t-1 117q0 71 10 121t29.5 80.5t48.5 44.5t68 14q12 0 25.5 -1.5t25.5 -4.5v-79z" />
    <glyph glyph-name="approxequal" unicode="&#x2248;" 
d="M504 194q-26 -23 -59.5 -38t-69.5 -15q-33 0 -56.5 7.5t-52.5 23t-48 22.5t-45 7q-27 0 -50.5 -12t-46.5 -31l-30 63q27 24 59 40t69 16q31 0 54.5 -8t53 -23t50 -22.5t47.5 -7.5q25 0 48 10t48 30zM504 373q-26 -26 -58.5 -42t-70.5 -16q-31 0 -54.5 7.5t-52 22.5
t-48.5 22.5t-47 7.5q-28 0 -52 -12t-46 -30l-29 62q26 25 60 41t71 16q31 0 55 -8t54 -23.5t49 -22.5t43 -7q25 0 48 11t48 33z" />
    <glyph glyph-name="notequal" unicode="&#x2260;" 
d="M266 175l-56 -139h-80l56 139h-130v74h159l38 96h-197v75h226l57 141h80l-56 -141h131v-75h-161l-39 -96h200v-74h-228z" />
    <glyph glyph-name="lessequal" unicode="&#x2264;" 
d="M68 0v75h414v-75h-414zM418 127l-361 248l360 248l53 -62l-286 -185l286 -183z" />
    <glyph glyph-name="greaterequal" unicode="&#x2265;" 
d="M68 0v75h414v-75h-414zM133 127l-53 62l286 186l-286 183l52 65l361 -247z" />
    <glyph glyph-name="lozenge" unicode="&#x25ca;" horiz-adv-x="619" 
d="M304 585l-171 -242l182 -252l172 239zM341 -9h-57l-250 350l246 343h55l250 -349z" />
    <glyph glyph-name="BBox" unicode="&#xeeee;" horiz-adv-x="175" 
d="M175 980v-1300h-175v1300h175z" />
    <glyph glyph-name="FoFa" unicode="&#xf000;" horiz-adv-x="960" 
d="M295 42q0 -8 -4.5 -13t-9.5 -10q-4 -1 -8 -4t-9 0q-7 2 -5 7.5t3 10.5q0 6 9 10q6 0 10 4q3 -1 7.5 -0.5t6.5 -4.5zM430 77q7 -14 4 -29t-13 -26q-2 -4 -5.5 -4.5t-6.5 -2.5q-13 2 -14.5 13t-3.5 20q2 8 2.5 16.5t5.5 15.5q7 4 10 11t11 7l3 -3q-2 -7 2 -10t5 -8z
M248 181q-12 2 -25.5 1.5t-26.5 -1.5q-8 -1 -15 -2.5t-12 -5.5q-1 -16 -3 -32.5t-4 -32.5q2 -26 1 -54.5t1 -55.5q4 0 7.5 1.5t6.5 -0.5q6 2 11.5 -0.5t11.5 0.5q1 16 1 31q0 16 1 32q2 5 6.5 7.5t9.5 4.5q4 2 8 0t7 3l-1 28q-4 5 -9.5 4.5t-11.5 -0.5q-4 -4 -7 -4
q-8 2 -7.5 9.5t-1.5 12.5q-2 4 4 10q10 3 19.5 4.5t19.5 3.5l6 4q-2 9 0.5 16.5t2.5 15.5zM333 34q-3 11 -3 22t0.5 22t-0.5 21.5t-7 19.5q-11 7 -23 12l-8 5q-8 -2 -16.5 -0.5t-16.5 -4.5q-7 -4 -7 -11t-1 -15q5 -2 11.5 -1.5t12.5 1t11.5 -1t9.5 -7.5q-1 -4 1.5 -6
t-0.5 -6q-3 -5 1 -8q2 -2 1 -5t-4 -4q-7 -2 -13.5 -1.5t-14.5 -1.5q-11 -5 -17 -15.5t-8 -21.5q-3 -5 -0.5 -10.5t-1.5 -10.5q0 -7 5 -11t10 -6q5 5 8 2q8 -2 14.5 4.5t14.5 11.5q5 1 6 -1t1 -6q0 -3 -0.5 -7t2.5 -6q5 -2 8 0t8 2q4 2 8 2.5t7 3.5l1 39v0zM458 30
q9 17 6.5 35t-6.5 38q1 3 -2.5 6t-8 5t-8.5 4.5t-6 3.5q-2 2 -5 2q-2 0 -3 -3q-11 1 -19 -4q-5 -3 -7.5 -8t-6.5 -7q-5 -3 -9 3q4 18 2 36.5t-5 37.5l-2 7h-8q-9 -3 -8 -11t-1 -14q-3 -17 -2 -34t-2 -34q2 -17 0 -33t0 -31q0 -9 -1.5 -17.5t-0.5 -18.5q7 -4 15.5 -1t15.5 6
q5 2 8 1t5.5 -4l5 -6t5.5 -5q8 0 13 1q11 6 23.5 19.5t11.5 25.5zM560 123q-8 -1 -16.5 -2.5t-13.5 -10.5q-4 -4 -5 -11.5t-10 -5.5q-2 8 -2 14v15q-4 2 -7.5 0t-7.5 0q-7 -4 -11 -13q0 -29 0.5 -55.5t3.5 -55.5l3 -4q5 -4 11.5 -1.5t11.5 0.5q-3 11 -0.5 20.5t-1.5 20.5
q2 11 5 22.5t11 21.5q6 5 13 6.5t13 6.5q1 8 3 16t0 16zM610 15q0 20 -1 39t-1 37q0 7 1 13.5t-1 12.5q-7 5 -13.5 2t-14.5 -2q-7 -11 -5 -24t0 -26q-2 -5 -2 -12t-1 -14q2 -10 0.5 -22t5.5 -22q15 0 30 5q2 3 2 6v7zM608 179q-2 5 -4.5 9t-7.5 6q-2 2 -5 2.5t-5 -2.5
q-5 -6 -7 -15t3 -15q2 -5 8 -5.5t11 1.5q9 6 7 19zM739 -10q-4 8 -8 16.5t-10 15.5q-6 11 -13 20.5t-9 22.5q-2 5 -5 8.5t-1 8.5q7 8 16.5 13t16.5 13l-9 17q-9 -1 -16 -4.5t-15 -5.5q-4 -2 -9 -6t-10 1q1 20 1.5 39.5t-0.5 38.5l-2 3q-8 0 -14 2.5t-13 4.5
q-2 -11 -3.5 -23.5t0.5 -24.5q-3 -8 -0.5 -19.5t-1.5 -19.5q1 -15 0.5 -27.5t-1.5 -24.5t-1 -24t1 -27l-1 -7h24q3 1 6.5 -1t5.5 1v13q0 7 -1 15q1 8 -2 16.5t7 11.5q5 -2 5.5 -6.5t3.5 -8.5q-1 -7 3.5 -12t6.5 -11q10 -6 15 -16t14 -17q3 1 5.5 -1.5t7.5 -0.5q6 0 6 6z
M425 539q-2 11 -7.5 21.5t-18.5 12.5q-2 -5 -6.5 -3.5t-7.5 0.5q-7 3 -14 1t-12 -7q-11 -15 -3.5 -29t15.5 -27q2 -4 5 -3t7 0q7 -2 13 1.5t12 5.5q6 6 13.5 11t3.5 16zM767 -62q-22 2 -49 -2.5t-48 -1.5q-56 2 -109 -4t-108 0q-25 -4 -48.5 -1.5t-47.5 4.5q-29 2 -59.5 1.5
t-61.5 -0.5q-21 0 -50 -1.5t-50 -6.5q-4 -1 -9 -1q-4 0 -6 5q0 16 -1 32.5t4 32.5q2 20 1 40t2 40q-4 23 -0.5 44.5t-0.5 44.5q0 32 2.5 64.5t4.5 66.5q2 36 0.5 71.5t0.5 71.5q4 8 11.5 6.5t14.5 0.5q8 -5 18.5 -2.5t18.5 1.5q3 3 7.5 5.5t5.5 -4.5q2 -2 0.5 -6t2.5 -6
q-2 -14 -1.5 -38t2 -52t3.5 -57.5t3 -53.5q32 10 58.5 27.5t57.5 28.5q5 2 9.5 6t11.5 6q2 1 4 3t6 0q5 -2 4 -7t-1 -10q-10 -29 -5 -61q2 -5 6.5 -3t7.5 2q8 7 17 11.5t17 10.5q10 6 20 11.5t21 9.5q12 8 23.5 16t24.5 13l20 16q1 4 6 7q3 0 5.5 -2t5.5 -4q0 -14 3 -28.5
t3 -28.5q1 -3 3 -2.5t3 -1.5q4 -5 2 -10l-4 -10l2 -2q17 4 31.5 13t29 19t29 19t31.5 13q5 5 11 6.5t11 6.5q5 1 9 4.5t8.5 6.5t9.5 4.5t11 -3.5q2 0 4 -1t3 -3q-1 -4 0.5 -6.5t3.5 -5.5q-2 -8 0 -14.5t-2 -12.5q1 -13 0 -25t5 -23q-2 -7 2.5 -12.5t-0.5 -10.5q1 -8 0 -14.5
t4 -12.5q1 -5 1.5 -9.5t-2.5 -8.5q2 -11 2.5 -23t4.5 -23q-2 -4 -1 -8t1 -8q0 -38 5.5 -73.5t6.5 -73.5q0 -2 1.5 -4.5t-0.5 -4.5zM452 664q-12 -13 -29 -8q-5 6 -9 11.5t-5 12.5q-13 20 -35 25t-43 11l-31 2q-2 -2 -6 -1t-7 -1q-33 -10 -55 -21q-6 -8 -15.5 -13.5
t-11.5 -16.5q-6 -15 -8 -34t-3 -36q5 -4 11 -2.5t11 0.5q21 2 42 2h44q4 -2 1 -7q-8 -6 -15.5 -0.5t-15.5 2.5q-10 1 -20.5 -0.5t-20.5 -0.5q-9 -2 -19 -2q-9 0 -17 -5l-3 -4q-2 -19 -1.5 -31t2.5 -32q2 -7 0.5 -14t3.5 -14q13 -1 20.5 -0.5t14 1t14 1.5t20.5 1q3 2 6.5 1
t6.5 -2q1 -1 0.5 -2t0.5 -2l-4 -2q-12 2 -21 1.5t-18 -1.5t-20 -2t-26 0q-11 -1 -23 -2t-23 0q-16 -1 -33 -1t-31 4l-2 3q3 3 9 5q8 -4 18 -4.5t21 -2.5q7 1 14 0.5t12 3.5q-1 26 4 46t7 47q-1 2 -3 4q-15 1 -28.5 0t-27.5 5q-2 5 3 5q14 -4 28 -4t28 1l2 3q2 17 5.5 34.5
t9.5 31.5v3q23 26 52.5 42t66.5 20q18 2 36 -2t34 -11q5 -2 10 -2t10 -2q17 -4 34 -12t28 -23q2 -2 0 -9zM447 559q3 -19 -7 -31q-11 -7 -20 -15.5t-22 -10.5q-6 2 -7 -3.5t-6 -1.5t-12 2t-13 -1q-6 0 -11 0.5t-10 2.5q-8 7 -15.5 15.5t-2.5 20.5q3 9 8.5 17t15.5 13
q11 5 22 10.5t25 2.5q16 -1 31.5 -4t23.5 -17zM648 502q-12 0 -25.5 -0.5t-25.5 -4.5q-4 2 -7.5 2.5t-5.5 5.5q2 14 3.5 28t-2.5 28q-2 3 -6.5 0.5t-7.5 -4.5q-14 -8 -26.5 -19.5t-14.5 -28.5q-4 -4 -9 -5.5t-10 0.5q-5 7 -3 15t0 16l-1 31q-3 3 -8 1.5t-10 0.5q-2 2 -6.5 1
t-4.5 4q13 -1 25.5 1t26.5 0q3 -3 3 -7v-8t1 -7t5 -5q14 6 26 14.5t26 13.5q6 -4 14 -1.5t10 -7.5q2 -11 1.5 -21.5t0.5 -21.5q2 -3 1.5 -6.5t2.5 -5.5q9 -2 13 0q4 0 8 -1t9 -1q3 -2 0 -5zM880 571q0 -4 -2 -4q-11 2 -21 0.5t-21 -2.5q-34 -2 -53.5 -3t-36.5 -4
q-8 -7 -7 -16t-3 -17q0 -5 1.5 -8t2.5 -7q4 -5 14 -7q7 1 13.5 4t9.5 9q0 7 -7 12q-5 4 -10.5 3t-9.5 4q3 5 9.5 4t12.5 -1q10 -3 15 -16q-1 -15 -18 -27q-5 -2 -10.5 -2.5t-10.5 -2.5q-12 3 -24.5 8t-20.5 16q-4 12 -1 22.5t4 21.5q-2 5 -6 4t-9 0l-33 -1q0 2 -1 2t-1 2
q3 2 7 2t7 1q9 -2 19 -1t19 1q4 3 4.5 7.5t0.5 9.5q3 7 3.5 16t5.5 14q5 3 8 -1t6 -6q5 -8 3 -17.5t2 -18.5q4 -6 10.5 -4t11.5 0q23 2 49 1.5t64 4.5q3 -2 4 -3z" />
    <glyph glyph-name="fi" unicode="&#xf001;" horiz-adv-x="590" 
d="M415 0v427h-216v-427h-90v427h-102v70h102v21q0 105 57 162t172 57q38 0 76 -5t70 -14l-17 -75q-32 9 -67 14.5t-69 5.5q-66 0 -99 -35t-33 -99v-32h306v-497h-90z" />
    <glyph glyph-name="fl" unicode="&#xf002;" horiz-adv-x="590" 
d="M415 0v656q-46 8 -93 8q-63 0 -93 -30.5t-30 -97.5v-39h128v-70h-128v-427h-90v427h-102v70h102v35q0 102 54.5 153t170.5 51q50 0 99 -5t72 -8v-723h-90z" />
    <glyph glyph-name="apple" unicode="&#xf8ff;" horiz-adv-x="1041" 
d="M152 665q11 11 21 21.5t22 20.5l83 -96q-8 -6 -15.5 -14t-15.5 -15l-95 83v0zM543 696q-23 2 -44 0l-8 124q31 2 60 0l-8 -124v0zM846 706q24 -19 43 -43l-94 -81q-7 8 -15 16t-16 14zM1019 369q3 -31 0 -61l-126 9q2 21 0 43l126 9v0zM763 338q0 -52 -19.5 -95.5
t-48.5 -72.5v-77l-16 -5l32 -74l-30 -8l30 -72l-31 -7l10 -25l-29 -68h-51q-3 -18 -28.5 -31t-60.5 -13q-36 0 -61 13t-27 31h-52l-50 122l31 8l-31 74l34 9l-19 46v78q-29 30 -48 73t-19 94q0 50 19 94t51.5 77t76.5 52t95 19q50 0 94 -19t77 -52t52 -77t19 -94zM455 192
l-16 137q-13 -3 -21 -6.5t-15 -5.5t-11 4t-4.5 15t1 17t6.5 10q29 8 61.5 14t64.5 6q34 0 66.5 -6t61.5 -14q4 -1 5.5 -9t1 -17t-4.5 -15.5t-11 -4.5q-8 4 -17 6.5t-22 5.5l-14 -137h59q26 23 46 60.5t20 85.5q0 40 -15 75t-41 61t-61 41t-74 15q-40 0 -75 -15t-61 -41
t-41 -61t-15 -75q0 -42 17.5 -80.5t50.5 -65.5h58zM564 335q-13 2 -22.5 2.5t-20.5 0.5q-10 0 -21 -0.5t-24 -2.5l15 -143h60l13 143v0zM395 151v-54l16 -38l235 59v33h-251zM633 77l-241 -62l16 -39l241 60zM634 -6l-242 -61l26 -62h207l14 32l-7 14l-74 -19l-12 33l104 26
zM510 358h-2v6h-1v-7h3v1zM513 362v-3q0 -2 -0.5 -1.5t-0.5 1.5v3h-1v-3q0 -2 1 -2q2 0 2 2v3h-1zM518 358q-2 -1 -2 1q0 3 2 2v1q-2 1 -2.5 -2.5t2.5 -2.5v1zM522 355q-3 5 0 10q-2 0 -2 -5t2 -5zM525 357h1v3q0 5 -4 1q2 0 3 -1q-2 0 -3 -2t3 0v-1zM525 359q-2 -2 -2 -1
q0 2 2 1zM528 357q5 0 2.5 2t-0.5 2v1q-5 0 -2 -2t0 -2v-1v0zM531 355q2 0 2 5t-2 5q3 -5 0 -10zM150 360q-2 -22 0 -44l-128 -9q-2 32 0 62z" />
    <glyph glyph-name="f_f" unicode="&#xfb00;" horiz-adv-x="652" 
d="M433 633q-27 10 -57 15.5t-58 5.5q-60 0 -89.5 -31t-29.5 -92v-34h213v31q0 65 21 105zM677 652q-9 3 -30.5 7t-44.5 4q-52 0 -76 -31t-24 -98v-37h138v-70h-138v-427h-90v427h-213v-427h-90v427h-102v70h102v25q0 43 11.5 80t37 65.5t67 44.5t100.5 16q36 0 77 -7.5
t80 -19.5q49 35 123 35q39 0 79 -8z" />
    <glyph glyph-name="f_i" unicode="&#xfb01;" horiz-adv-x="590" 
d="M415 0v427h-216v-427h-90v427h-102v70h102v21q0 105 57 162t172 57q38 0 76 -5t70 -14l-17 -75q-32 9 -67 14.5t-69 5.5q-66 0 -99 -35t-33 -99v-32h306v-497h-90z" />
    <glyph glyph-name="f_l" unicode="&#xfb02;" horiz-adv-x="590" 
d="M415 0v656q-46 8 -93 8q-63 0 -93 -30.5t-30 -97.5v-39h128v-70h-128v-427h-90v427h-102v70h102v35q0 102 54.5 153t170.5 51q50 0 99 -5t72 -8v-723h-90z" />
    <glyph glyph-name="f_f_i" unicode="&#xfb03;" horiz-adv-x="891" 
d="M437 631q-28 11 -59 17t-60 6q-60 0 -89.5 -31t-29.5 -92v-34h213v21q0 31 6 60t19 53zM718 0v427h-216v-427h-90v427h-213v-427h-90v427h-102v70h102v25q0 43 11.5 80t37 65.5t67 44.5t100.5 16q38 0 83.5 -8.5t83.5 -22.5q28 20 64.5 30t84.5 10q38 0 76 -5t70 -14
l-18 -75q-32 9 -67 14.5t-68 5.5q-67 0 -99.5 -34.5t-32.5 -99.5v-32h306v-497h-90z" />
    <glyph glyph-name="f_f_l" unicode="&#xfb04;" horiz-adv-x="891" 
d="M433 633q-27 10 -57 15.5t-58 5.5q-60 0 -89.5 -31t-29.5 -92v-34h213v35q0 59 21 101zM718 0v656q-46 8 -93 8q-64 0 -93.5 -30t-29.5 -98v-39h127v-70h-127v-427h-90v427h-213v-427h-90v427h-102v70h102v25q0 43 11.5 80t37 65t67 44t100.5 16q38 0 80.5 -7.5
t81.5 -20.5q26 18 63 27.5t86 9.5q51 0 100 -5t72 -8v-723h-90z" />
    <glyph glyph-name="s_t" unicode="&#xfb06;" horiz-adv-x="783" 
d="M750 3q-22 -5 -48 -8t-49 -3q-39 0 -64.5 8.5t-41.5 26.5t-22.5 46.5t-6.5 69.5v284h-100v70h100v12q0 72 -37 113.5t-99 41.5q-51 0 -75.5 -24.5t-24.5 -61.5q0 -29 16 -52.5t45 -34.5l-8 -69q-19 7 -45 11t-52 4q-48 0 -72 -18t-24 -49q0 -27 17.5 -42.5t43.5 -26
t56 -20.5t56 -26t43.5 -42.5t17.5 -69.5q0 -32 -13 -59.5t-39 -48t-64.5 -32.5t-88.5 -12q-31 0 -62 3.5t-55 9.5l7 80q24 -9 56 -15t61 -6q51 0 78 19t27 54q0 27 -17.5 42.5t-43 26t-56 20t-56 25.5t-43 42t-17.5 70q0 31 13.5 57.5t38 45.5t59 28.5t76.5 6.5
q-18 12 -29.5 33t-11.5 51t12.5 57.5t36.5 48t60.5 32.5t84.5 12q46 0 86 -13t69.5 -40.5t46 -69t16.5 -98.5v-16h138v-70h-138v-262q0 -28 3 -46.5t11 -30t21.5 -16t33.5 -4.5q17 0 34.5 2.5t31.5 5.5z" />
    <glyph glyph-name="f_b" horiz-adv-x="889" 
d="M846 272q0 -65 -18 -116.5t-52 -88t-82 -55.5t-108 -19q-32 0 -62.5 3t-54 6.5t-36.5 6.5t-18 4v643q-3 1 -10.5 2t-20.5 2.5t-29.5 2.5t-32.5 1q-63 0 -93 -30.5t-30 -97.5v-39h128v-70h-128v-427h-90v427h-102v70h102v35q0 102 54.5 153t170.5 51q28 0 57.5 -2t54 -4.5
t39 -4t20.5 -2.5v-234q0 -22 -2 -48.5t-6 -44.5l2 -1q20 52 63.5 81.5t100.5 29.5q88 0 135.5 -60t47.5 -174zM751 264q0 82 -27 125t-83 43q-32 0 -58 -17t-43 -45t-26 -62t-9 -67v-164q3 -1 9.5 -2.5t18.5 -4t28 -4.5t33 -2q36 0 65 11.5t49.5 35.5t31.5 62t11 91z" />
    <glyph glyph-name="f_h" horiz-adv-x="905" 
d="M731 0v320q0 56 -19 84t-65 28q-30 0 -56 -14.5t-45.5 -41t-30 -62t-10.5 -76.5v-238h-90v656q-3 1 -10.5 2t-20.5 2.5t-29.5 2.5t-32.5 1q-63 0 -93 -30.5t-30 -97.5v-39h128v-70h-128v-427h-90v427h-102v70h102v35q0 102 54.5 153t170.5 51q28 0 57.5 -2t54 -4.5t39 -4
t20.5 -2.5v-229q0 -27 -2 -53.5t-6 -45.5l2 -1q22 52 67 82t106 30q41 0 70 -12t46.5 -33.5t25 -50t7.5 -63.5v-347h-90z" />
    <glyph glyph-name="f_j" horiz-adv-x="589" 
d="M505 -55q0 -51 -8.5 -88t-28.5 -61.5t-53 -37t-82 -12.5q-17 0 -35.5 2.5t-32.5 6.5l8 79q14 -5 30.5 -8.5t32.5 -3.5q24 0 39 5.5t24 18.5t12.5 35t3.5 56v490h-216v-427h-90v427h-102v70h102v21q0 105 57 162t172 57q38 0 76 -5t70 -14l-17 -75q-32 9 -67 14.5t-69 5.5
q-66 0 -99 -35t-33 -99v-32h306v-552z" />
    <glyph glyph-name="f_k" horiz-adv-x="824" 
d="M689 0l-184 256v-256h-90v656q-3 1 -10.5 2t-20.5 2.5t-29.5 2.5t-32.5 1q-63 0 -93 -30.5t-30 -97.5v-39h128v-70h-128v-427h-90v427h-102v70h102v35q0 102 54.5 153t170.5 51q28 0 57.5 -2t54 -4.5t39 -4t20.5 -2.5v-444l175 218h110l-191 -227l206 -270h-116z" />
    <glyph glyph-name="grave.cap" horiz-adv-x="373" 
d="M273 725l-190 56l26 70l181 -74z" />
    <glyph glyph-name="acute.cap" horiz-adv-x="373" 
d="M100 725l-17 52l182 74l25 -70z" />
    <glyph glyph-name="dieresis.cap" horiz-adv-x="487" 
d="M404 782q0 -22 -15.5 -38t-38.5 -16q-22 0 -37.5 15.5t-15.5 38.5t15.5 38.5t37.5 15.5q23 0 38.5 -15.5t15.5 -38.5zM191 782q0 -22 -15.5 -38t-38.5 -16q-22 0 -38 16t-16 38q0 23 16 38.5t38 15.5q23 0 38.5 -15.5t15.5 -38.5z" />
    <glyph glyph-name="macron.cap" horiz-adv-x="442" 
d="M83 748v62h276v-62h-276z" />
    <glyph glyph-name="circumflex.cap" horiz-adv-x="483" 
d="M375 724l-133 60l-135 -60l-24 50l160 83l158 -81z" />
    <glyph glyph-name="tilde.cap" horiz-adv-x="519" 
d="M436 808q-20 -35 -48.5 -54t-63.5 -19q-26 0 -43.5 8t-32 18t-27.5 18t-29 8q-36 0 -63 -45l-46 33q20 35 48.5 54.5t63.5 19.5q25 0 43 -8t32.5 -18t27.5 -18t29 -8q34 0 63 44l46 -33v0z" />
    <glyph glyph-name="caron.cap" horiz-adv-x="483" 
d="M240 724l-157 82l25 51l134 -60l135 60l24 -50z" />
    <glyph glyph-name="breve.cap" horiz-adv-x="425" 
d="M342 852q0 -52 -34.5 -87t-96.5 -35q-32 0 -55.5 9.5t-40 26t-24.5 39t-8 47.5h58q0 -26 20 -43.5t52 -17.5t51 17.5t19 43.5h59z" />
    <glyph glyph-name="dotaccent.cap" horiz-adv-x="282" 
d="M199 785q0 -24 -17 -41t-41 -17t-41 17t-17 41t17 41t41 17t41 -16.5t17 -41.5z" />
    <glyph glyph-name="ring.cap" horiz-adv-x="400" 
d="M317 821q0 -48 -33.5 -79t-88.5 -31q-53 0 -82.5 26.5t-29.5 77.5q0 47 33.5 78t87.5 31t83.5 -26t29.5 -77zM250 817q0 57 -50 57q-22 0 -36.5 -14.5t-14.5 -41.5q0 -57 51 -57q22 0 36 14.5t14 41.5z" />
    <glyph glyph-name="hungarumlaut.cap" horiz-adv-x="526" 
d="M127 724l-44 40l113 130l55 -50zM302 724l-42 40l131 127l52 -53z" />
    <glyph glyph-name="uni0315.cap" horiz-adv-x="336" 
d="M135 606l-52 32l104 157l66 -39z" />
    <glyph glyph-name="grave.narrow" horiz-adv-x="369" 
d="M195 564l-99 158l69 36l85 -165z" />
    <glyph glyph-name="acute.narrow" horiz-adv-x="356" 
d="M135 568l-52 35l104 152l64 -43z" />
    <glyph glyph-name="dieresis.narrow" horiz-adv-x="297" 
d="M191 654q0 -22 -15.5 -38t-38.5 -16q-22 0 -38 16t-16 38q0 23 16 38.5t38 15.5q23 0 38.5 -15.5t15.5 -38.5zM366 654q0 -22 -15.5 -38t-38.5 -16q-22 0 -38 16t-16 38q0 23 16 38.5t38 15.5q23 0 38.5 -15.5t15.5 -38.5z" />
    <glyph glyph-name="macron.narrow" horiz-adv-x="395" 
d="M79 616v68h237v-68h-237z" />
    <glyph glyph-name="circumflex.narrow" horiz-adv-x="433" 
d="M301 570l-87 85l-88 -85l-37 42l126 131l125 -130z" />
    <glyph glyph-name="tilde.narrow" horiz-adv-x="489" 
d="M391 671q-16 -35 -40 -54.5t-57 -19.5q-18 0 -32.5 7.5t-27 16t-23 16t-20.5 7.5q-16 0 -27.5 -12.5t-19.5 -29.5l-44 32q12 31 36.5 54t61.5 23q18 0 32.5 -7.5t27 -16.5t23 -16.5t19.5 -7.5q16 0 27.5 12.5t20.5 29.5z" />
    <glyph glyph-name="breve.narrow" horiz-adv-x="400" 
d="M317 718q0 -66 -31.5 -100.5t-87.5 -34.5q-55 0 -85 35t-30 100h61q0 -27 14 -47.5t41 -20.5q26 0 41 18t15 50h62z" />
    <glyph glyph-name="dieresis.cap.narrow" horiz-adv-x="470" 
d="M387 782q0 -22 -15.5 -38t-38.5 -16q-22 0 -38 16t-16 38q0 23 16 38.5t38 15.5q23 0 38.5 -15.5t15.5 -38.5zM191 782q0 -22 -15.5 -38t-38.5 -16q-22 0 -38 16t-16 38q0 23 16 38.5t38 15.5q23 0 38.5 -15.5t15.5 -38.5z" />
    <glyph glyph-name=".ttfautohint" horiz-adv-x="470" 
d="M0 0z" />
    </font>
</defs>
</svg>
